<svg width="24" height="24" viewBox="0 0 24 24" fill="none" xmlns="http://www.w3.org/2000/svg">
<g clip-path="url(#clip0_1030_1852)">
<path d="M24 11C24.0026 8.92167 23.8857 6.84492 23.65 4.78C23.5652 4.14377 23.3095 3.54243 22.91 3.04C22.4651 2.53492 21.8411 2.22288 21.17 2.17C20.3 2.07 19.17 2 17.81 1.95C16.29 1.9 14.56 1.88 12.81 1.9C12.7311 1.91368 12.6596 1.9548 12.608 2.01608C12.5564 2.07737 12.5281 2.1549 12.5281 2.235C12.5281 2.3151 12.5564 2.39263 12.608 2.45391C12.6596 2.5152 12.7311 2.55631 12.81 2.57C14.55 2.57 16.28 2.69 17.81 2.8C19.11 2.89 20.24 3.01 21.09 3.14C21.508 3.18123 21.8927 3.38614 22.16 3.71C22.4203 4.09048 22.5629 4.53909 22.57 5C22.73 6.12 22.79 7.75 22.84 9.55C22.84 10.55 22.89 11.69 22.92 12.78C22.98 15.78 23.03 18.69 23.08 20.33C23.1028 20.871 22.9747 21.4076 22.71 21.88C22.6027 22.1054 22.4382 22.2988 22.233 22.4409C22.0277 22.583 21.7888 22.6689 21.54 22.69C21.4711 22.7027 21.4088 22.7392 21.364 22.7931C21.3191 22.847 21.2946 22.9149 21.2946 22.985C21.2946 23.0551 21.3191 23.123 21.364 23.1769C21.4088 23.2308 21.4711 23.2673 21.54 23.28C21.8255 23.269 22.1048 23.1941 22.3575 23.0609C22.6102 22.9276 22.8298 22.7394 23 22.51C23.5077 21.8811 23.7864 21.0982 23.79 20.29C23.85 18.33 24 14.54 24 11Z" fill="black"/>
<path d="M19.66 22.85C16.89 22.85 12.33 22.95 8.66002 22.85C7.10373 22.8675 5.54774 22.7941 4.00002 22.63C3.47794 22.5611 2.97099 22.4056 2.50002 22.17C2.30409 22.0874 2.12841 21.9632 1.98512 21.8061C1.84182 21.649 1.73432 21.4627 1.67002 21.26C1.49002 20.26 1.33002 18.46 1.18002 16.41C1.07002 14.85 1.00002 13.14 0.900019 11.5C0.780224 9.33208 0.840431 7.15797 1.08002 5C1.11975 4.75955 1.21193 4.53081 1.35002 4.33C1.50103 4.11741 1.68305 3.92864 1.89002 3.77C1.92663 3.75146 1.95889 3.72536 1.98466 3.69343C2.01044 3.6615 2.02915 3.62446 2.03954 3.58476C2.04994 3.54506 2.05179 3.5036 2.04498 3.46314C2.03817 3.42267 2.02284 3.38411 2.00002 3.35C1.95251 3.28919 1.8834 3.24902 1.80704 3.23784C1.73069 3.22667 1.65296 3.24535 1.59002 3.29C1.306 3.48437 1.05597 3.72426 0.850019 4C0.646052 4.26828 0.505842 4.57948 0.440019 4.91C0.0520864 7.64181 -0.0951461 10.4024 1.90232e-05 13.16C0.0202285 15.9321 0.207233 18.7004 0.560019 21.45C0.621992 21.7577 0.74736 22.049 0.928138 22.3056C1.10892 22.5621 1.34114 22.7782 1.61002 22.94C2.28429 23.3664 3.047 23.6331 3.84002 23.72C5.43141 23.879 7.03136 23.9358 8.63002 23.89C12.33 23.89 16.89 23.6 19.63 23.52C19.7176 23.515 19.8002 23.4773 19.8613 23.4143C19.9224 23.3514 19.9577 23.2677 19.96 23.18C19.9604 23.0974 19.9297 23.0177 19.8742 22.9567C19.8187 22.8956 19.7422 22.8575 19.66 22.85Z" fill="black"/>
<path d="M2.99999 12.52C3.01573 12.6744 3.06396 12.8237 3.14152 12.9582C3.21908 13.0926 3.32421 13.2091 3.44999 13.3C3.79999 13.5 4.29999 13.4 4.68999 12.81C5.09744 12.0987 5.43245 11.3482 5.68999 10.57C6.05975 11.3969 6.53358 12.1732 7.09999 12.88C7.63999 13.47 8.23999 13.67 8.72999 13.38C8.98165 13.195 9.15046 12.9184 9.19999 12.61C9.31234 11.879 9.34587 11.1381 9.29999 10.4C9.29999 8.88 8.72999 6 9.14999 4.15C9.33999 3.3 9.73999 2.68 10.59 2.67C10.6689 2.65631 10.7405 2.6152 10.792 2.55391C10.8436 2.49263 10.8719 2.4151 10.8719 2.335C10.8719 2.2549 10.8436 2.17737 10.792 2.11608C10.7405 2.0548 10.6689 2.01368 10.59 2C9.37999 2 8.72999 2.78 8.42999 4C7.95999 5.89 8.42999 8.87 8.42999 10.43V11.72C8.42999 12.08 8.42999 12.72 8.25999 12.59C8.08999 12.46 8.25999 12.59 8.30999 12.59C8.35999 12.59 8.21999 12.53 8.14999 12.48C7.90704 12.2473 7.69829 11.9813 7.52999 11.69C7.17006 11.1485 6.84603 10.5839 6.55999 10C6.47999 9.84 6.36999 9.48 6.24999 9.26C6.16729 9.12906 6.05833 9.01669 5.92999 8.93C5.80062 8.85873 5.64951 8.83769 5.50559 8.87091C5.36167 8.90412 5.23506 8.98925 5.14999 9.11C4.97936 9.37516 4.83533 9.65653 4.71999 9.95C4.64999 10.12 4.45999 10.95 4.24999 11.55C4.16999 11.17 4.04999 10.8 4.03999 10.67C3.85819 9.15389 3.79134 7.6262 3.83999 6.1C3.86856 5.08941 3.99923 4.0843 4.22999 3.1C4.3238 2.55877 4.53921 2.04589 4.85999 1.6C5.19278 1.21616 5.66348 0.979016 6.16999 0.939998C7.24 0.793813 8.32618 0.814052 9.38999 0.999998C10.0769 1.09597 10.7313 1.35296 11.3 1.75C11.3295 1.77429 11.3636 1.79253 11.4002 1.80367C11.4368 1.81481 11.4752 1.81863 11.5133 1.81491C11.5514 1.8112 11.5883 1.80002 11.6221 1.78202C11.6558 1.76402 11.6857 1.73955 11.71 1.71C11.7343 1.68045 11.7525 1.64641 11.7637 1.60981C11.7748 1.57322 11.7786 1.53479 11.7749 1.49671C11.7712 1.45864 11.76 1.42167 11.742 1.38792C11.724 1.35417 11.6995 1.32429 11.67 1.3C11.0422 0.799593 10.3 0.462857 9.50999 0.319998C8.3843 0.0959852 7.23098 0.0454008 6.08999 0.169998C5.37868 0.208453 4.71084 0.524421 4.22999 1.05C3.80246 1.56835 3.49815 2.17697 3.33999 2.83C3.06076 3.86654 2.88654 4.92856 2.81999 6C2.73155 7.58043 2.76834 9.16537 2.92999 10.74C2.91938 11.3342 2.94275 11.9285 2.99999 12.52Z" fill="black"/>
<path d="M21.49 6.71C21.4901 6.62153 21.4556 6.53653 21.394 6.47305C21.3324 6.40957 21.2485 6.3726 21.16 6.37C20.719 6.36777 20.2792 6.41812 19.85 6.52C18.92 6.72 17.95 7.1 17.1 7.3C16.7393 7.41518 16.372 7.50868 16 7.58C15.827 7.63084 15.6431 7.63084 15.47 7.58C15.2779 7.50484 15.1138 7.37211 15 7.2C14.8494 7.01986 14.7217 6.82167 14.62 6.61C14.55 6.5 14.48 6.14 14.37 5.94C14.3077 5.78437 14.1951 5.6541 14.05 5.57C13.35 5.23 13.25 6.02 12.49 6.75C12.3637 6.88472 12.2148 6.99639 12.05 7.08C12.0078 7.09968 11.9617 7.10987 11.915 7.10987C11.8684 7.10987 11.8223 7.09968 11.78 7.08C11.04 6.76 11.4 6.24 10.98 6.21C10.75 6.21 10.66 6.3 10.61 6.47C10.6519 6.74879 10.7543 7.01503 10.91 7.25C11.0957 7.4845 11.3361 7.66991 11.61 7.79C11.8476 7.88462 12.1125 7.88462 12.35 7.79C12.6071 7.69656 12.847 7.56142 13.06 7.39C13.2519 7.23661 13.4324 7.0695 13.6 6.89C13.5883 6.95951 13.5883 7.03049 13.6 7.1C13.7604 7.46214 13.9726 7.79901 14.23 8.1C14.4314 8.31884 14.6768 8.49264 14.95 8.61C15.3077 8.74305 15.6945 8.77759 16.07 8.71C16.4994 8.60823 16.9206 8.47453 17.33 8.31C18.16 8.04 19.09 7.57 20 7.31C20.3717 7.15686 20.7616 7.05266 21.16 7C21.2411 7.0006 21.3195 6.97137 21.3803 6.91789C21.4412 6.86441 21.4802 6.79042 21.49 6.71Z" fill="black"/>
<path d="M10.06 12.9C9.90005 13.08 9.98004 13.22 10.12 13.33C10.559 13.4394 11.008 13.503 11.46 13.52L13.56 13.62C14.06 13.62 14.56 13.62 15.07 13.54C15.58 13.46 16.2 13.39 16.77 13.3C20.17 12.77 19.55 13.04 20.18 13.24C20.2624 13.2585 20.3477 13.2585 20.43 13.24C20.4738 13.2414 20.5173 13.2338 20.558 13.2177C20.5986 13.2016 20.6356 13.1774 20.6665 13.1464C20.6974 13.1155 20.7217 13.0786 20.7378 13.0379C20.7538 12.9972 20.7614 12.9537 20.76 12.91C20.76 12.8225 20.7253 12.7385 20.6634 12.6766C20.6015 12.6148 20.5176 12.58 20.43 12.58C19.93 12.29 19.59 11.9 16.43 12.22C15.85 12.27 15.27 12.35 14.69 12.42C14.31 12.42 13.94 12.52 13.55 12.55L11.55 12.73C10.2 12.8 10.18 12.72 10.06 12.9Z" fill="black"/>
<path d="M12.27 17.43L9.05 17.78L5.43 18.09C4.74676 17.9453 4.03801 17.9763 3.37 18.18C3.33796 18.2069 3.31234 18.2406 3.29504 18.2786C3.27774 18.3167 3.26918 18.3582 3.27 18.4C3.26552 18.4486 3.27432 18.4975 3.29545 18.5416C3.31658 18.5856 3.34926 18.6231 3.39 18.65C3.48567 18.7116 3.59626 18.7462 3.71 18.75C4.13 18.75 5.2 18.81 5.43 18.82H9.05C9.38308 18.8383 9.71692 18.8383 10.05 18.82C10.79 18.75 11.53 18.61 12.27 18.58C20.94 18.04 20.58 17.74 20.64 17.66C20.6711 17.6293 20.6959 17.5927 20.7127 17.5523C20.7296 17.512 20.7383 17.4687 20.7383 17.425C20.7383 17.3812 20.7296 17.338 20.7127 17.2976C20.6959 17.2573 20.6711 17.2207 20.64 17.19C20.43 17 21.23 17.24 12.27 17.43Z" fill="black"/>
</g>
<defs>
<clipPath id="clip0_1030_1852">
<rect width="24" height="24" fill="white"/>
</clipPath>
</defs>
</svg>
