<svg width="24" height="24" viewBox="0 0 24 24" fill="none" xmlns="http://www.w3.org/2000/svg">
<g clip-path="url(#clip0_1051_8566)">
<path fill-rule="evenodd" clip-rule="evenodd" d="M9.05 10.27C9.48019 10.4402 9.93746 10.5316 10.4 10.54C10.7863 10.5652 11.1737 10.5652 11.56 10.54C12.36 10.48 12.95 10.3 14.04 10.25C14.26 10.25 14.9 10.32 15.31 10.25C15.5264 10.233 15.7355 10.1644 15.92 10.05C16.2717 9.78934 16.5281 9.42048 16.65 9.00002C16.8308 8.24082 16.8882 7.45746 16.82 6.68002C16.82 6.11002 16.9 5.04002 16.82 4.17002C16.7987 3.73283 16.6899 3.30437 16.5 2.91002C16.2451 2.47444 15.947 2.0657 15.61 1.69002C15.1359 1.14863 14.6283 0.637622 14.09 0.160016C13.9693 0.0521417 13.8118 -0.00515193 13.65 1.64053e-05C13.32 1.64053e-05 12.53 0.150016 12.4 0.160016L9.49 0.550016C9.4177 0.559128 9.3494 0.588317 9.29284 0.634271C9.23628 0.680226 9.19372 0.741109 9.17 0.810016C9.14533 0.742398 9.1004 0.684033 9.04134 0.642875C8.98229 0.601717 8.91198 0.579767 8.84 0.580016C8.79535 0.58131 8.75139 0.591392 8.71063 0.609686C8.66987 0.627979 8.63312 0.654125 8.60247 0.686629C8.57183 0.719134 8.54788 0.757359 8.53202 0.799121C8.51615 0.840883 8.50867 0.885362 8.51 0.930016L8.41 6.87002C8.41 7.31002 8.27 8.04002 8.26 8.66002C8.2433 8.9813 8.28393 9.30298 8.38 9.61002C8.44047 9.76008 8.53115 9.89611 8.64641 10.0097C8.76167 10.1232 8.89905 10.2118 9.05 10.27ZM14.81 2.37002C15.0861 2.70099 15.3274 3.05955 15.53 3.44002C15.6046 3.6215 15.6486 3.81412 15.66 4.01002L15.6 4.00002C15.0349 3.8906 14.4639 3.81381 13.89 3.77002C13.6796 3.73991 13.4764 3.67216 13.29 3.57002C13.29 3.40002 13.37 3.13002 13.37 2.94002V1.99002L13.31 1.13002C13.45 1.13002 13.57 1.13002 13.62 1.03002C14.0408 1.45469 14.438 1.90202 14.81 2.37002ZM9.58 1.37002L12.45 1.11002L12.3 1.96002C12.3 2.04002 12.19 2.38002 12.12 2.77002C12.0821 3.0652 12.062 3.36241 12.06 3.66002C12.048 3.83524 12.076 4.0109 12.1419 4.17373C12.2077 4.33657 12.3096 4.48232 12.44 4.60002C12.7628 4.77966 13.1214 4.88553 13.49 4.91002C14.15 4.91002 14.84 4.75002 15.49 4.79002C15.5519 4.80925 15.6181 4.80925 15.68 4.79002C15.68 5.55002 15.57 6.35002 15.57 6.79002C15.6084 7.25923 15.6084 7.7308 15.57 8.20002C15.37 9.77002 14.66 8.99002 14.02 9.02002C12.91 9.09002 12.31 9.27002 11.49 9.35002C11.157 9.37188 10.823 9.37188 10.49 9.35002C10.232 9.35528 9.97409 9.33519 9.72 9.29002C9.63 9.29002 9.53 9.15002 9.48 9.20002C9.41502 8.95901 9.38803 8.70934 9.4 8.46002C9.4 7.89002 9.47 7.28002 9.45 6.90002L9.2 1.12002C9.23579 1.18778 9.29123 1.24315 9.35905 1.27884C9.42686 1.31453 9.50388 1.32889 9.58 1.32002V1.37002Z" fill="black"/>
<path fill-rule="evenodd" clip-rule="evenodd" d="M21.8 19.15C21.6638 19.0054 21.5051 18.8839 21.33 18.79C21.1908 18.7315 21.047 18.6846 20.9 18.65C21.2505 18.3274 21.5003 17.9103 21.6191 17.449C21.738 16.9877 21.721 16.5019 21.57 16.05C21.3958 15.4905 21.0577 14.9961 20.5996 14.6306C20.1415 14.2652 19.5843 14.0455 19 14C18.4679 13.9612 17.9404 14.1216 17.52 14.45C16.9762 14.9063 16.6201 15.5473 16.52 16.25C16.4276 16.6463 16.448 17.0604 16.5788 17.4457C16.7096 17.8309 16.9455 18.1719 17.26 18.43C17.0006 18.4913 16.7489 18.5818 16.51 18.7C16.3467 18.7941 16.1984 18.9121 16.07 19.05C15.9423 19.1934 15.8315 19.3512 15.74 19.52C15.5363 19.905 15.4106 20.3264 15.37 20.76C15.1906 20.5394 14.9821 20.3443 14.75 20.18C14.5082 20.0316 14.2539 19.9044 13.99 19.8C14.3173 19.4295 14.5398 18.9785 14.6348 18.4933C14.7297 18.0082 14.6935 17.5065 14.53 17.04C14.2716 16.289 13.733 15.6669 13.0268 15.3036C12.3206 14.9402 11.5013 14.8637 10.74 15.09C10.2556 15.2412 9.81753 15.5128 9.46667 15.8793C9.1158 16.2459 8.86363 16.6954 8.73376 17.1859C8.60389 17.6764 8.60056 18.1919 8.72407 18.684C8.84759 19.1762 9.09391 19.629 9.44001 20C9.30001 20.06 9.15001 20.11 9.02001 20.18C8.77799 20.3317 8.55332 20.5094 8.35001 20.71C8.35001 20.77 8.27001 20.84 8.22001 20.89C8.17092 20.4446 8.03502 20.0132 7.82001 19.62C7.72008 19.4463 7.59545 19.288 7.45001 19.15C7.31679 19.0133 7.16536 18.8955 7.00001 18.8C6.85299 18.7443 6.70271 18.6975 6.55001 18.66C6.90243 18.3366 7.15334 17.9178 7.27227 17.4544C7.39121 16.9911 7.37306 16.5032 7.22001 16.05C7.04019 15.5057 6.70464 15.0261 6.25494 14.6706C5.80524 14.3151 5.26113 14.0993 4.69001 14.05C4.16097 14.0108 3.63645 14.1714 3.22001 14.5C2.67324 14.9538 2.31644 15.5961 2.22001 16.3C2.12525 16.6962 2.14444 17.1111 2.27538 17.4968C2.40631 17.8826 2.64366 18.2234 2.96001 18.48C2.69698 18.5446 2.44204 18.6385 2.20001 18.76C2.03859 18.8608 1.89072 18.9817 1.76001 19.12C1.63225 19.2634 1.52152 19.4212 1.43001 19.59C1.21015 19.9655 1.06419 20.3796 1.00001 20.81C0.984539 20.8579 0.978745 20.9085 0.982966 20.9586C0.987187 21.0088 1.00134 21.0577 1.0246 21.1023C1.04786 21.147 1.07977 21.1866 1.11847 21.2188C1.15716 21.251 1.20188 21.2752 1.25001 21.29C1.34685 21.322 1.45237 21.3148 1.54397 21.27C1.63556 21.2251 1.70594 21.1462 1.74001 21.05C1.83251 20.8787 1.94315 20.7178 2.07001 20.57C2.19587 20.4326 2.32941 20.3024 2.47001 20.18L2.84001 19.79C3.08355 19.4734 3.351 19.1758 3.64001 18.9C3.70408 18.8649 3.75366 18.8082 3.78001 18.74H3.95001C4.04119 18.7428 4.12984 18.7098 4.19708 18.6482C4.26432 18.5866 4.30484 18.5011 4.31001 18.41C4.30525 18.3294 4.27107 18.2532 4.21393 18.1961C4.15679 18.139 4.08068 18.1048 4.00001 18.1C3.14001 17.99 3.00001 17.2 3.19001 16.5C3.38001 15.8 3.86001 15.23 4.57001 15.32C4.90149 15.3419 5.21954 15.4593 5.48573 15.6581C5.75191 15.8568 5.95485 16.1284 6.07001 16.44C6.213 16.7486 6.24532 17.0971 6.16154 17.4267C6.07776 17.7564 5.883 18.0471 5.61001 18.25C5.48362 18.3483 5.33661 18.4167 5.18001 18.45C4.9855 18.4907 4.78833 18.5175 4.59001 18.53C4.48833 18.5352 4.39271 18.58 4.32357 18.6547C4.25444 18.7294 4.21727 18.8282 4.22001 18.93C4.22128 18.9808 4.23271 19.0308 4.25364 19.0771C4.27457 19.1234 4.30457 19.165 4.34186 19.1995C4.37915 19.234 4.42298 19.2607 4.47076 19.2779C4.51853 19.2952 4.56928 19.3027 4.62001 19.3C4.90805 19.3145 5.19678 19.2944 5.48001 19.24H5.62001C5.88001 19.47 6.09001 19.72 6.31001 19.94L6.71001 20.34C6.85704 20.4623 6.99725 20.5924 7.13001 20.73C7.26116 20.8803 7.37519 21.0446 7.47001 21.22C7.49502 21.293 7.5422 21.3563 7.60495 21.4011C7.66771 21.4459 7.7429 21.47 7.82001 21.47C7.50316 22.0226 7.29285 22.6298 7.20001 23.26C7.17659 23.3108 7.16436 23.366 7.16415 23.4219C7.16394 23.4779 7.17576 23.5332 7.19881 23.5841C7.22185 23.6351 7.25559 23.6805 7.29772 23.7172C7.33986 23.754 7.3894 23.7813 7.44301 23.7972C7.49661 23.8132 7.55301 23.8174 7.60839 23.8096C7.66377 23.8018 7.71682 23.7822 7.76396 23.7521C7.8111 23.7221 7.85122 23.6822 7.88159 23.6352C7.91197 23.5883 7.93189 23.5354 7.94001 23.48C8.25396 22.8028 8.70317 22.1971 9.26001 21.7L9.73001 21.26C9.97184 21.0386 10.2292 20.8348 10.5 20.65C10.5333 20.6518 10.5667 20.6518 10.6 20.65C11.1127 20.7403 11.6373 20.7403 12.15 20.65C12.1794 20.6586 12.2106 20.6586 12.24 20.65C12.29 20.7214 12.3625 20.774 12.4459 20.7993C12.5292 20.8247 12.6187 20.8214 12.7 20.79C12.8465 20.722 12.987 20.6417 13.12 20.55C13.4174 20.773 13.7012 21.0134 13.97 21.27C14.13 21.43 14.27 21.59 14.4 21.74C14.8991 22.3264 15.2764 23.0063 15.51 23.74C15.5249 23.7894 15.5494 23.8354 15.5821 23.8753C15.6148 23.9152 15.6551 23.9482 15.7007 23.9723C15.7463 23.9965 15.7962 24.0114 15.8476 24.0162C15.899 24.0209 15.9508 24.0154 16 24C16.0974 23.974 16.1814 23.9122 16.2352 23.8269C16.289 23.7416 16.3085 23.6391 16.29 23.54C16.2443 22.8881 16.1098 22.2455 15.89 21.63C15.8298 21.5046 15.7595 21.3842 15.68 21.27C15.77 21.2902 15.8642 21.277 15.9452 21.2328C16.0261 21.1887 16.0883 21.1166 16.12 21.03C16.2184 20.86 16.3322 20.6993 16.46 20.55C16.57 20.41 16.72 20.31 16.85 20.17C16.98 20.03 17.1 19.93 17.22 19.79C17.4638 19.4767 17.7313 19.1825 18.02 18.91C18.089 18.8784 18.1429 18.8209 18.17 18.75H18.34C18.4302 18.75 18.5167 18.7142 18.5804 18.6504C18.6442 18.5867 18.68 18.5002 18.68 18.41C18.68 18.3199 18.6442 18.2334 18.5804 18.1696C18.5167 18.1058 18.4302 18.07 18.34 18.07C17.49 17.96 17.34 17.17 17.53 16.47C17.72 15.77 18.21 15.2 18.92 15.29C19.2501 15.3126 19.5666 15.4304 19.831 15.6292C20.0955 15.828 20.2966 16.0992 20.41 16.41C20.5662 16.7166 20.6107 17.0679 20.5359 17.4037C20.461 17.7395 20.2716 18.0388 20 18.25C19.8689 18.3466 19.719 18.4147 19.56 18.45C19.3689 18.4908 19.175 18.5176 18.98 18.53C18.8783 18.5352 18.7827 18.58 18.7136 18.6547C18.6444 18.7294 18.6073 18.8282 18.61 18.93C18.6099 18.9803 18.6201 19.0301 18.64 19.0764C18.6598 19.1226 18.6889 19.1644 18.7254 19.199C18.7619 19.2336 18.805 19.2604 18.8523 19.2778C18.8995 19.2952 18.9498 19.3027 19 19.3C19.2914 19.3146 19.5834 19.2944 19.87 19.24H20.01C20.27 19.47 20.48 19.71 20.7 19.93C20.92 20.15 20.97 20.19 21.1 20.32C21.23 20.45 21.39 20.56 21.52 20.71C21.6469 20.86 21.7606 21.0206 21.86 21.19C21.8737 21.2391 21.8972 21.2848 21.929 21.3246C21.9607 21.3644 22.0002 21.3974 22.0449 21.4217C22.0897 21.4459 22.1389 21.4609 22.1896 21.4658C22.2403 21.4707 22.2914 21.4653 22.34 21.45C22.4375 21.4199 22.5194 21.3528 22.568 21.2631C22.6166 21.1734 22.6281 21.0681 22.6 20.97C22.5519 20.5122 22.4089 20.0694 22.18 19.67C22.0813 19.4779 21.953 19.3025 21.8 19.15ZM10.21 19.49C10.0095 19.2351 9.87759 18.9331 9.82682 18.6128C9.77606 18.2924 9.80814 17.9644 9.92001 17.66C9.98919 17.3667 10.1334 17.0963 10.3385 16.8754C10.5436 16.6545 10.8026 16.4907 11.09 16.4C11.555 16.2336 12.0662 16.2517 12.5182 16.4508C12.9703 16.6498 13.3288 17.0146 13.52 17.47C14.65 20.17 10.87 20.22 10.21 19.49Z" fill="black"/>
<path fill-rule="evenodd" clip-rule="evenodd" d="M2.51003 13.13C2.66003 13.13 2.71003 13.27 3.39003 11.79C3.48003 11.6 3.55003 11.39 3.62003 11.2C4.08003 10 4.23003 9.94004 4.00003 9.71004C3.55003 9.31004 2.59003 10.56 2.58003 10.59C2.4713 10.728 2.38057 10.8792 2.31003 11.04C2.24175 11.2041 2.19146 11.3751 2.16003 11.55C2.10003 11.85 2.05003 13.09 2.51003 13.13Z" fill="black"/>
<path fill-rule="evenodd" clip-rule="evenodd" d="M22.81 11C22.7433 10.8393 22.6559 10.6881 22.55 10.55C22.55 10.55 21.55 9.27002 21.13 9.67002C20.88 9.90002 21.02 9.98002 21.48 11.16C21.56 11.35 21.63 11.56 21.71 11.75C22.4 13.23 22.44 13.1 22.6 13.09C23.06 13.09 23 11.81 22.96 11.51C22.9329 11.3341 22.8825 11.1626 22.81 11Z" fill="black"/>
<path fill-rule="evenodd" clip-rule="evenodd" d="M6 8.72001C6.09542 8.6764 6.18592 8.62277 6.27 8.56001C6.35832 8.50796 6.43907 8.44403 6.51 8.37001C7.27 7.70001 7.41 7.65001 7.3 7.37001C7.3 7.26001 7.14 6.89001 5.9 7.32001C5.77693 7.36241 5.65941 7.41949 5.55 7.49001C5.44465 7.5589 5.34737 7.6394 5.26 7.73001C5.1 7.91001 4.51 8.73001 4.75 8.97001C4.84 9.05001 4.9 9.22001 6 8.72001Z" fill="black"/>
<path fill-rule="evenodd" clip-rule="evenodd" d="M18.58 8.37C18.6551 8.43937 18.7353 8.50289 18.82 8.56C18.9076 8.62287 19.0014 8.67649 19.1 8.72C20.21 9.22 20.27 9.05 20.35 8.96C20.59 8.7 19.99 7.9 19.84 7.72C19.7491 7.6293 19.6485 7.54882 19.54 7.48C19.4317 7.40755 19.3139 7.35034 19.19 7.31C17.96 6.88 17.83 7.25 17.79 7.36C17.69 7.65 17.83 7.7 18.58 8.37Z" fill="black"/>
</g>
<defs>
<clipPath id="clip0_1051_8566">
<rect width="24" height="24" fill="white"/>
</clipPath>
</defs>
</svg>
