<svg width="24" height="24" viewBox="0 0 24 24" fill="none" xmlns="http://www.w3.org/2000/svg">
<g clip-path="url(#clip0_1048_7163)">
<path fill-rule="evenodd" clip-rule="evenodd" d="M20.55 17.7C17.86 18.59 15.23 19.7 12.55 20.63C11.41 21.04 10.28 21.43 9.11999 21.78C8.96999 21.78 8.75999 21.9 8.57999 21.96C8.16999 20.53 7.78999 19.09 7.36999 17.66C7.04999 16.56 6.71999 15.46 6.36999 14.38C5.71999 12.58 4.99999 10.85 4.16999 9.13001C4.40999 9.02001 4.63999 8.90001 4.87999 8.80001C5.42999 8.58001 5.99999 8.38001 6.56999 8.18001C7.40999 7.88001 8.26999 7.59001 9.12999 7.30001C11.39 6.54001 13.64 5.82001 15.63 5.03001C15.7235 4.99606 15.8001 4.92676 15.8431 4.837C15.8861 4.74724 15.8921 4.6442 15.86 4.55001C15.826 4.45645 15.7567 4.37994 15.667 4.33693C15.5772 4.29392 15.4742 4.28785 15.38 4.32001C13.63 4.86001 11.67 5.32001 9.70999 5.83001C8.43156 6.17398 7.17299 6.58793 5.93999 7.07001C3.87999 7.90001 -0.380014 10.35 0.239986 11.07C0.296404 11.1337 0.375218 11.1731 0.459986 11.18L1.93999 16.49C2.23999 17.55 2.51999 18.6 2.82999 19.66C3.03999 20.36 3.24999 21.07 3.48999 21.77C3.62358 22.2329 3.79412 22.6844 3.99999 23.12C4.14795 23.422 4.39014 23.6677 4.68999 23.82C5.23147 24.0151 5.81637 24.0567 6.37999 23.94C7.448 23.6895 8.49459 23.3552 9.50999 22.94C10.67 22.55 11.82 22.12 12.96 21.66C15.58 20.59 18.16 19.4 20.81 18.39C20.8615 18.3769 20.9096 18.3531 20.9514 18.3202C20.9931 18.2873 21.0275 18.246 21.0522 18.199C21.077 18.1519 21.0916 18.1003 21.0952 18.0472C21.0988 17.9942 21.0912 17.941 21.0729 17.8911C21.0546 17.8412 21.0261 17.7957 20.9891 17.7575C20.9522 17.7193 20.9076 17.6893 20.8583 17.6694C20.809 17.6495 20.7561 17.6402 20.703 17.642C20.6499 17.6438 20.5978 17.6568 20.55 17.68V17.7ZM4.73999 13.35C4.37999 13.4 4.02999 13.42 3.66999 13.48C3.49417 13.4988 3.32024 13.5323 3.14999 13.58C2.98251 13.6197 2.81861 13.6732 2.65999 13.74C2.46999 13.82 2.29999 13.92 2.11999 14.01C1.97999 13.59 1.82999 13.17 1.67999 12.74C1.46999 12.12 1.26999 11.48 1.07999 10.85C1.85788 10.2905 2.68848 9.80826 3.55999 9.41001C3.99999 10.71 4.35999 12 4.73999 13.35ZM2.43999 14.93C2.61318 14.94 2.7868 14.94 2.95999 14.93C3.13935 14.9078 3.3166 14.871 3.48999 14.82C3.66025 14.7705 3.82725 14.7104 3.98999 14.64C4.32999 14.49 4.64999 14.32 4.98999 14.15C4.99566 14.1764 4.99566 14.2036 4.98999 14.23C5.31999 15.32 5.66999 16.41 5.98999 17.49C5.98999 17.57 6.04999 17.64 6.06999 17.72C5.87999 17.72 5.67999 17.72 5.48999 17.78C5.29809 17.8104 5.10785 17.8505 4.91999 17.9C4.73724 17.9475 4.557 18.0043 4.37999 18.07C4.10999 18.18 3.85999 18.31 3.60999 18.44L2.82999 16.2C2.73999 15.77 2.58999 15.35 2.43999 14.93ZM5.21999 22.66C5.28999 22.55 5.03999 22.4 4.96999 22.23C4.82999 21.89 4.72999 21.52 4.65999 21.34L3.99999 19.27C4.26295 19.2898 4.52702 19.2898 4.78999 19.27C4.98274 19.2444 5.17328 19.2043 5.35999 19.15C5.53999 19.1 5.72999 19.03 5.90999 18.96L6.51999 18.67C6.94999 19.87 7.39999 21.07 7.86999 22.26C7.46999 22.39 7.04999 22.53 6.62999 22.63C6.17289 22.7768 5.68291 22.7873 5.21999 22.66Z" fill="black"/>
<path fill-rule="evenodd" clip-rule="evenodd" d="M15.63 10.32V12.16C15.63 12.26 15.63 12.5 15.68 12.65C15.7047 12.7808 15.7595 12.904 15.84 13.01C15.9489 13.1303 16.0962 13.2091 16.2567 13.2328C16.4172 13.2565 16.581 13.2237 16.72 13.14L17.11 12.85L18.36 11.52V11.46C18.4349 11.4252 18.4952 11.365 18.53 11.29C19.36 9.37002 20.53 7.52002 21.43 5.59002C21.8305 4.73694 22.1648 3.85434 22.43 2.95002C22.5612 2.35382 22.5612 1.73621 22.43 1.14002C22.3842 0.802455 22.2338 0.487714 22 0.240017C21.7584 0.0642899 21.4615 -0.0183074 21.1638 0.00741431C20.8662 0.033136 20.5878 0.165447 20.38 0.380017C19.9944 0.691761 19.6574 1.05911 19.38 1.47002C19.0193 2.04407 18.705 2.64598 18.44 3.27002L17.31 5.85002L15.84 10C15.7752 10.0236 15.7197 10.0675 15.6819 10.1252C15.644 10.1828 15.6258 10.2512 15.63 10.32ZM18.24 6.21002L19.44 3.79002C19.707 3.23483 20.0145 2.70005 20.36 2.19002C20.5673 1.88926 20.8204 1.62272 21.11 1.40002C21.1704 1.49301 21.2175 1.59398 21.25 1.70002C21.3104 2.03061 21.3104 2.36942 21.25 2.70002C21.0399 3.56049 20.7623 4.40309 20.42 5.22002C19.63 7.16002 18.6 9.06002 17.88 10.99L16.73 11.69L16.37 10.58L18.24 6.21002Z" fill="black"/>
<path fill-rule="evenodd" clip-rule="evenodd" d="M15.63 14.28C15.1205 14.9633 14.4267 15.4872 13.63 15.79C13.4844 15.8684 13.3248 15.9172 13.1602 15.9335C12.9957 15.9498 12.8295 15.9333 12.6714 15.8849C12.5133 15.8365 12.3664 15.7573 12.2391 15.6517C12.1118 15.5462 12.0068 15.4164 11.93 15.27C11.7197 14.842 11.5973 14.3761 11.57 13.9C11.5334 13.3121 11.4565 12.7274 11.34 12.15C11.2647 11.8277 11.1435 11.5178 10.98 11.23C10.8302 10.9224 10.5949 10.6644 10.3022 10.4871C10.0096 10.3097 9.67204 10.2205 9.32999 10.23C8.88405 10.2822 8.45945 10.4499 8.09816 10.7165C7.73688 10.9831 7.45141 11.3393 7.26999 11.75C7.2492 11.7886 7.23632 11.8311 7.23211 11.8747C7.2279 11.9184 7.23245 11.9625 7.24549 12.0044C7.25852 12.0463 7.27979 12.0852 7.30803 12.1188C7.33628 12.1524 7.37094 12.18 7.40999 12.2C7.45308 12.2192 7.49969 12.2293 7.54687 12.2295C7.59405 12.2297 7.64076 12.2201 7.68402 12.2013C7.72729 12.1825 7.76617 12.1549 7.79818 12.1202C7.8302 12.0856 7.85465 12.0446 7.86999 12C7.99846 11.7764 8.17111 11.5813 8.37742 11.4266C8.58372 11.2718 8.81936 11.1607 9.06999 11.1C9.26948 11.0626 9.47576 11.1014 9.64799 11.2088C9.82021 11.3162 9.94584 11.4844 9.99999 11.68C10.1757 12.1431 10.2638 12.6347 10.26 13.13C10.2681 13.7587 10.3385 14.3851 10.47 15C10.5512 15.3314 10.6827 15.6484 10.86 15.94C11.1067 16.3731 11.4943 16.7085 11.9583 16.8905C12.4223 17.0725 12.9347 17.0899 13.41 16.94C14.6074 16.5614 15.6248 15.7574 16.27 14.68C16.3036 14.6381 16.328 14.5897 16.3415 14.5377C16.355 14.4858 16.3573 14.4315 16.3484 14.3786C16.3394 14.3257 16.3193 14.2753 16.2894 14.2307C16.2596 14.1861 16.2206 14.1483 16.1751 14.1198C16.1296 14.0914 16.0785 14.0729 16.0254 14.0656C15.9722 14.0583 15.9181 14.0624 15.8666 14.0775C15.8151 14.0926 15.7674 14.1185 15.7266 14.1534C15.6858 14.1883 15.6529 14.2315 15.63 14.28Z" fill="black"/>
<path fill-rule="evenodd" clip-rule="evenodd" d="M23.7 14.54C23.59 14.03 23.4 13.47 23.22 12.87C23.04 12.27 22.79 11.59 22.54 10.96C22.17 9.96002 21.76 9.07002 21.31 8.14002C21.2715 8.06448 21.2046 8.0073 21.1239 7.98105C21.0433 7.9548 20.9556 7.96162 20.88 8.00002C20.799 8.03343 20.7341 8.09678 20.6987 8.17689C20.6633 8.25699 20.6602 8.34767 20.69 8.43002L22 13.25C22.18 13.82 22.37 14.35 22.51 14.84C22.686 15.2774 22.7413 15.754 22.67 16.22C22.5662 16.5211 22.3992 16.7965 22.1802 17.0276C21.9611 17.2588 21.6951 17.4403 21.4 17.56C21.3476 17.5757 21.2992 17.6025 21.2581 17.6385C21.217 17.6746 21.1842 17.7191 21.1619 17.7691C21.1395 17.819 21.1283 17.8731 21.1288 17.9278C21.1293 17.9825 21.1417 18.0364 21.165 18.0859C21.1882 18.1354 21.2219 18.1793 21.2637 18.2145C21.3055 18.2498 21.3544 18.2756 21.4071 18.2903C21.4598 18.3049 21.515 18.308 21.569 18.2993C21.623 18.2906 21.6745 18.2704 21.72 18.24C22.1467 18.1151 22.5404 17.8969 22.8724 17.6011C23.2045 17.3054 23.4667 16.9395 23.64 16.53C23.8569 15.8873 23.8778 15.1946 23.7 14.54Z" fill="black"/>
</g>
<defs>
<clipPath id="clip0_1048_7163">
<rect width="24" height="24" fill="white"/>
</clipPath>
</defs>
</svg>
