<svg width="24" height="24" viewBox="0 0 24 24" fill="none" xmlns="http://www.w3.org/2000/svg">
<g clip-path="url(#clip0_1051_8744)">
<path fill-rule="evenodd" clip-rule="evenodd" d="M15.93 10.33C15.8911 9.67833 15.7108 9.04294 15.4017 8.46791C15.0926 7.89288 14.6621 7.392 14.14 7.00001C14.1085 6.96954 14.0707 6.94635 14.0292 6.93207C13.9878 6.91779 13.9437 6.91277 13.9001 6.91736C13.8565 6.92195 13.8145 6.93603 13.7769 6.95863C13.7393 6.98122 13.7072 7.01177 13.6827 7.04813C13.6582 7.08449 13.642 7.12578 13.6352 7.16908C13.6284 7.21238 13.6311 7.25666 13.6433 7.29878C13.6554 7.3409 13.6766 7.37985 13.7054 7.41289C13.7342 7.44593 13.7699 7.47225 13.81 7.49001C14.2443 7.84397 14.5957 8.2889 14.8393 8.79343C15.0829 9.29795 15.2129 9.84978 15.22 10.41C15.2819 10.9527 15.2244 11.5024 15.0517 12.0206C14.879 12.5388 14.5951 13.013 14.22 13.41C13.3534 13.9934 12.3347 14.3098 11.29 14.32C10.217 14.3237 9.16908 13.9954 8.29002 13.38C7.69939 12.9904 7.25507 12.4154 7.02697 11.7456C6.79888 11.0758 6.79995 10.3491 7.03002 9.68001C7.20348 9.06496 7.50318 8.4928 7.91002 8.00001C8.697 7.3062 9.55901 6.70245 10.48 6.20001C10.9828 6.04034 11.5161 6.00059 12.037 6.08394C12.5579 6.16729 13.0521 6.37142 13.48 6.68001C13.5359 6.71929 13.605 6.73501 13.6723 6.72379C13.7397 6.71256 13.7999 6.67528 13.84 6.62001C13.8613 6.59346 13.8769 6.56285 13.886 6.53004C13.895 6.49724 13.8973 6.46293 13.8926 6.42923C13.8879 6.39553 13.8764 6.36314 13.8588 6.33404C13.8411 6.30494 13.8177 6.27975 13.79 6.26001C11.65 4.59001 8.88002 5.59001 7.28002 7.50001C5.68002 9.41001 5.28002 12.29 7.72002 14.18C8.76526 14.9042 10.0084 15.2883 11.28 15.28C12.5749 15.3255 13.8369 14.8666 14.8 14C15.2463 13.5087 15.5788 12.9253 15.7741 12.291C15.9694 11.6567 16.0227 10.9872 15.93 10.33Z" fill="black"/>
<path fill-rule="evenodd" clip-rule="evenodd" d="M10.3501 8.55003C10.4207 8.82086 10.5144 9.08516 10.6301 9.34003L10.2601 9.26003C9.90826 9.18 9.55032 9.12983 9.19007 9.11003H7.86007C7.29007 9.11003 7.34007 9.74003 7.81007 9.78003C8.28007 9.82003 8.26007 9.78003 8.81007 9.89003C9.21986 9.94042 9.6225 10.0377 10.0101 10.18C10.2639 10.1962 10.5105 10.2715 10.7301 10.4C10.8297 10.5351 10.9104 10.6832 10.9701 10.84C11.1101 11.18 11.2201 11.56 11.3301 11.84C11.4401 12.12 11.6301 12.58 11.8001 12.94L12.1401 13.62C12.3201 13.9 13.1401 13.81 12.8001 13.4C12.4601 12.99 12.6701 13.08 12.5201 12.64C12.3701 12.2 12.2901 11.93 12.1901 11.56C12.0901 11.19 12.0201 10.84 11.8901 10.47C11.7877 10.1802 11.6316 9.91217 11.4301 9.68003C11.4301 9.29003 11.4301 8.90003 11.3601 8.50003C11.2687 7.94344 11.0934 7.40396 10.8401 6.90003C10.5401 6.54003 10.1301 6.74003 10.1401 7.06003C10.1501 7.38003 10.2801 8.28003 10.3501 8.55003Z" fill="black"/>
<path fill-rule="evenodd" clip-rule="evenodd" d="M6.05005 16.64C5.84555 16.5986 5.63835 16.5719 5.43005 16.56H3.98005C3.91137 16.5512 3.84194 16.5691 3.78611 16.6101C3.73028 16.651 3.69231 16.7118 3.68005 16.78C3.6684 16.8476 3.68394 16.917 3.72327 16.9732C3.7626 17.0294 3.82255 17.0678 3.89005 17.08C4.41005 17.24 4.89005 17.43 5.48005 17.55C5.79005 17.62 6.12004 17.66 6.43004 17.71C6.90046 17.7689 7.36532 17.8659 7.82005 18C7.89303 18.03 7.97489 18.03 8.04788 18C8.12088 17.9701 8.17914 17.9126 8.21005 17.84C8.22641 17.8054 8.2355 17.7678 8.23676 17.7295C8.23802 17.6912 8.23142 17.6531 8.21736 17.6175C8.2033 17.5819 8.18208 17.5495 8.15503 17.5224C8.12797 17.4953 8.09564 17.4741 8.06005 17.46C7.62276 17.1993 7.15619 16.9912 6.67005 16.84C6.46916 16.7566 6.26181 16.6897 6.05005 16.64Z" fill="black"/>
<path fill-rule="evenodd" clip-rule="evenodd" d="M10.48 17.61H12.03L12.93 17.69C13.39 17.69 13.84 17.8 14.3 17.81C14.37 17.8066 14.4395 17.8237 14.4999 17.8593C14.5603 17.8948 14.609 17.9472 14.64 18.01C14.64 18.13 14.56 18.23 14.4 18.24C13.9393 18.3056 13.4752 18.3457 13.01 18.36H12.41C12.2052 18.352 12.0013 18.3286 11.8 18.29C11.3383 18.2191 10.8809 18.1223 10.43 18C10.28 18 10.19 17.88 10.2 17.78C10.21 17.68 10.34 17.59 10.48 17.61Z" fill="black"/>
<path fill-rule="evenodd" clip-rule="evenodd" d="M16.3 6.53002C16.0938 6.50645 15.8898 6.46632 15.69 6.41002C15.77 6.21002 15.89 5.98002 16 5.73002C16.57 4.46002 16.93 3.09002 16 2.07002C15.979 2.04442 15.9531 2.0232 15.9239 2.00758C15.8947 1.99196 15.8627 1.98225 15.8297 1.979C15.7632 1.97244 15.6967 1.99259 15.645 2.03502C15.5933 2.07746 15.5605 2.1387 15.554 2.20528C15.5474 2.27185 15.5676 2.33831 15.61 2.39002C16.61 3.72002 15 5.20002 14.68 6.39002C14.36 7.58002 17.43 7.59002 18.53 7.24002L20.18 6.78002C20.6 6.59002 20.35 6.10002 20.1 6.15002C18.06 6.65002 18 6.78002 16.3 6.53002Z" fill="black"/>
<path fill-rule="evenodd" clip-rule="evenodd" d="M17.1 1.38002C15.83 1.12002 16.41 1.27002 7.90002 0.210022C7.83015 0.211303 7.7631 0.237767 7.7112 0.284545C7.65929 0.331323 7.62602 0.39527 7.6175 0.464625C7.60898 0.533979 7.62579 0.604077 7.66484 0.662025C7.70388 0.719973 7.76254 0.761874 7.83002 0.780022C15.75 1.84002 16 1.85002 17 2.07002C18 2.29002 20.13 5.00002 20.64 6.00002C20.7557 6.17798 20.8117 6.38811 20.8 6.60002C20.53 8.02002 19.42 12.14 19.09 13.08C18.76 14.02 18.46 14.7 18.19 15.53C18.08 15.85 17.19 19.75 16.05 20.13C14.48 20.66 12.88 19.98 11.31 19.92C10.31 19.92 8.31002 19.78 7.03002 19.58C2.03002 18.77 2.25002 18.88 0.970019 18.06C2.41002 16.53 3.74002 12.7 4.46002 10.51C5.08867 8.03639 5.57613 5.52901 5.92002 3.00002C6.00002 2.56002 6.71002 0.290022 6.00002 0.520022C5.70002 0.610022 5.74002 1.06002 5.71002 1.25002C5.51002 2.50002 4.64002 7.35002 4.46002 8.15002C3.69439 11.1452 2.53069 14.0241 1.00002 16.71C0.814196 16.971 0.613881 17.2214 0.400019 17.46C0.240405 17.619 0.105568 17.801 1.85538e-05 18C-0.0311348 18.1417 -0.0181233 18.2896 0.0373013 18.4237C0.0927259 18.5578 0.187903 18.6717 0.310019 18.75C0.851702 19.1609 1.45614 19.4817 2.10002 19.7C5.10457 20.3832 8.16268 20.8048 11.24 20.96C12.83 21.02 14.51 21.74 16.33 21.12C17.99 20.55 18.87 16.47 19.05 15.9C19.31 15.07 19.64 14.27 19.91 13.45C20.18 12.63 21.29 8.45002 21.57 6.82002C21.84 5.37002 18.38 1.65002 17.1 1.38002Z" fill="black"/>
<path fill-rule="evenodd" clip-rule="evenodd" d="M23.15 7.58001C22.87 9.00001 21.38 14.65 21.05 15.58C20.72 16.51 20.42 17.21 20.15 18.04C20.04 18.36 19.15 22.25 18.01 22.63C16.44 23.16 14.84 22.48 13.27 22.42C12.27 22.42 10.27 22.28 8.99005 22.08C4.22005 21.31 4.20005 21.51 3.10005 20.81C2.45005 20.45 2.20005 21.09 2.59005 21.43C3.03133 21.7707 3.54424 22.0066 4.09005 22.12C7.09394 22.8086 10.1522 23.2335 13.23 23.39C14.82 23.45 16.51 24.16 18.32 23.55C20.13 22.94 20.86 18.9 21 18.32C21.26 17.5 21.59 16.7 21.86 15.88C22.13 15.06 23.7 9.41001 24 7.81001C24.13 7.00001 23.35 6.76001 23.15 7.58001Z" fill="black"/>
</g>
<defs>
<clipPath id="clip0_1051_8744">
<rect width="24" height="24" fill="white"/>
</clipPath>
</defs>
</svg>
