<svg width="24" height="24" viewBox="0 0 24 24" fill="none" xmlns="http://www.w3.org/2000/svg">
<g clip-path="url(#clip0_1034_4418)">
<path fill-rule="evenodd" clip-rule="evenodd" d="M19.88 17.44C19.9277 17.1034 19.8843 16.7602 19.7543 16.4462C19.6243 16.1321 19.4124 15.8587 19.1407 15.6544C18.869 15.4501 18.5474 15.3224 18.2096 15.2847C17.8718 15.247 17.53 15.3006 17.22 15.44C16.2796 15.889 15.429 16.5058 14.71 17.26C14.27 17.63 12.78 18.74 12.71 18.77C11.8947 18.7618 11.0891 18.5918 10.34 18.27C10.34 18.17 10.41 18.08 10.53 17.92C11.76 16.21 13.36 15.61 12.23 13.92C12.0538 13.6736 11.8039 13.4894 11.5164 13.3942C11.2288 13.2989 10.9184 13.2975 10.63 13.39C8.80999 13.67 6.99999 15.5 5.26999 16.18C5.18999 16.18 5.10999 16.18 5.08999 16.23C4.79999 14.23 2.93999 14.77 2.22999 14.76C1.51999 14.75 -0.0700149 14.64 0.229985 15.33C0.261205 15.4076 0.321614 15.47 0.398258 15.5036C0.474903 15.5373 0.561681 15.5396 0.639985 15.51C1.15565 15.4368 1.68011 15.4537 2.18999 15.56C3.18999 15.67 3.88999 15.39 3.99999 16.28V22.14C3.99999 22.84 3.93999 23.02 2.82999 23.14C2.1621 23.1891 1.49075 23.1589 0.829985 23.05C0.735833 23.0327 0.638689 23.0536 0.559924 23.108C0.481159 23.1624 0.427224 23.2458 0.409985 23.34C0.392746 23.4341 0.413615 23.5313 0.468 23.61C0.522386 23.6888 0.605833 23.7427 0.699985 23.76C1.4026 23.9168 2.12009 23.9972 2.83999 24C3.83999 24 4.53999 23.84 4.88999 23L7.23998 22.48C10.96 23.48 16.05 23.64 19.31 21.57C20.56 20.76 21.94 19.76 21.25 18.43C21.1378 18.1528 20.9498 17.913 20.7074 17.7379C20.4651 17.5627 20.1783 17.4595 19.88 17.44ZM15.33 18.12C16.33 17.47 17.68 16.12 18.45 16.41C18.6717 16.4857 18.8572 16.6415 18.97 16.8468C19.0828 17.0521 19.1149 17.2922 19.06 17.52C17.12 17.95 16.18 18.36 14.45 18.59C14.77 18.43 15.09 18.26 15.33 18.12ZM18.67 20.56C14.41 23.49 7.43999 21.66 7.16999 21.73C4.85999 22.31 5.05999 22.31 5.06999 22.22C5.21514 20.4837 5.23853 18.7395 5.13999 17C6.46999 16.93 10.81 13.31 11.47 14.4C12.13 15.49 10.93 15.71 9.69998 17.3C9.06998 18.12 9.21999 18.67 9.59999 19.06C10.1573 19.4592 10.8018 19.7198 11.48 19.82C13.83 20.41 17.83 19.08 18.7 18.91C19.39 18.76 19.88 18.44 20.18 19.01C20.48 19.58 19.13 20.25 18.67 20.56Z" fill="black"/>
<path fill-rule="evenodd" clip-rule="evenodd" d="M10.9 10.82C10.9955 10.82 11.087 10.7821 11.1545 10.7145C11.222 10.647 11.26 10.5555 11.26 10.46C11.26 10.3645 11.222 10.2729 11.1545 10.2054C11.087 10.1379 10.9955 10.1 10.9 10.1C10.24 10.07 6.99998 7.41999 6.49998 6.99999C5.99998 6.57999 5.99998 6.86999 6.34998 6.51999C6.69998 6.16999 7.12998 5.88999 7.27998 5.75999C8.47305 4.61115 9.76842 3.57352 11.15 2.65999C11.2242 2.61755 11.2786 2.54736 11.3011 2.46484C11.3236 2.38232 11.3124 2.29425 11.27 2.21999C11.2275 2.14573 11.1573 2.09136 11.0748 2.06886C10.9923 2.04635 10.9042 2.05755 10.83 2.09999C8.70726 3.17145 6.7449 4.53467 4.99998 6.14999C4.88948 6.28874 4.81594 6.45323 4.78621 6.6281C4.75649 6.80296 4.77154 6.98251 4.82998 7.14999C5.09998 7.68999 9.89998 10.86 10.9 10.82Z" fill="black"/>
<path fill-rule="evenodd" clip-rule="evenodd" d="M12.74 12.11C13.85 8.54999 16.25 5.45999 16.92 0.379989C16.9361 0.336453 16.9425 0.289935 16.9389 0.243661C16.9352 0.197387 16.9215 0.152466 16.8987 0.112015C16.8759 0.0715632 16.8447 0.0365495 16.807 0.00940259C16.7693 -0.0177443 16.7262 -0.0363743 16.6807 -0.0451949C16.6351 -0.0540156 16.5881 -0.0528157 16.5431 -0.0416785C16.498 -0.0305413 16.4559 -0.00973353 16.4197 0.0193014C16.3835 0.0483363 16.354 0.0849031 16.3333 0.126465C16.3127 0.168027 16.3013 0.213589 16.3 0.259989C15.5 3.45999 13.01 7.25999 12.04 11.93C12.0282 11.976 12.0255 12.0238 12.0322 12.0708C12.0389 12.1178 12.0547 12.163 12.0789 12.2038C12.103 12.2447 12.135 12.2804 12.1729 12.3089C12.2108 12.3374 12.254 12.3582 12.3 12.37C12.3459 12.3818 12.3938 12.3845 12.4408 12.3778C12.4878 12.3711 12.533 12.3553 12.5738 12.3311C12.6147 12.307 12.6504 12.275 12.6789 12.2371C12.7074 12.1991 12.7282 12.156 12.74 12.11Z" fill="black"/>
<path fill-rule="evenodd" clip-rule="evenodd" d="M18.8 2.31997C18.7337 2.26693 18.649 2.2424 18.5646 2.25178C18.4803 2.26115 18.403 2.30367 18.35 2.36997C18.297 2.43628 18.2724 2.52094 18.2818 2.60533C18.2912 2.68972 18.3337 2.76693 18.4 2.81997C18.83 3.19997 22.2 6.18997 22.5 6.66997C21.41 7.99997 17.32 10.47 17.34 10.56C17.2512 10.5874 17.176 10.6473 17.1293 10.7277C17.0827 10.808 17.0679 10.903 17.0881 10.9937C17.1083 11.0845 17.1618 11.1643 17.2381 11.2173C17.3145 11.2703 17.4079 11.2927 17.5 11.28C17.88 11.22 23.31 8.27997 23.79 6.83997C24.08 5.91997 22 4.61997 18.8 2.31997Z" fill="black"/>
</g>
<defs>
<clipPath id="clip0_1034_4418">
<rect width="24" height="24" fill="white"/>
</clipPath>
</defs>
</svg>
