<svg width="24" height="24" viewBox="0 0 24 24" fill="none" xmlns="http://www.w3.org/2000/svg">
<path fill-rule="evenodd" clip-rule="evenodd" d="M23.69 1.51998C22.81 1.41998 21.96 1.30998 21.1 1.24998C20.5104 1.2199 19.9196 1.2199 19.33 1.24998C18.8821 1.24292 18.4351 1.29333 18 1.39998C17.844 1.43609 17.7002 1.51228 17.5827 1.62102C17.4652 1.72975 17.3781 1.86727 17.33 2.01998C17.2797 2.26038 17.2496 2.50456 17.24 2.74998C17.32 3.58139 17.32 4.41856 17.24 5.24998C17.2064 5.43217 17.163 5.61243 17.11 5.78998C17.0915 5.86807 17.0536 5.94028 17 5.99998C16.91 6.05998 16.76 5.99998 16.62 5.99998H15.9C14.9756 5.92097 14.0474 5.89426 13.12 5.91998C12.6505 5.94439 12.1925 6.07427 11.78 6.29998C11.537 6.43614 11.3574 6.66245 11.28 6.92998C11.2251 7.30129 11.2251 7.67866 11.28 8.04998C11.287 8.66431 11.2603 9.27857 11.2 9.88998C11.1726 10.2451 11.0593 10.5883 10.87 10.89C10.82 10.97 10.71 10.96 10.6 10.97C10.33 10.97 10.04 10.97 9.82 11.04C8.87096 11.0931 7.92784 11.2236 7 11.43C6.5455 11.5575 6.1275 11.7905 5.78 12.11C5.58163 12.3038 5.46075 12.5634 5.44 12.84C5.43614 13.2079 5.45954 13.5755 5.51 13.94C5.57536 14.6045 5.59874 15.2725 5.58 15.94C5.56485 16.3107 5.46569 16.6732 5.29 17C5.25965 17.0427 5.21897 17.077 5.17175 17.0998C5.12453 17.1225 5.07232 17.1329 5.02 17.13H4.32C3.43383 17.1262 2.54843 17.183 1.67 17.3C1.24351 17.3739 0.839748 17.545 0.49 17.8C0.336069 17.9331 0.236423 18.1182 0.21 18.32C0.186035 18.5961 0.186035 18.8738 0.21 19.15L0 22.46C0 22.5395 0.0316071 22.6158 0.087868 22.6721C0.144129 22.7284 0.220435 22.76 0.3 22.76C0.379565 22.76 0.455871 22.7284 0.512132 22.6721C0.568393 22.6158 0.6 22.5395 0.6 22.46L0.89 19.16C0.89 18.98 1.15 18.48 0.97 18.36C1.33103 18.1467 1.74077 18.0296 2.16 18.02C2.92 17.94 3.75 18.02 4.36 18.02C4.74533 18.074 5.13676 18.0673 5.52 18C5.75177 17.9169 5.94896 17.7584 6.08 17.55C6.37042 17.0824 6.53889 16.5495 6.57 16C6.61002 15.3005 6.61002 14.5994 6.57 13.9V12.9C6.89373 12.6329 7.28463 12.46 7.7 12.4C8.46 12.23 9.3 12.22 9.97 12.12C10.3458 12.1085 10.7203 12.0684 11.09 12C11.3634 11.9192 11.6002 11.746 11.76 11.51C12.0341 11.0771 12.2083 10.5886 12.27 10.08C12.3324 9.41525 12.3558 8.74744 12.34 8.07998V7.26998C12.7216 7.09052 13.1383 6.99829 13.56 6.99998C14.36 6.99998 15.23 7.05998 15.87 6.99998H16.87C17.0971 6.98232 17.3166 6.91029 17.51 6.78998C17.6675 6.66757 17.7942 6.51005 17.88 6.32998C18.0094 6.03076 18.0937 5.71397 18.13 5.38998C18.1785 5.14972 18.202 4.90508 18.2 4.65998C18.1142 3.84966 18.0875 3.03417 18.12 2.21998C18.38 2.42998 19.12 1.99998 19.35 1.97998C19.9096 1.95026 20.4704 1.95026 21.03 1.97998C21.88 1.97998 22.72 2.09998 23.59 2.17998C23.6346 2.18457 23.6798 2.18033 23.7228 2.16749C23.7658 2.15465 23.8058 2.13346 23.8407 2.10514C23.8755 2.07682 23.9044 2.04192 23.9257 2.00243C23.9471 1.96293 23.9604 1.91963 23.965 1.87498C23.9696 1.83033 23.9654 1.78521 23.9525 1.7422C23.9397 1.69919 23.9185 1.65913 23.8902 1.62431C23.8618 1.58949 23.8269 1.56058 23.7874 1.53925C23.748 1.51792 23.7046 1.50457 23.66 1.49998L23.69 1.51998Z" fill="black"/>
<path fill-rule="evenodd" clip-rule="evenodd" d="M22.47 11.67C22.4861 11.4069 22.4861 11.1431 22.47 10.88C22.4492 10.7297 22.3945 10.586 22.31 10.46C22.0938 10.1758 21.7737 9.98878 21.42 9.93998C20.8916 9.90113 20.3605 9.93139 19.84 10.03C18.98 10.16 18.12 10.34 17.26 10.45C16.9 10.45 16.54 10.53 16.18 10.54L15.23 10.63C15.1425 10.6049 15.0486 10.6148 14.9683 10.6578C14.888 10.7007 14.8277 10.7732 14.8 10.86C14.7752 10.9462 14.7854 11.0387 14.8285 11.1173C14.8716 11.196 14.944 11.2545 15.03 11.28C15.1651 11.3256 15.3075 11.346 15.45 11.34H16.17C16.5562 11.3649 16.9437 11.3649 17.33 11.34C18.2 11.34 19.08 11.21 19.95 11.16C20.15 11.16 20.44 11.1 20.73 11.09C20.54 11.34 20.36 11.59 20.15 11.84C19.32 12.84 18.38 13.72 17.54 14.63C16.7 15.54 16.14 16.26 15.46 17.08C14.78 17.9 14.15 18.76 13.46 19.58L12.41 20.79C12.3756 20.8158 12.3472 20.8486 12.3266 20.8864C12.306 20.9241 12.2938 20.9658 12.2907 21.0087C12.2877 21.0516 12.2939 21.0946 12.3089 21.1349C12.3239 21.1752 12.3475 21.2117 12.3778 21.2421C12.4082 21.2725 12.4448 21.296 12.4851 21.311C12.5253 21.3261 12.5684 21.3323 12.6112 21.3292C12.6541 21.3262 12.6958 21.314 12.7336 21.2934C12.7713 21.2728 12.8042 21.2444 12.83 21.21C14.0396 20.1319 15.1944 18.9938 16.29 17.8C17.01 17.01 17.68 16.18 18.38 15.36C19.08 14.54 19.78 13.67 20.45 12.79C21.69 11.16 21.31 11.32 21.33 11.73L21.61 14.1L21.96 16.4C21.9666 16.4795 22.0046 16.5532 22.0655 16.6048C22.1265 16.6564 22.2054 16.6816 22.285 16.675C22.3645 16.6684 22.4382 16.6304 22.4898 16.5694C22.5414 16.5085 22.5666 16.4295 22.56 16.35L22.5 14L22.47 11.67Z" fill="black"/>
</svg>
