<svg width="24" height="24" viewBox="0 0 24 24" fill="none" xmlns="http://www.w3.org/2000/svg">
<g clip-path="url(#clip0_1030_2799)">
<path fill-rule="evenodd" clip-rule="evenodd" d="M8.31003 7.78C7.77511 7.64117 7.2217 7.58718 6.67003 7.62C5.86846 7.64518 5.0713 7.74901 4.29003 7.93C2.89588 8.38175 1.67868 9.25968 0.81003 10.44C0.486389 10.8623 0.252104 11.3461 0.121444 11.8618C-0.009215 12.3776 -0.0335132 12.9145 0.0500299 13.44C0.102022 13.7538 0.172139 14.0643 0.26003 14.37C0.336107 14.5873 0.42975 14.7979 0.54003 15C0.910652 15.6427 1.40724 16.2039 2.00003 16.65C2.61277 17.107 3.33226 17.3996 4.09003 17.5C4.67208 17.5547 5.25798 17.5547 5.84003 17.5C6.41125 17.4565 6.97909 17.3763 7.54003 17.26L8.00003 17.16C8.4336 17.0251 8.81591 16.7615 9.0963 16.4043C9.37668 16.0472 9.54189 15.6132 9.57003 15.16C9.57003 14.4 9.07003 13.64 7.71003 13.57C7.62673 13.5767 7.54859 13.6131 7.48974 13.6724C7.4309 13.7318 7.39523 13.8102 7.38919 13.8936C7.38315 13.9769 7.40714 14.0597 7.45681 14.1269C7.50649 14.1941 7.57857 14.2413 7.66003 14.26C8.46003 14.33 8.82003 14.69 8.80003 15.14C8.75395 15.4165 8.62815 15.6736 8.43809 15.8796C8.24802 16.0857 8.00194 16.2318 7.73003 16.3L7.40003 16.39C6.87818 16.4833 6.34999 16.5368 5.82003 16.55C5.29797 16.5712 4.77511 16.5377 4.26003 16.45C3.68545 16.3487 3.14557 16.1045 2.69003 15.74C2.22495 15.3641 1.84059 14.8981 1.56003 14.37C1.47114 14.192 1.404 14.004 1.36003 13.81C1.29903 13.5899 1.25227 13.3661 1.22003 13.14C1.17021 12.673 1.22714 12.2009 1.38652 11.7591C1.54589 11.3174 1.80355 10.9176 2.14003 10.59C2.80795 9.83913 3.64892 9.26247 4.59003 8.91C5.2808 8.7049 5.99149 8.57416 6.71003 8.52C7.17001 8.4695 7.63491 8.48634 8.09003 8.57C8.37075 8.65243 8.62997 8.79545 8.84941 8.98896C9.06884 9.18248 9.24315 9.42179 9.36003 9.69C9.50003 10.11 9.29003 10.54 8.50003 10.87C8.43731 10.9075 8.38987 10.966 8.36607 11.0351C8.34227 11.1042 8.34365 11.1795 8.36997 11.2477C8.39628 11.3158 8.44584 11.3725 8.50989 11.4077C8.57394 11.4429 8.64837 11.4543 8.72003 11.44C10.02 10.96 10.23 10.17 10.04 9.44C9.8884 9.05494 9.65529 8.70722 9.35668 8.42069C9.05807 8.13416 8.70103 7.91561 8.31003 7.78Z" fill="black"/>
<path fill-rule="evenodd" clip-rule="evenodd" d="M4.85005 12.19C5.22629 11.9978 5.63179 11.8694 6.05005 11.81C6.28005 11.81 6.54005 11.72 6.81005 11.69C6.95607 11.6705 7.10403 11.6705 7.25005 11.69C7.3295 11.7048 7.4116 11.688 7.47885 11.6432C7.54609 11.5984 7.59317 11.529 7.61005 11.45C7.62487 11.3706 7.60807 11.2885 7.56324 11.2212C7.51841 11.154 7.44909 11.1069 7.37005 11.09C7.22594 11.0486 7.07883 11.0185 6.93005 11H6.01005C5.32184 10.9324 4.62855 11.0607 4.01005 11.37C3.76435 11.513 3.55975 11.717 3.41609 11.9622C3.27242 12.2075 3.19456 12.4858 3.19005 12.77C3.17415 13.0297 3.22345 13.2893 3.33349 13.5251C3.44352 13.7609 3.61079 13.9654 3.82005 14.12C4.35586 14.4848 5.00786 14.638 5.65005 14.55L6.52005 14.48C6.57028 14.4886 6.62177 14.4861 6.67093 14.4727C6.72009 14.4593 6.76574 14.4354 6.80469 14.4025C6.84363 14.3697 6.87493 14.3287 6.8964 14.2825C6.91788 14.2363 6.929 14.186 6.929 14.135C6.929 14.084 6.91788 14.0337 6.8964 13.9875C6.87493 13.9413 6.84363 13.9003 6.80469 13.8675C6.76574 13.8346 6.72009 13.8107 6.67093 13.7973C6.62177 13.7839 6.57028 13.7814 6.52005 13.79L5.63005 13.73C5.27508 13.7264 4.92838 13.6224 4.63005 13.43C4.53226 13.3683 4.45402 13.2801 4.40445 13.1756C4.35487 13.0712 4.33601 12.9548 4.35005 12.84C4.35593 12.6932 4.40717 12.5519 4.49672 12.4355C4.58627 12.3191 4.70972 12.2333 4.85005 12.19Z" fill="black"/>
<path fill-rule="evenodd" clip-rule="evenodd" d="M6.50005 4.38C6.71944 4.5988 6.9533 4.80259 7.20005 4.99C7.29751 5.07128 7.40115 5.14484 7.51005 5.21C7.61817 5.27655 7.73194 5.33344 7.85005 5.38C8.15005 5.5 8.45005 5.55 8.73005 5.64C8.79774 5.68622 8.88098 5.70375 8.96156 5.68876C9.04215 5.67377 9.11351 5.62747 9.16005 5.56C9.20318 5.49311 9.21893 5.41219 9.20404 5.334C9.18915 5.25582 9.14475 5.18635 9.08005 5.14C8.87879 4.88658 8.65813 4.64919 8.42005 4.43C8.31832 4.34211 8.20772 4.26502 8.09005 4.2C7.97185 4.12425 7.84817 4.0574 7.72005 4C7.42707 3.89065 7.12621 3.80373 6.82005 3.74C6.73899 3.6971 6.64433 3.68774 6.55643 3.71392C6.46854 3.7401 6.39443 3.79974 6.35005 3.88C6.32429 3.92201 6.30768 3.96898 6.30133 4.01784C6.29497 4.06671 6.299 4.11637 6.31316 4.16357C6.32732 4.21077 6.35129 4.25444 6.38349 4.29174C6.4157 4.32904 6.45542 4.35911 6.50005 4.38Z" fill="black"/>
<path fill-rule="evenodd" clip-rule="evenodd" d="M16.12 19.41C15.8906 19.2039 15.6503 19.0102 15.4 18.83L15.08 18.62C14.968 18.5598 14.8508 18.5097 14.73 18.47C14.42 18.37 14.13 18.33 13.84 18.25C13.8065 18.229 13.7692 18.2148 13.7302 18.2082C13.6913 18.2016 13.6514 18.2027 13.6128 18.2116C13.5743 18.2204 13.5379 18.2367 13.5056 18.2596C13.4734 18.2825 13.446 18.3115 13.425 18.345C13.404 18.3785 13.3898 18.4158 13.3832 18.4548C13.3766 18.4937 13.3777 18.5336 13.3866 18.5722C13.3954 18.6107 13.4117 18.6471 13.4346 18.6794C13.4575 18.7116 13.4865 18.739 13.52 18.76C13.7262 19.0062 13.9538 19.2338 14.2 19.44C14.3047 19.526 14.4187 19.5998 14.54 19.66C14.658 19.7197 14.782 19.7666 14.91 19.8C15.2055 19.9048 15.5102 19.9818 15.82 20.03C15.8612 20.05 15.906 20.0614 15.9518 20.0637C15.9975 20.0659 16.0433 20.0589 16.0862 20.043C16.1292 20.0271 16.1685 20.0027 16.2018 19.9713C16.2351 19.9398 16.2617 19.902 16.28 19.86C16.3153 19.7787 16.3184 19.687 16.2887 19.6035C16.259 19.52 16.1987 19.4508 16.12 19.41Z" fill="black"/>
<path fill-rule="evenodd" clip-rule="evenodd" d="M11.51 0.610001C11.4179 0.609859 11.3292 0.64503 11.2623 0.708276C11.1953 0.771522 11.1551 0.858031 11.15 0.950001C11.1 1.19 10.96 1.62 10.85 2.13C10.85 2.3 10.79 2.47 10.77 2.65C10.755 2.82969 10.755 3.01031 10.77 3.19C10.7954 3.61422 10.8556 4.03564 10.95 4.45C10.95 4.49025 10.9581 4.5301 10.9738 4.56716C10.9895 4.60423 11.0125 4.63776 11.0414 4.66575C11.0703 4.69374 11.1046 4.71563 11.1421 4.7301C11.1797 4.74457 11.2198 4.75134 11.26 4.75C11.2998 4.7514 11.3394 4.74459 11.3765 4.73001C11.4135 4.71543 11.4471 4.69338 11.4753 4.66524C11.5034 4.6371 11.5255 4.60347 11.54 4.56644C11.5546 4.52941 11.5614 4.48977 11.56 4.45C11.63 4.12 11.78 3.73 11.87 3.27C11.9085 3.09904 11.9319 2.92505 11.94 2.75C11.9551 2.57699 11.9551 2.40301 11.94 2.23C11.9277 1.81856 11.8943 1.40803 11.84 1C11.8456 0.952434 11.8413 0.904237 11.8274 0.858393C11.8136 0.812549 11.7905 0.770033 11.7596 0.733476C11.7286 0.696919 11.6905 0.667098 11.6476 0.64586C11.6047 0.624621 11.5579 0.612417 11.51 0.610001Z" fill="black"/>
<path fill-rule="evenodd" clip-rule="evenodd" d="M11.67 19.53C11.6781 19.4853 11.6763 19.4394 11.6648 19.3955C11.6532 19.3516 11.6321 19.3108 11.603 19.2759C11.5739 19.2411 11.5375 19.213 11.4964 19.1938C11.4553 19.1745 11.4104 19.1646 11.365 19.1646C11.3196 19.1646 11.2747 19.1745 11.2336 19.1938C11.1925 19.213 11.1561 19.2411 11.127 19.2759C11.0979 19.3108 11.0768 19.3516 11.0653 19.3955C11.0537 19.4394 11.0519 19.4853 11.06 19.53C11.01 19.86 10.88 20.26 10.8 20.72C10.773 20.8922 10.7563 21.0658 10.75 21.24C10.7398 21.4132 10.7398 21.5868 10.75 21.76C10.7842 22.1761 10.841 22.59 10.92 23C10.92 23.0928 10.9569 23.1819 11.0225 23.2475C11.0882 23.3131 11.1772 23.35 11.27 23.35C11.3611 23.3474 11.4476 23.3094 11.5111 23.244C11.5745 23.1787 11.61 23.0911 11.61 23C11.61 22.75 11.77 22.32 11.86 21.8C11.86 21.63 11.91 21.46 11.92 21.28C11.9351 21.1037 11.9351 20.9263 11.92 20.75C11.8681 20.3375 11.7845 19.9297 11.67 19.53Z" fill="black"/>
<path fill-rule="evenodd" clip-rule="evenodd" d="M14.23 5.41C14.58 5.21 14.86 5.09 15.1 4.92C15.2148 4.84389 15.322 4.75681 15.42 4.66C15.5215 4.56432 15.6151 4.46065 15.7 4.35C15.9038 4.08182 16.0908 3.80128 16.26 3.51C16.3241 3.44458 16.3601 3.35662 16.3601 3.265C16.3601 3.17339 16.3241 3.08543 16.26 3.02C16.1934 2.95815 16.1059 2.92377 16.015 2.92377C15.9241 2.92377 15.8366 2.95815 15.77 3.02C15.48 3.22 15.22 3.35 14.95 3.54C14.8352 3.62044 14.7251 3.70724 14.62 3.8C14.5193 3.89645 14.4257 4.00005 14.34 4.11C14.16 4.35 14.02 4.62 13.81 4.96C13.7544 5.01777 13.7233 5.09483 13.7233 5.175C13.7233 5.25518 13.7544 5.33224 13.81 5.39C13.8634 5.44772 13.9374 5.48216 14.0159 5.4859C14.0945 5.48964 14.1713 5.46238 14.23 5.41Z" fill="black"/>
<path fill-rule="evenodd" clip-rule="evenodd" d="M8.34002 18.71C8.01002 18.92 7.73002 19.05 7.49002 19.23C7.38301 19.3155 7.28271 19.4091 7.19002 19.51C7.0914 19.6091 7.00109 19.7161 6.92002 19.83C6.72002 20.12 6.57002 20.38 6.39002 20.69C6.35257 20.7227 6.32253 20.7631 6.3019 20.8083C6.28128 20.8536 6.27053 20.9027 6.27039 20.9525C6.27024 21.0022 6.2807 21.0514 6.30106 21.0968C6.32143 21.1422 6.35123 21.1827 6.38848 21.2156C6.42574 21.2486 6.46959 21.2732 6.51711 21.2879C6.56464 21.3026 6.61475 21.307 6.66409 21.3008C6.71344 21.2945 6.7609 21.2779 6.80331 21.2519C6.84571 21.2259 6.88209 21.1912 6.91002 21.15C7.19002 20.94 7.44002 20.8 7.71002 20.59C7.8137 20.5078 7.91068 20.4176 8.00002 20.32C8.10952 20.2257 8.20693 20.1182 8.29002 20C8.46932 19.7193 8.63291 19.4288 8.78002 19.13C8.80759 19.1011 8.82921 19.0671 8.84363 19.0298C8.85806 18.9926 8.865 18.9529 8.86407 18.9129C8.86314 18.873 8.85436 18.8336 8.83822 18.7971C8.82208 18.7606 8.79891 18.7276 8.77002 18.7C8.74113 18.6724 8.70709 18.6508 8.66984 18.6364C8.6326 18.622 8.59287 18.615 8.55295 18.6159C8.51302 18.6169 8.47366 18.6257 8.43713 18.6418C8.40059 18.6579 8.36759 18.6811 8.34002 18.71Z" fill="black"/>
<path fill-rule="evenodd" clip-rule="evenodd" d="M23.34 10.7C22.739 9.66376 21.7997 8.86579 20.68 8.44C20.23 8.29616 19.7727 8.176 19.31 8.08C18.9814 8.00619 18.6466 7.96267 18.31 7.95H16.01C15.9645 7.94866 15.9193 7.95647 15.8768 7.97295C15.8344 7.98944 15.7958 8.01427 15.7631 8.04598C15.7305 8.07768 15.7045 8.11562 15.6868 8.15753C15.6691 8.19945 15.66 8.2445 15.66 8.29C15.6697 8.37403 15.7094 8.45173 15.7719 8.50872C15.8344 8.56571 15.9155 8.59813 16 8.6L18.3 8.7C18.6386 8.73176 18.9734 8.79538 19.3 8.89C19.6395 8.97648 19.9734 9.08334 20.3 9.21C21.222 9.58345 21.9856 10.2657 22.46 11.14C22.7024 11.5525 22.856 12.011 22.9111 12.4863C22.9662 12.9615 22.9215 13.443 22.78 13.9C22.6363 14.2472 22.4217 14.5605 22.15 14.82C21.8987 15.1072 21.6013 15.3505 21.27 15.54C20.7812 15.8063 20.2554 15.9985 19.71 16.11C19.1415 16.2109 18.5669 16.2743 17.99 16.3C17.547 16.325 17.103 16.325 16.66 16.3C15.91 16.24 15.31 16.15 15.31 16.15H15.17C14.76 16.15 14.46 15.78 14.4 15.4C14.34 15.02 14.58 14.81 15.11 14.77H17.37C18.0514 14.7391 18.7248 14.6111 19.37 14.39C19.8873 14.2161 20.3242 13.8609 20.6 13.39C20.7074 13.1692 20.7589 12.9254 20.75 12.68C20.7657 12.3711 20.7216 12.0621 20.62 11.77C20.5046 11.4615 20.3096 11.189 20.055 10.98C19.8004 10.7711 19.4951 10.6331 19.17 10.58C18.38 10.5122 17.5847 10.5357 16.8 10.65L15.2 10.83C14.13 10.78 13.62 10.43 13.52 9.96C13.4916 9.80392 13.4952 9.64368 13.5306 9.48903C13.566 9.33439 13.6325 9.18855 13.726 9.06041C13.8196 8.93226 13.9382 8.82448 14.0747 8.74361C14.2112 8.66274 14.3627 8.61048 14.52 8.59C14.5915 8.57701 14.6561 8.53937 14.7026 8.48363C14.7491 8.42789 14.7746 8.3576 14.7746 8.285C14.7746 8.2124 14.7491 8.1421 14.7026 8.08637C14.6561 8.03063 14.5915 7.99299 14.52 7.98C14.2645 7.99708 14.0152 8.06617 13.7873 8.18306C13.5595 8.29994 13.3579 8.46215 13.1949 8.65972C13.032 8.8573 12.9112 9.08608 12.8398 9.33202C12.7685 9.57797 12.7481 9.83591 12.78 10.09C12.91 10.78 13.53 11.47 15.09 11.6L16.79 11.49C17.4975 11.4048 18.2126 11.4048 18.92 11.49C19.0913 11.5271 19.2497 11.6085 19.3796 11.7261C19.5095 11.8436 19.6062 11.9933 19.66 12.16V12.88C19.4841 13.1219 19.2296 13.2951 18.94 13.37C18.3968 13.5267 17.8353 13.6108 17.27 13.62H15.14C13.64 13.71 13.21 14.67 13.34 15.56C13.3979 16.0393 13.6272 16.4815 13.9856 16.805C14.344 17.1285 14.8073 17.3114 15.29 17.32C15.5 17.32 16.19 17.44 16.96 17.48C17.3531 17.5 17.7469 17.5 18.14 17.48C18.778 17.449 19.413 17.3721 20.04 17.25C20.6812 17.0985 21.2975 16.856 21.87 16.53C22.3016 16.2606 22.6867 15.9228 23.01 15.53C23.366 15.1547 23.6447 14.713 23.83 14.23C23.9991 13.64 24.0428 13.0211 23.9584 12.4132C23.874 11.8052 23.6634 11.2217 23.34 10.7Z" fill="black"/>
</g>
<defs>
<clipPath id="clip0_1030_2799">
<rect width="24" height="24" fill="white"/>
</clipPath>
</defs>
</svg>
