<svg width="24" height="24" viewBox="0 0 24 24" fill="none" xmlns="http://www.w3.org/2000/svg">
<g clip-path="url(#clip0_1051_8950)">
<path d="M23.88 7.25003C23.8908 6.08821 23.8407 4.92662 23.73 3.77003C23.64 2.84003 23.73 1.43003 23.09 0.930029C22.3928 0.4644 21.5863 0.188658 20.75 0.130029C17.3049 -0.0580933 13.8513 -0.0280332 10.41 0.220029C9.88052 0.306953 9.38932 0.550809 8.99999 0.920029C8.23999 1.85003 8.19999 7.17003 8.17999 8.37003C8.17999 8.4602 8.21581 8.54668 8.27958 8.61045C8.34334 8.67421 8.42982 8.71003 8.51999 8.71003C8.61017 8.71003 8.69665 8.67421 8.76041 8.61045C8.82417 8.54668 8.85999 8.4602 8.85999 8.37003C8.85999 7.51003 9.11999 2.12003 9.67999 1.48003C9.92645 1.30177 10.2103 1.18206 10.51 1.13003C12.01 0.970029 19.51 1.13003 20.6 1.24003C20.9965 1.28412 21.3881 1.36446 21.77 1.48003C22.67 1.79003 22.42 1.86003 22.64 3.86003C22.9031 5.71456 22.9668 7.59193 22.83 9.46003C22.8089 10.0763 22.7285 10.6891 22.59 11.29C22.39 11.15 23.15 11.7 17.73 12.2C17.6504 12.2 17.5741 12.2316 17.5179 12.2879C17.4616 12.3442 17.43 12.4205 17.43 12.5C17.43 12.5796 17.4616 12.6559 17.5179 12.7122C17.5741 12.7684 17.6504 12.8 17.73 12.8L18.51 12.74C18.4516 13.3608 18.6262 13.981 19 14.48C18.476 14.5142 17.9585 14.615 17.46 14.78C17.3911 14.7928 17.3288 14.8293 17.2839 14.8831C17.2391 14.937 17.2145 15.0049 17.2145 15.075C17.2145 15.1451 17.2391 15.213 17.2839 15.2669C17.3288 15.3208 17.3911 15.3573 17.46 15.37C18.4885 15.7354 19.6115 15.7354 20.64 15.37C20.7189 15.3563 20.7905 15.3152 20.842 15.2539C20.8936 15.1927 20.9219 15.1151 20.9219 15.035C20.9219 14.9549 20.8936 14.8774 20.842 14.8161C20.7905 14.7548 20.7189 14.7137 20.64 14.7L19.89 14.59C19.9308 13.9398 19.7588 13.2939 19.4 12.75C20.14 12.68 22.89 12.44 23.3 11.82C23.71 11.2 23.87 8.00003 23.88 7.25003Z" fill="black"/>
<path d="M16.39 7.31003C16.6154 7.34383 16.8345 7.41125 17.04 7.51003C17.6075 7.82822 18.0592 8.31847 18.33 8.91003C18.33 9.12003 19.09 9.18003 19.09 8.81003C18.961 8.28058 18.7142 7.78707 18.3679 7.36631C18.0216 6.94556 17.5848 6.60842 17.09 6.38003C19.09 5.08003 18.2 1.72003 15.78 1.88003C15.2299 1.84479 14.6829 1.98597 14.2186 2.28304C13.7542 2.58012 13.3968 3.01759 13.1982 3.53182C12.9997 4.04605 12.9704 4.61021 13.1146 5.14225C13.2588 5.67429 13.5689 6.14644 14 6.49003C14.13 6.58003 14.11 6.49003 13.76 6.74003C13.3782 6.96483 13.0465 7.2653 12.7851 7.62299C12.5237 7.98068 12.3382 8.38804 12.24 8.82003C12.24 9.28003 12.57 9.30003 12.94 9.04003C13.2079 8.38268 13.7054 7.84494 14.3399 7.52675C14.9745 7.20856 15.7029 7.13155 16.39 7.31003ZM14 5.23003C13.7 4.07003 14.3 3.09003 15.79 3.01003C15.9757 3.00138 16.1611 3.03175 16.3344 3.09918C16.5076 3.16661 16.6648 3.2696 16.7957 3.40152C16.9267 3.53343 17.0286 3.69134 17.0948 3.86505C17.1609 4.03876 17.19 4.22441 17.18 4.41003C17.3 6.41003 14.44 6.84003 14 5.23003Z" fill="black"/>
<path d="M20.87 9.43003C18.87 9.24003 11.63 9.43003 11.42 9.43003C11.3511 9.44277 11.2888 9.47925 11.2439 9.53314C11.1991 9.58703 11.1745 9.65492 11.1745 9.72503C11.1745 9.79513 11.1991 9.86302 11.2439 9.91691C11.2888 9.9708 11.3511 10.0073 11.42 10.02C14.5647 10.2494 17.7202 10.2928 20.87 10.15C21.51 10.15 21.87 10.28 21.87 9.92003C22.06 9.42003 21.45 9.46003 20.87 9.43003Z" fill="black"/>
<path d="M6.71 10.27C0.0299978 10.82 1.43 18.8 5.71 18.38C5.75884 18.3885 5.80894 18.3862 5.85679 18.3732C5.90464 18.3603 5.94908 18.3371 5.98701 18.3052C6.02493 18.2732 6.05542 18.2334 6.07634 18.1885C6.09725 18.1435 6.10809 18.0946 6.10809 18.045C6.10809 17.9954 6.09725 17.9465 6.07634 17.9015C6.05542 17.8566 6.02493 17.8168 5.98701 17.7849C5.94908 17.7529 5.90464 17.7297 5.85679 17.7168C5.80894 17.7038 5.75884 17.7015 5.71 17.71C2.46 17.87 1.54 11.71 6.84 11.4C10.23 11.1 11.32 16.85 6.84 17.87C6.80126 17.8772 6.76432 17.892 6.73129 17.9135C6.69827 17.935 6.6698 17.9628 6.64751 17.9953C6.62522 18.0278 6.60956 18.0644 6.60141 18.1029C6.59325 18.1415 6.59277 18.1813 6.6 18.22C6.60722 18.2587 6.622 18.2957 6.6435 18.3287C6.665 18.3617 6.69279 18.3902 6.72529 18.4125C6.75779 18.4348 6.79436 18.4504 6.83292 18.4586C6.87147 18.4668 6.91126 18.4672 6.95 18.46C12.51 17.55 11.46 10 6.71 10.27Z" fill="black"/>
<path d="M8.00001 15.17C8.00001 14.96 7.80001 14.28 7.43001 14.83C7.15103 15.1096 6.85371 15.3701 6.54001 15.61C6.14416 15.3793 5.73323 15.1756 5.31001 15C5.21001 15 5.08001 15.06 5.07001 15.21C5.0926 15.4773 5.1926 15.7322 5.35777 15.9436C5.52293 16.1549 5.74611 16.3135 6.00001 16.4C6.22858 16.476 6.47193 16.4966 6.71001 16.46C7.43001 16.31 8.00001 15.26 8.00001 15.17Z" fill="black"/>
<path d="M3.83 18.4401C2.95196 18.7703 2.17114 19.3162 1.55949 20.0275C0.947844 20.7387 0.525027 21.5925 0.329996 22.5101C0.259997 22.8101 0.189996 23.1801 0.119996 23.6001C0.104559 23.64 0.0978376 23.6827 0.100283 23.7254C0.102728 23.7682 0.114283 23.8099 0.134173 23.8477C0.154063 23.8856 0.181827 23.9188 0.215602 23.9451C0.249377 23.9714 0.288381 23.9901 0.329996 24.0001C0.689996 24.1001 0.679996 23.7301 1.12 22.8201C1.42544 22.2536 1.75919 21.7029 2.12 21.1701C2.57061 20.3195 3.2404 19.6048 4.06 19.1001C4.14752 19.0696 4.21934 19.0055 4.25966 18.9221C4.29998 18.8386 4.3055 18.7426 4.275 18.6551C4.2445 18.5675 4.18048 18.4957 4.09702 18.4554C4.01357 18.4151 3.91752 18.4096 3.83 18.4401Z" fill="black"/>
<path d="M15.43 12.46C15.175 12.334 14.8944 12.2684 14.61 12.2684C14.3256 12.2684 14.045 12.334 13.79 12.46C12.5904 13.5809 11.4489 14.7625 10.37 16C10.3103 16.0504 10.2731 16.1225 10.2665 16.2003C10.26 16.2781 10.2846 16.3554 10.335 16.415C10.3854 16.4747 10.4574 16.5119 10.5352 16.5185C10.6131 16.525 10.6903 16.5004 10.75 16.45C11.8781 15.3677 13.0631 14.3462 14.3 13.39C14.43 13.32 15.44 13.18 15.1 14.3C14.8684 14.9643 14.5525 15.5962 14.16 16.18C12.49 18.87 11.87 19.06 11.85 20.1C11.85 20.77 12.19 21.62 12.25 23.71C12.25 23.8002 12.2858 23.8867 12.3496 23.9504C12.4133 24.0142 12.4998 24.05 12.59 24.05C12.6802 24.05 12.7666 24.0142 12.8304 23.9504C12.8942 23.8867 12.93 23.8002 12.93 23.71C12.98 21.8 12.71 20.6 12.75 20.14C12.8 19.49 13.67 19 15.11 16.79C15.5686 16.118 15.9289 15.3839 16.18 14.61C16.37 13.87 16.17 12.69 15.43 12.46Z" fill="black"/>
</g>
<defs>
<clipPath id="clip0_1051_8950">
<rect width="24" height="24" fill="white"/>
</clipPath>
</defs>
</svg>
