<svg width="24" height="24" viewBox="0 0 24 24" fill="none" xmlns="http://www.w3.org/2000/svg">
<g clip-path="url(#clip0_1030_2458)">
<path fill-rule="evenodd" clip-rule="evenodd" d="M1.32 10.4L1.76 9.99999C2.42 9.37999 3.68 8.20999 4.53999 7.23999C5.00237 6.76189 5.37798 6.20693 5.65 5.59999C5.67832 5.4203 5.64295 5.23636 5.55 5.07999C5.39033 4.78202 5.20638 4.49773 5 4.22999C4.1111 3.1067 3.10546 2.08096 2 1.16999C1.9583 1.13637 1.91028 1.11147 1.85877 1.09677C1.80727 1.08206 1.75334 1.07784 1.70018 1.08437C1.64702 1.0909 1.59571 1.10804 1.5493 1.13477C1.50289 1.1615 1.46232 1.19728 1.43 1.23999C1.39663 1.28086 1.37191 1.32808 1.35733 1.37878C1.34274 1.42948 1.3386 1.48262 1.34514 1.53497C1.35168 1.58732 1.36878 1.6378 1.3954 1.68335C1.42202 1.72891 1.4576 1.76859 1.5 1.79999C2.50708 2.91455 3.40455 4.12346 4.17999 5.40999C4.14717 5.4787 4.11044 5.54547 4.07 5.60999C3.84 5.92999 3.49999 6.33999 3.15 6.79999C2.44 7.73999 1.64 8.79999 1.15 9.42999C0.989995 9.61999 0.759995 9.75999 0.809995 9.81999C0.738869 9.86783 0.686006 9.93831 0.659995 10.02C0.619995 10.25 0.819995 10.77 1.32 10.4Z" fill="black"/>
<path fill-rule="evenodd" clip-rule="evenodd" d="M8.65997 1.18999C10.33 1.25999 11.99 1.35999 13.66 1.40999H15.8H17.89C18.95 1.40999 20 1.33999 21.06 1.28999L23.15 1.14999C23.2029 1.15006 23.2553 1.13935 23.304 1.11851C23.3527 1.09767 23.3966 1.06714 23.4331 1.02878C23.4695 0.99042 23.4978 0.945032 23.5162 0.895382C23.5346 0.845732 23.5427 0.79286 23.54 0.739987C23.54 0.687044 23.5293 0.634641 23.5085 0.585972C23.4877 0.537302 23.4571 0.493385 23.4188 0.456896C23.3804 0.420407 23.335 0.39211 23.2854 0.37373C23.2357 0.35535 23.1828 0.347272 23.13 0.349987L21.06 0.319987L15.81 0.0799866H13.65C11.98 0.149987 10.32 0.309987 8.64997 0.439987C8.59998 0.441065 8.55076 0.452546 8.50545 0.473698C8.46014 0.49485 8.41973 0.525209 8.3868 0.562841C8.35387 0.600473 8.32915 0.644552 8.3142 0.692269C8.29925 0.739985 8.2944 0.790293 8.29997 0.839987C8.30257 0.933721 8.34165 1.02274 8.40888 1.0881C8.47611 1.15347 8.5662 1.19002 8.65997 1.18999Z" fill="black"/>
<path fill-rule="evenodd" clip-rule="evenodd" d="M8.17 6.33999H8.3L8.79 6.49999L9.79 6.69999C10.0803 6.75959 10.3743 6.79968 10.67 6.81999C11.34 6.87999 12 6.87999 12.67 6.91999H14.09C15 6.91999 15.91 6.74999 16.82 6.63999C17.6883 6.51833 18.5633 6.45153 19.44 6.43999L22.44 6.50999L23.69 6.30999C23.7883 6.29053 23.8753 6.23397 23.9331 6.15204C23.9908 6.07012 24.0148 5.96912 24 5.86999C23.9783 5.76418 23.9157 5.67121 23.8258 5.61129C23.7359 5.55137 23.626 5.52934 23.52 5.54999L22.44 5.63999L19.51 5.29999C18.8009 5.25002 18.0891 5.25002 17.38 5.29999C16.43 5.35999 15.47 5.48999 14.52 5.59999C13.91 5.66999 13.3 5.74999 12.68 5.77999C12.06 5.80999 11.56 5.86999 11 5.88999C10.6404 5.91498 10.2796 5.91498 9.92 5.88999L8.92 5.78999C8.3 5.66999 8.36 5.63999 8.22 5.66999C8.17712 5.66997 8.13467 5.67857 8.09518 5.69527C8.05569 5.71197 8.01996 5.73644 7.99011 5.76722C7.96026 5.79801 7.93691 5.83447 7.92142 5.87446C7.90594 5.91445 7.89866 5.95713 7.9 5.99999C7.90344 6.07788 7.9314 6.1527 7.97989 6.21376C8.02837 6.27481 8.09491 6.319 8.17 6.33999Z" fill="black"/>
<path fill-rule="evenodd" clip-rule="evenodd" d="M7.99999 11.82H8.13999L8.59999 12L9.59999 12.21C9.89438 12.2653 10.1914 12.3054 10.49 12.33C11.15 12.39 11.82 12.39 12.49 12.43C12.9597 12.455 13.4303 12.455 13.9 12.43C14.81 12.43 15.72 12.27 16.63 12.16C17.4983 12.0391 18.3734 11.9723 19.25 11.96L22.25 12.03L23.5 11.83C23.6045 11.806 23.6959 11.7429 23.7554 11.6536C23.8149 11.5644 23.838 11.4557 23.82 11.35C23.8093 11.2978 23.7884 11.2484 23.7583 11.2044C23.7283 11.1605 23.6898 11.123 23.6451 11.0941C23.6004 11.0653 23.5504 11.0456 23.498 11.0363C23.4456 11.027 23.3919 11.0282 23.34 11.04L22.25 11.13L19.33 10.79C18.6242 10.74 17.9158 10.74 17.21 10.79C16.21 10.85 15.3 10.98 14.35 11.09C13.74 11.16 13.13 11.24 12.51 11.26C11.89 11.28 11.39 11.35 10.82 11.38C10.4636 11.4 10.1064 11.4 9.74999 11.38L8.74999 11.28C8.00999 11.14 8.14999 11.13 8.04999 11.15C8.00351 11.1545 7.95853 11.1689 7.91802 11.1921C7.8775 11.2153 7.84238 11.2469 7.81496 11.2847C7.78755 11.3225 7.76848 11.3657 7.759 11.4114C7.74953 11.4572 7.74986 11.5044 7.75999 11.55C7.77525 11.611 7.80505 11.6674 7.84684 11.7144C7.88863 11.7615 7.94118 11.7977 7.99999 11.82Z" fill="black"/>
<path fill-rule="evenodd" clip-rule="evenodd" d="M0.559989 17.75L1.20999 17.89L2.74999 18.09C3.32382 18.1668 3.90127 18.2136 4.47999 18.23C5.32999 18.23 6.17999 18.28 7.02999 18.31H9.10999C10.48 18.31 11.84 18.14 13.21 18.03C14.58 17.92 15.88 17.82 17.21 17.83L21.67 17.9L23.48 17.71C23.5861 17.6927 23.6816 17.6354 23.7467 17.5498C23.8118 17.4642 23.8416 17.3569 23.83 17.25C23.8127 17.1446 23.755 17.05 23.6691 16.9865C23.5832 16.923 23.4758 16.8956 23.37 16.91L21.67 17L17.25 16.66C16.21 16.6 15.17 16.6 14.13 16.66C12.69 16.72 11.26 16.85 9.82999 16.96C8.90999 17 7.99999 17.08 6.99999 17.1C5.99999 17.12 5.29999 17.19 4.44999 17.22H2.78999L1.23999 17.12C0.0999891 17 0.399989 17 0.309989 17C0.239051 17.0064 0.17193 17.035 0.118102 17.0817C0.0642737 17.1283 0.0264566 17.1907 0.00998906 17.26C-0.00448276 17.3151 -0.00568367 17.3728 0.00648494 17.4284C0.0186536 17.484 0.0438446 17.536 0.0799891 17.58C0.143748 17.6482 0.227994 17.6939 0.319989 17.71L0.559989 17.75Z" fill="black"/>
<path fill-rule="evenodd" clip-rule="evenodd" d="M23.48 22.5L21.77 22.59L17.36 22.25C16.31 22.19 15.27 22.18 14.23 22.25C12.8 22.31 11.37 22.44 9.93002 22.55C9.00002 22.62 8.06002 22.7 7.11002 22.73C6.16002 22.76 5.42002 22.82 4.57002 22.84H2.91002L1.36002 22.74C0.240016 22.56 0.200016 22.53 0.100016 22.85C0.0826221 22.9032 0.0799451 22.9601 0.0922691 23.0146C0.104593 23.0692 0.131459 23.1194 0.170016 23.16C0.227631 23.2325 0.30916 23.2821 0.400016 23.3H0.640016L1.30002 23.44L2.83002 23.65C3.41002 23.72 3.98002 23.76 4.56002 23.79L7.11002 23.86H9.20002C10.56 23.86 11.93 23.69 13.29 23.59C14.65 23.49 15.97 23.37 17.29 23.39L21.74 23.46L23.56 23.26C23.6128 23.2527 23.6636 23.2349 23.7094 23.2077C23.7552 23.1805 23.7951 23.1444 23.8268 23.1015C23.8585 23.0587 23.8813 23.0099 23.8938 22.9582C23.9064 22.9064 23.9085 22.8526 23.9 22.8C23.8767 22.7084 23.8218 22.6281 23.7449 22.5732C23.668 22.5183 23.5742 22.4923 23.48 22.5Z" fill="black"/>
</g>
<defs>
<clipPath id="clip0_1030_2458">
<rect width="24" height="24" fill="white"/>
</clipPath>
</defs>
</svg>
