<svg width="24" height="24" viewBox="0 0 24 24" fill="none" xmlns="http://www.w3.org/2000/svg">
<g clip-path="url(#clip0_1047_6267)">
<path fill-rule="evenodd" clip-rule="evenodd" d="M23 20.78C21.1565 20.8226 19.3169 20.9695 17.49 21.22C14.76 21.58 12.03 22.09 9.35 22.45C8.31264 22.6568 7.26424 22.8037 6.21 22.89C5.52 22.89 4.88 22.89 4.56 22.58C4.36829 22.2008 4.24313 21.7916 4.19 21.37C3.79 19.67 3 15.61 3 15.58C2.96801 15.5371 2.92513 15.5035 2.87579 15.4827C2.82644 15.462 2.77244 15.4548 2.71939 15.4619C2.66633 15.4691 2.61615 15.4903 2.57406 15.5233C2.53196 15.5564 2.49949 15.6002 2.48 15.65C2.86 18.23 3.31 21.4 3.34 21.56C3.40581 22.1568 3.58935 22.7346 3.88 23.26C4.35716 23.7248 4.99397 23.9895 5.66 24C6.95671 24.0043 8.25034 23.8736 9.52 23.61C10.78 23.42 12.05 23.2 13.33 22.96C15.21 22.6 17.09 22.22 18.98 21.96C20.34 21.75 21.69 21.59 23.04 21.51C23.1302 21.51 23.2167 21.4742 23.2804 21.4104C23.3442 21.3467 23.38 21.2602 23.38 21.17C23.38 21.0798 23.3442 20.9934 23.2804 20.9296C23.2167 20.8658 23.1302 20.83 23.04 20.83L23 20.78Z" fill="black"/>
<path fill-rule="evenodd" clip-rule="evenodd" d="M22.73 12.82C22.48 12.05 21.73 12.57 21.85 13.16C22.26 16.01 22.55 18.99 22.65 19.76C22.6606 19.8501 22.7066 19.9324 22.7779 19.9887C22.8491 20.0449 22.9398 20.0706 23.03 20.06C23.1202 20.0493 23.2024 20.0033 23.2587 19.9321C23.315 19.8608 23.3406 19.7701 23.33 19.68C23.26 18.89 23.05 15.71 22.73 12.82Z" fill="black"/>
<path fill-rule="evenodd" clip-rule="evenodd" d="M22.64 11.9999C22.5585 10.8457 22.3438 9.70478 22 8.59993C21.9252 8.48307 21.8236 8.38579 21.7035 8.3162C21.5835 8.24662 21.4486 8.20675 21.31 8.19993C20.844 8.18554 20.3779 8.22243 19.92 8.30993L15.1 8.89993C13.44 9.06993 11.46 9.36993 9.8 9.56993C8.8 9.68993 4.8 10.5199 2.8 10.9099C2.54951 10.961 2.32464 11.0978 2.16405 11.2967C2.00345 11.4956 1.91716 11.7443 1.92 11.9999V12.5899C1.92 12.6999 2.07 13.4899 2.27 14.7999C2.28501 14.9132 2.34349 15.0162 2.43307 15.0871C2.52265 15.158 2.63631 15.1913 2.75 15.1799L4.09 15.0799C4.82 14.9999 5.53 14.8999 6.26 14.8099C7.36 14.6799 8.45 14.5699 9.55 14.4099C10.65 14.2499 11.71 14.0699 12.8 13.8899L21.3 12.4899C22.27 12.3199 22.65 12.1299 22.64 11.9999ZM11.22 11.6199C11.1198 11.8186 11.0297 12.0222 10.95 12.2299C10.84 12.5199 10.75 12.8099 10.65 13.0899L9.38 13.3199C8.31 13.5099 7.23 13.7399 6.16 13.9499C5.44 14.0799 4.73 14.2499 4.01 14.3699C3.65628 14.4369 3.29903 14.4836 2.94 14.5099C2.85 14.0199 2.73 13.4499 2.66 12.8699C2.59859 12.4924 2.59859 12.1074 2.66 11.7299L3.12 11.5699C3.46 11.4599 3.82 11.3599 4.18 11.2799C4.54 11.1999 4.91 11.1299 5.27 11.0699C5.63 11.0099 6.27 10.9499 6.73 10.8799C6.73 10.9399 6.62 10.9799 6.57 11.0299C6.44798 11.1766 6.33446 11.3302 6.23 11.4899C6.13 11.6499 6.05 11.8099 5.96 11.9799C5.3 13.2799 5.26 13.4899 5.51 13.6499C5.76 13.8099 5.96 13.6499 6.86 12.5699C6.97879 12.4266 7.08899 12.2763 7.19 12.1199C7.29605 11.9693 7.39289 11.8123 7.48 11.6499C7.63 11.3499 7.75 11.0399 7.89 10.7399L9.21 10.5699L12.02 10.3199C11.85 10.5499 11.67 10.7799 11.5 11.0299C11.3967 11.2251 11.3033 11.4254 11.22 11.6299V11.6199ZM16.42 10.7699C16.32 10.9599 16.23 11.1599 16.14 11.3599C16.05 11.5599 15.89 12.0199 15.77 12.3599H15.43C14.49 12.4599 13.56 12.5899 12.63 12.7299L11.8 12.8799L11.92 12.6899C12.04 12.4999 12.14 12.3099 12.25 12.1099C12.3501 11.9112 12.4403 11.7077 12.52 11.4999C12.68 11.0799 12.79 10.6499 12.93 10.2199L15.2 10.0199C15.82 9.95993 16.45 9.87993 17.08 9.79993C16.97 9.92993 16.86 10.0499 16.76 10.1899C16.6363 10.3804 16.5228 10.5774 16.42 10.7799V10.7699ZM16.82 12.2499L17.1 11.8699C17.2209 11.6934 17.3311 11.5097 17.43 11.3199C17.5405 11.1339 17.6375 10.94 17.72 10.7399C17.87 10.3899 17.99 10.0399 18.11 9.67993L20.06 9.39993C20.4211 9.34978 20.7854 9.32638 21.15 9.32993C21.3834 10.1417 21.5506 10.9711 21.65 11.8099C20 11.9999 18.43 12.1199 16.82 12.2599V12.2499Z" fill="black"/>
<path fill-rule="evenodd" clip-rule="evenodd" d="M7.62 8.63995L9.84 7.69995L14.37 5.84995L18.19 4.39995C18.34 4.33995 18.89 4.16995 19.19 4.00995C19.3931 3.92351 19.5618 3.77233 19.67 3.57995C19.7245 3.45012 19.7525 3.31074 19.7525 3.16995C19.7525 3.02916 19.7245 2.88978 19.67 2.75995C19.3952 2.23261 19.0595 1.73925 18.67 1.28995C18.53 1.08995 18.34 0.749953 18.14 0.499953C18.0202 0.339808 17.8708 0.20404 17.7 0.0999527C17.5182 0.00717721 17.3123 -0.027719 17.11 -4.73121e-05C16.7314 0.074071 16.36 0.181145 16 0.319953C15.45 0.479953 14.91 0.659953 14.39 0.859953C13.61 1.14995 12.85 1.46995 12.07 1.77995C10.45 2.43995 8.78 3.03995 7.15 3.77995C6.04464 4.2158 4.96901 4.72355 3.93 5.29995L1.65 6.67995C1.40884 6.79539 1.17506 6.92564 0.949998 7.06995C0.85203 7.15166 0.773466 7.25413 0.719998 7.36995C0.60961 7.71808 0.60961 8.09183 0.719998 8.43995C0.863617 8.86672 1.05482 9.27596 1.29 9.65995C1.41 9.86995 1.53 10.09 1.67 10.29C1.78201 10.4615 1.90563 10.6253 2.04 10.78C3.03562 10.5598 4.00215 10.2242 4.92 9.77995L7.62 8.63995ZM14.77 1.91995C15.27 1.73995 15.77 1.56995 16.3 1.42995C16.46 1.37995 17.16 1.42995 17.3 1.19995L17.39 1.30995C17.55 1.53995 17.69 1.79995 17.82 1.95995C17.95 2.11995 18.2 3.02995 18.53 3.18995C18.26 3.26995 17.87 3.31995 17.79 3.35995L16.21 3.99995C15.9 3.72995 15.59 3.45995 15.21 3.19995L14.69 2.83995C14.52 2.72995 14.34 2.62995 14.15 2.52995L13.71 2.31995L14.77 1.91995ZM12.47 2.79995L12.83 2.65995C13.1156 2.99066 13.4302 3.2952 13.77 3.56995C14.0526 3.76922 14.3502 3.94641 14.66 4.09995L15.26 4.37995L14 4.89995L12.13 5.73995C11.76 5.44995 11.42 5.13995 11.05 4.85995C10.9 4.73454 10.7431 4.61769 10.58 4.50995C10.4193 4.39725 10.2524 4.29375 10.08 4.19995L9.46 3.89995L12.47 2.79995ZM4.35 6.04995C5.3719 5.50667 6.42737 5.02903 7.51 4.61995L8.58 4.21995C8.84805 4.52133 9.13178 4.80839 9.43 5.07995C9.58486 5.21108 9.74858 5.33137 9.92 5.43995C10.091 5.54959 10.268 5.64975 10.45 5.73995C10.73 5.87995 11.01 5.98995 11.29 6.09995L9.5 6.90995L7.35 7.90995C7.35 7.90995 7.35 7.81995 7.25 7.79995C6.85 7.51995 6.49 7.20995 6.09 6.93995C5.82717 6.75664 5.55332 6.58966 5.27 6.43995C4.94477 6.29289 4.61081 6.16599 4.27 6.05995L4.35 6.04995ZM5.17 8.92995C4.25 9.34995 3.34 9.74995 2.4 10.12L1.9 9.30995C1.69848 8.97472 1.54054 8.61515 1.43 8.23995C1.36025 8.05291 1.36025 7.847 1.43 7.65995L2.06 7.34995L3.58 6.48995C3.89 6.76995 4.19 7.04995 4.52 7.29995C4.67245 7.42359 4.83279 7.53716 5 7.63995C5.18 7.73995 5.37 7.82995 5.55 7.90995C5.87647 8.05109 6.21028 8.1746 6.55 8.27995L5.17 8.92995Z" fill="black"/>
<path fill-rule="evenodd" clip-rule="evenodd" d="M6.29 18.0999C6.21123 18.1024 6.13637 18.1348 6.08064 18.1906C6.02491 18.2463 5.9925 18.3212 5.99 18.3999C5.9886 18.4397 5.99541 18.4793 6.00999 18.5164C6.02457 18.5534 6.04662 18.587 6.07476 18.6152C6.1029 18.6433 6.13653 18.6654 6.17356 18.6799C6.21059 18.6945 6.25023 18.7013 6.29 18.6999C6.91043 18.7234 7.53173 18.7067 8.15 18.6499C9.06 18.5699 9.96 18.4199 10.87 18.2999C11.78 18.1799 12.87 18.0099 13.87 17.8399C14.54 17.7199 15.21 17.5799 15.87 17.4399C16.76 17.2299 17.65 16.9999 18.55 16.8299C19.141 16.7058 19.7387 16.6156 20.34 16.5599C20.3847 16.5574 20.4284 16.546 20.4687 16.5266C20.509 16.5071 20.545 16.4798 20.5747 16.4464C20.6045 16.4129 20.6273 16.3739 20.6419 16.3317C20.6566 16.2894 20.6627 16.2446 20.66 16.1999C20.6575 16.1553 20.6461 16.1115 20.6266 16.0712C20.6071 16.031 20.5799 15.9949 20.5464 15.9652C20.513 15.9355 20.474 15.9126 20.4317 15.898C20.3894 15.8834 20.3447 15.8772 20.3 15.8799C19.68 15.8799 19.05 15.9399 18.42 16.0099C17.79 16.0799 16.91 16.2199 16.16 16.3299V15.9999C16.1702 15.8835 16.1702 15.7664 16.16 15.6499C16.1406 15.5341 16.1105 15.4202 16.07 15.3099C16.07 15.2099 15.59 14.3099 15.26 14.3099C15.16 14.3099 14.99 14.3099 14.99 15.4899C14.9753 15.5994 14.9753 15.7104 14.99 15.8199C15.0127 15.9296 15.0462 16.0368 15.09 16.1399C15.1239 16.2358 15.164 16.3293 15.21 16.4199C14.36 16.5599 13.49 16.6699 12.63 16.8199C12.03 16.9199 11.43 17.0499 10.83 17.1699V16.7099C10.8403 16.5868 10.8403 16.4631 10.83 16.3399C10.8139 16.2211 10.7871 16.104 10.75 15.9899C10.42 14.8399 10.2 14.8699 10.09 14.8899C9.98 14.9099 9.72 14.7999 9.67 16.1199C9.65528 16.2462 9.65528 16.3737 9.67 16.4999C9.68458 16.6265 9.71481 16.7508 9.76 16.8699C9.81449 17.038 9.88134 17.2018 9.96 17.3599C9.3 17.5299 8.63 17.6999 7.96 17.8299C7.40997 17.957 6.85206 18.0472 6.29 18.0999Z" fill="black"/>
</g>
<defs>
<clipPath id="clip0_1047_6267">
<rect width="24" height="24" fill="white"/>
</clipPath>
</defs>
</svg>
