<svg width="24" height="24" viewBox="0 0 24 24" fill="none" xmlns="http://www.w3.org/2000/svg">
<g clip-path="url(#clip0_1030_1995)">
<path fill-rule="evenodd" clip-rule="evenodd" d="M23 0.679988C22.4669 0.277663 21.8061 0.0822536 21.14 0.129988C20.8982 0.156713 20.6621 0.22081 20.44 0.319988C20.1453 0.484389 19.8731 0.686047 19.63 0.919988C19.597 0.95171 19.5708 0.98976 19.5528 1.03186C19.5349 1.07396 19.5257 1.11924 19.5257 1.16499C19.5257 1.21074 19.5349 1.25602 19.5528 1.29812C19.5708 1.34022 19.597 1.37827 19.63 1.40999C19.6608 1.44267 19.698 1.46872 19.7393 1.48651C19.7805 1.50431 19.825 1.51349 19.87 1.51349C19.9149 1.51349 19.9594 1.50431 20.0006 1.48651C20.0419 1.46872 20.0791 1.44267 20.11 1.40999C20.2747 1.25852 20.452 1.12136 20.64 0.999988C20.8189 0.902356 21.0167 0.844377 21.22 0.829988C21.6873 0.829075 22.1401 0.991826 22.5 1.28999C22.6821 1.40523 22.8354 1.56071 22.9481 1.74447C23.0608 1.92823 23.1298 2.13537 23.15 2.34999C23.1536 2.69683 23.0747 3.03957 22.92 3.34999C22.7586 3.66726 22.5532 3.96016 22.31 4.21999L21.1 5.57999C20.8 5.25999 20.49 4.93999 20.16 4.63999C20 4.48999 19.83 4.35999 19.67 4.21999L19.34 3.99999L18.5 3.50999L18.34 3.38999L18.61 2.99999L19.29 2.14999C19.3139 2.11728 19.3307 2.0799 19.3393 2.04029C19.348 2.00067 19.3482 1.95969 19.34 1.91999C19.34 1.76999 19.19 1.53999 18.89 1.71999C18.6 1.49999 18.35 1.23999 18.07 1.01999C17.8997 0.892247 17.7151 0.784851 17.52 0.699988C17.3615 0.633975 17.1916 0.599988 17.02 0.599988C16.8483 0.599988 16.6784 0.633975 16.52 0.699988C16.2129 0.850855 15.9298 1.0463 15.68 1.27999C15.3501 1.57308 15.0395 1.88706 14.75 2.21999C14.3498 2.72479 13.9792 3.25234 13.64 3.79999C13.5758 3.86541 13.5399 3.95337 13.5399 4.04499C13.5399 4.1366 13.5758 4.22456 13.64 4.28999C13.7037 4.3535 13.79 4.38916 13.88 4.38916C13.9699 4.38916 14.0562 4.3535 14.12 4.28999C14.42 3.97999 14.73 3.69999 15.03 3.41999C15.4772 2.99716 15.948 2.59986 16.44 2.22999C16.58 2.10999 16.75 1.95999 16.93 1.82999C17.11 1.69999 17.09 1.66999 17.2 1.68999C17.3299 1.7092 17.4574 1.74273 17.58 1.78999C17.86 1.91999 18.13 2.08999 18.41 2.22999L18.06 2.63999C16.67 4.26999 13.62 7.83999 12.37 9.45999C12.0866 9.78665 11.8662 10.163 11.72 10.57C11.72 10.85 11.59 12.86 11.61 13.68C11.5982 13.7796 11.5982 13.8803 11.61 13.98C11.4566 14.0735 11.3096 14.1771 11.17 14.29C11.0825 14.3658 11.0022 14.4495 10.93 14.54C10.8609 14.6293 10.7975 14.7228 10.74 14.82C10.19 15.72 10.31 15.82 10.32 15.82C10.3338 15.8965 10.3769 15.9646 10.44 16.01C10.4975 16.0633 10.5717 16.0951 10.65 16.1C10.65 16.1 10.8 16.19 11.59 15.49C11.6797 15.4203 11.7603 15.3397 11.83 15.25C11.9062 15.1675 11.9732 15.0769 12.03 14.98C12.1069 14.8486 12.1738 14.7115 12.23 14.57C12.4514 14.6108 12.6785 14.6108 12.9 14.57C13.7638 14.3698 14.6126 14.1091 15.44 13.79C15.6049 13.7257 15.7499 13.6187 15.86 13.48C16.11 13.21 16.6 12.64 17.21 11.89C18.97 9.72999 21.78 6.11999 22.91 4.80999C23.201 4.47935 23.4434 4.10897 23.63 3.70999C23.8509 3.2962 23.9773 2.83853 24 2.36999C23.9683 2.03195 23.8623 1.7051 23.6894 1.4129C23.5165 1.12071 23.281 0.870413 23 0.679988ZM15.24 12.53L15.05 12.73C14.319 13.0328 13.5627 13.2704 12.79 13.44V10.71C12.88 10.71 12.17 11.2 17.88 3.91999L18.01 4.04999L18.55 4.69999C18.8115 5.01794 19.1103 5.30332 19.44 5.54999C19.7984 5.78837 20.1726 6.0022 20.56 6.18999C19.71 7.18999 18.73 8.32999 17.83 9.40999C16.73 10.76 15.73 12 15.24 12.53Z" fill="black"/>
<path fill-rule="evenodd" clip-rule="evenodd" d="M18.63 17.53L17.93 15.93C17.9217 15.8863 17.9041 15.8449 17.8784 15.8086C17.8527 15.7722 17.8195 15.7419 17.781 15.7196C17.7425 15.6972 17.6997 15.6835 17.6554 15.6792C17.6111 15.6749 17.5664 15.6801 17.5243 15.6946C17.4823 15.7091 17.4438 15.7325 17.4116 15.7632C17.3794 15.7939 17.3542 15.8311 17.3376 15.8724C17.3211 15.9137 17.3136 15.9581 17.3158 16.0026C17.3179 16.047 17.3296 16.0905 17.35 16.13L18.04 17.83C18.58 18.91 19.04 19.46 19.26 19.9C19.4013 20.119 19.4515 20.3845 19.4 20.64C19.4 20.69 19.3 20.7 19.2 20.76C18.8511 20.9452 18.482 21.0895 18.1 21.19C15.7722 21.8013 13.3972 22.2161 11 22.43C8.62912 22.7299 6.23562 22.8102 3.84998 22.67C3.51245 22.6416 3.17792 22.5848 2.84998 22.5C2.75344 22.4639 2.65983 22.4205 2.56998 22.37C2.45279 22.1602 2.34924 21.9431 2.25998 21.72C2.16297 21.5121 2.08919 21.2941 2.03998 21.07C1.5557 18.3091 1.2484 15.5201 1.11998 12.72C0.912772 10.0306 0.912772 7.32933 1.11998 4.63999C2.04998 4.41999 3.30998 4.20999 4.71998 4.02999C6.60998 3.78999 8.71998 3.61999 10.72 3.54999C10.7655 3.55001 10.8105 3.54089 10.8524 3.52318C10.8944 3.50547 10.9323 3.47953 10.964 3.44689C10.9957 3.41425 11.0205 3.37558 11.037 3.33317C11.0535 3.29076 11.0613 3.24547 11.06 3.19999C11.0574 3.1089 11.0194 3.02243 10.954 2.95894C10.8886 2.89545 10.8011 2.85995 10.71 2.85999C8.70998 2.85999 6.57998 3.01999 4.65998 3.20999C3.31598 3.33581 1.9804 3.53949 0.659982 3.81999C0.573533 3.84204 0.495364 3.88876 0.434997 3.95446C0.374629 4.02015 0.334669 4.10198 0.319982 4.18999C-0.0169922 7.04042 -0.093976 9.9156 0.0899823 12.78C0.198367 15.6374 0.502412 18.4841 0.999982 21.3C1.05912 21.5441 1.13258 21.7845 1.21998 22.02C1.35516 22.3419 1.50874 22.6557 1.67998 22.96C1.89739 23.2097 2.16432 23.4116 2.46385 23.5528C2.76338 23.6939 3.08897 23.7713 3.41998 23.78C5.39894 23.9491 7.39032 23.9055 9.35998 23.65C12.6777 23.3714 15.9505 22.7 19.11 21.65C19.79 21.36 20.11 21.01 20.18 20.74C20.2402 20.4526 20.2159 20.1539 20.11 19.88C19.87 19.39 19.34 18.88 18.63 17.53Z" fill="black"/>
<path fill-rule="evenodd" clip-rule="evenodd" d="M9.66995 11.63C9.6398 11.5342 9.57473 11.4532 9.48766 11.4032C9.40059 11.3532 9.29788 11.3378 9.19995 11.36C9.11995 11.36 9.19995 11.28 8.84995 11.36C8.07995 11.45 6.84995 11.66 5.78995 11.81C5.46995 11.86 5.15995 11.9 4.87995 11.96C4.22995 12.08 3.73995 12.22 3.54995 12.24C3.486 12.2522 3.42831 12.2864 3.38682 12.3366C3.34533 12.3868 3.32263 12.4498 3.32263 12.515C3.32263 12.5801 3.34533 12.6432 3.38682 12.6934C3.42831 12.7435 3.486 12.7777 3.54995 12.79C4.0492 12.8691 4.55463 12.9026 5.05995 12.89C5.50995 12.89 6.05995 12.83 6.52995 12.78C7.31739 12.7043 8.09905 12.5774 8.86995 12.4C9.59995 12.16 9.72995 11.85 9.66995 11.63Z" fill="black"/>
<path fill-rule="evenodd" clip-rule="evenodd" d="M5.45001 7.77C4.77245 7.91946 4.10456 8.10981 3.45001 8.34C3.37808 8.35893 3.31618 8.40478 3.2771 8.46805C3.23801 8.53133 3.22473 8.60721 3.24001 8.68C3.25882 8.75145 3.30512 8.81257 3.36881 8.85004C3.4325 8.8875 3.50841 8.89827 3.58001 8.88C4.47001 8.74 5.33001 8.71 6.23001 8.64C7.47001 8.53 8.76001 8.4 10.23 8.21C10.61 8.16 11.01 8.13 11.41 8.04C11.5379 8.04422 11.6658 8.03076 11.79 8C11.85 8 11.87 7.93 11.93 7.89C12.0275 7.87283 12.1145 7.81829 12.1724 7.73798C12.2303 7.65767 12.2545 7.55793 12.24 7.46C12.18 7 11.38 7 11.3 7C9.59001 7.12 8.14001 7.33 6.79001 7.51C6.33001 7.61 5.89001 7.67 5.45001 7.77Z" fill="black"/>
<path fill-rule="evenodd" clip-rule="evenodd" d="M8.80997 15.84C8.67997 15.84 8.51996 15.84 8.33996 15.89L7.03996 16.09C6.35996 16.2 5.63997 16.31 5.08996 16.45C4.78513 16.527 4.48468 16.6204 4.18996 16.73H4.12996C4.08105 16.7152 4.02888 16.7152 3.97996 16.73C3.97996 16.73 3.84997 17.22 4.25997 17.26C4.42997 17.26 4.75997 17.32 5.25997 17.32C5.92915 17.2984 6.59674 17.2416 7.25997 17.15C7.74997 17.09 8.25996 17.02 8.58996 16.95C8.73225 16.9271 8.87264 16.8937 9.00996 16.85C9.18099 16.7788 9.33963 16.6809 9.47996 16.56C9.57157 16.511 9.64054 16.4283 9.67227 16.3294C9.70399 16.2305 9.69599 16.1231 9.64996 16.03C9.55996 16 9.51997 15.86 8.80997 15.84Z" fill="black"/>
</g>
<defs>
<clipPath id="clip0_1030_1995">
<rect width="24" height="24" fill="white"/>
</clipPath>
</defs>
</svg>
