<svg width="24" height="24" viewBox="0 0 24 24" fill="none" xmlns="http://www.w3.org/2000/svg">
<g clip-path="url(#clip0_1030_2002)">
<path fill-rule="evenodd" clip-rule="evenodd" d="M23.94 3.26999C23.8106 2.78329 23.5672 2.3344 23.2298 1.96052C22.8925 1.58663 22.4709 1.2985 22 1.11999C21.1108 0.73188 20.109 0.689096 19.19 0.999992C18.8139 1.15643 18.4737 1.3878 18.19 1.67999C17.7724 2.09185 17.4335 2.57645 17.19 3.10999C17.0529 3.37532 16.952 3.65784 16.89 3.94999C16.8677 4.03349 16.878 4.12236 16.9189 4.19852C16.9597 4.27468 17.0281 4.33242 17.11 4.35999C17.1474 4.3743 17.1872 4.38098 17.2272 4.37964C17.2672 4.3783 17.3066 4.36897 17.3429 4.3522C17.3793 4.33542 17.4119 4.31154 17.4389 4.28197C17.4658 4.2524 17.4866 4.21772 17.5 4.17999L17.81 3.44999C18.0122 3.08339 18.2647 2.74681 18.56 2.44999C18.8288 2.19861 19.1549 2.01667 19.51 1.91999C20.1867 1.77325 20.8933 1.86512 21.51 2.17999C21.8299 2.27826 22.1232 2.44824 22.3676 2.67698C22.6119 2.90573 22.8009 3.18721 22.92 3.49999C23.0705 4.01304 23.0979 4.55436 23 5.07999C22.8964 5.61111 22.7215 6.12577 22.48 6.60999L22.35 6.53999C21.29 5.99999 18.77 4.72999 18 4.29999C17.9189 4.2571 17.8243 4.24773 17.7364 4.27391C17.6485 4.3001 17.5744 4.35973 17.53 4.43999C17.4871 4.52105 17.4777 4.61572 17.5039 4.70361C17.5301 4.79151 17.5897 4.86561 17.67 4.90999L22.11 7.32999C22.02 7.52999 21.87 7.82999 21.68 8.19999C20.46 10.62 17.54 16.06 16.5 17.87C16.0777 17.4514 15.6229 17.0668 15.14 16.72C14.9 16.56 14.64 16.4 14.39 16.26C14.1285 16.1216 13.8579 16.0013 13.58 15.9C13.0678 15.7104 12.5387 15.5698 12 15.48C12.0309 15.3572 12.071 15.2368 12.12 15.12C13.04 12.99 15.44 8.28999 16.54 6.11999C16.79 5.63999 16.97 5.28999 17.05 5.11999C17.25 4.73999 16.64 4.63999 16.63 4.64999C16.3774 5.01717 16.1566 5.40525 15.97 5.80999C14.76 7.99999 12.16 12.6 11.17 14.7C10.9399 15.1005 10.7904 15.5421 10.73 16C10.8 16.42 11.24 19.39 11.53 20.58C11.5825 20.8979 11.7328 21.1915 11.96 21.42C12.1419 21.5245 12.3506 21.5732 12.56 21.56C13.0216 21.5031 13.4708 21.3714 13.89 21.17C15.0043 20.6546 16.0383 19.981 16.96 19.17C17.21 18.89 20.22 13.1 21.87 9.69999C22.36 8.69999 22.73 7.90999 22.87 7.52999C23.2342 6.77606 23.5449 5.99748 23.8 5.19999C23.9812 4.57354 24.0289 3.91603 23.94 3.26999ZM12.81 20.38H12.66C12.66 20.38 11.98 17.08 11.82 16.19C12.29 16.42 12.82 16.73 13.33 17.03C13.64 17.21 13.97 17.37 14.33 17.54C14.69 17.71 15 17.85 15.33 18.02L16.11 18.49C15.5438 18.9588 14.9305 19.3676 14.28 19.71C13.8151 19.9848 13.3224 20.2094 12.81 20.38Z" fill="black"/>
<path fill-rule="evenodd" clip-rule="evenodd" d="M12 22.55C11.3871 22.4202 10.7826 22.2532 10.19 22.05C9.81736 21.924 9.45879 21.7598 9.11998 21.56C8.83771 21.3982 8.62964 21.1327 8.53998 20.82C8.51154 20.3781 8.57627 19.9352 8.72998 19.52C8.93361 18.9064 8.93361 18.2435 8.72998 17.63C8.56055 17.2796 8.28381 16.9924 7.93998 16.81C7.51846 16.574 7.05136 16.4308 6.56998 16.39C5.70804 16.3751 4.84686 16.4489 3.99998 16.61C2.7405 16.8661 1.49811 17.2001 0.279981 17.61C0.234121 17.6129 0.189472 17.6259 0.149265 17.6481C0.109057 17.6704 0.0742965 17.7013 0.0474985 17.7386C0.0207005 17.7759 0.00253529 17.8187 -0.00568278 17.8639C-0.0139008 17.9092 -0.0119662 17.9556 -1.88109e-05 18C0.00929778 18.039 0.026355 18.0758 0.0501425 18.1081C0.0739301 18.1405 0.103964 18.1677 0.138466 18.1882C0.172968 18.2087 0.211236 18.2221 0.251003 18.2276C0.29077 18.233 0.331229 18.2305 0.369981 18.22C1.36998 18.01 2.36998 17.8 3.45998 17.66C4.45339 17.5159 5.4603 17.489 6.45998 17.58C6.70735 17.6068 6.94786 17.6779 7.16998 17.79C7.34998 17.88 7.53998 17.97 7.59998 18.12C7.72281 18.5106 7.72281 18.9294 7.59998 19.32C7.43024 19.9016 7.4028 20.5155 7.51998 21.11C7.6037 21.3869 7.74373 21.6436 7.9313 21.8638C8.11887 22.0841 8.34993 22.2632 8.60998 22.39C9.02763 22.6003 9.46687 22.7645 9.91998 22.88C10.5585 23.0475 11.2063 23.1778 11.86 23.27C11.95 23.2846 12.0422 23.2636 12.1169 23.2113C12.1916 23.159 12.2429 23.0796 12.26 22.99C12.2734 22.944 12.2773 22.8958 12.2714 22.8482C12.2654 22.8007 12.2498 22.7549 12.2254 22.7136C12.201 22.6724 12.1684 22.6366 12.1297 22.6084C12.0909 22.5803 12.0468 22.5604 12 22.55Z" fill="black"/>
</g>
<defs>
<clipPath id="clip0_1030_2002">
<rect width="24" height="24" fill="white"/>
</clipPath>
</defs>
</svg>
