<svg width="24" height="24" viewBox="0 0 24 24" fill="none" xmlns="http://www.w3.org/2000/svg">
<g clip-path="url(#clip0_1033_3859)">
<path fill-rule="evenodd" clip-rule="evenodd" d="M3.84001 20.27C2.68001 20.21 2.84001 20.61 1.46001 13.99C1.28001 13.15 1.10001 12.68 0.960008 12.05C0.930144 11.9135 0.955421 11.7706 1.03034 11.6527C1.10525 11.5347 1.22374 11.451 1.36001 11.42C2.36001 11.2 2.76001 11 4.13001 10.6C4.1831 10.6087 4.23751 10.6043 4.28851 10.5871C4.33951 10.57 4.38554 10.5407 4.4226 10.5017C4.45967 10.4627 4.48663 10.4152 4.50115 10.3634C4.51568 10.3116 4.51731 10.257 4.50592 10.2045C4.49453 10.1519 4.47045 10.1029 4.43579 10.0617C4.40113 10.0206 4.35694 9.98854 4.30706 9.96838C4.25718 9.94822 4.20313 9.94056 4.14961 9.94607C4.09609 9.95158 4.04473 9.97009 4.00001 9.99999C-1.35999 10.45 -0.0999916 10.55 0.840008 16.46C0.980008 17.36 1.47001 19.89 2.33001 20.76C2.97001 21.39 4.75001 20.99 5.72001 20.82C5.76436 20.8183 5.80778 20.8067 5.84713 20.7862C5.88648 20.7656 5.92078 20.7366 5.94757 20.7012C5.97435 20.6659 5.99295 20.625 6.00202 20.5815C6.01108 20.5381 6.0104 20.4931 6.00001 20.45C5.90001 20 5.37001 20.34 3.84001 20.27Z" fill="black"/>
<path fill-rule="evenodd" clip-rule="evenodd" d="M11.29 5.27002C11.45 4.97002 11.88 3.89002 11.58 3.72002C10.96 3.23002 10.28 4.86002 10.16 5.82002C10.02 6.29002 10.44 6.49002 10.86 6.29002C11.0214 5.95789 11.1649 5.61741 11.29 5.27002Z" fill="black"/>
<path fill-rule="evenodd" clip-rule="evenodd" d="M23.81 7.25999C23.11 6.15999 21.81 5.94999 20.68 5.45999C18.43 4.52999 16.4 4.18999 14.17 3.45999C14.04 3.45999 12.05 2.59999 11.77 3.03999C11.7289 3.10497 11.7153 3.18361 11.7322 3.25862C11.749 3.33363 11.795 3.39886 11.86 3.43999C12.12 3.60999 11.66 3.25999 13.93 4.11999C15.93 4.89999 18.34 5.54999 20.24 6.42999C20.83 6.69999 21.5 6.88999 22.07 7.17999C23.32 7.80999 22.84 8.17999 22.65 9.25999C22.4177 10.5806 22.0834 11.8811 21.65 13.15C21.4464 14.2795 21.1487 15.3901 20.76 16.47H20.54C20.07 16.62 20.21 17.18 20.54 17.17C21.54 17.25 21.54 16.85 22.54 13.44C23.0636 12.1425 23.4816 10.8048 23.79 9.43999C23.82 8.93999 24.24 7.99999 23.81 7.25999Z" fill="black"/>
<path fill-rule="evenodd" clip-rule="evenodd" d="M20.49 9C20.13 7.2 17.72 7.34 16.26 7.09C14.43 6.77 9.09999 6.53 8.61999 6.49C8.02075 6.37009 7.41111 6.3098 6.79999 6.31C6.02999 6.39 5.98999 6.36 5.91999 6.56C5.70999 7.18 6.65999 6.85 7.32999 6.92C7.73999 6.92 8.18999 7.06 8.54999 7.11C11.08 7.41 13.65 7.42 16.1 7.91C17.31 8.16 18.68 8.1 19.41 8.84C19.81 9.25 19.35 14.22 19.29 14.79C18.9033 14.1818 18.3068 13.7368 17.6136 13.5395C16.9204 13.3423 16.1789 13.4065 15.53 13.72C14.5985 14.2183 13.7459 14.8519 13 15.6C12.53 13.83 11.89 12.19 10.14 11.6C9.74386 11.4941 9.32871 11.4805 8.9265 11.5602C8.52429 11.64 8.14574 11.811 7.81999 12.06C6.7317 12.9301 5.85331 14.034 5.24999 15.29C5.35999 9.4 6.42999 7.39 5.78999 7.29C5.14999 7.19 5.28999 7.74 5.21999 8.37C4.8171 10.5608 4.55655 12.7755 4.43999 15C4.33999 18.54 4.24999 19 8.18999 19.6C11.3788 19.9425 14.5829 20.1228 17.79 20.14C19.79 20.14 19.79 19.4 19.87 18.23C19.87 18.21 20.83 10.67 20.49 9ZM5.99999 18.16C5.62999 18.03 5.32999 18.16 5.25999 16.57C6.0214 15.1596 7.09131 13.9393 8.38999 13C8.59269 12.8502 8.82615 12.7474 9.07347 12.699C9.32079 12.6506 9.57578 12.6578 9.81999 12.72C10.3867 12.9194 10.8648 13.3125 11.17 13.83C11.9608 15.5048 12.6618 17.2206 13.27 18.97C11.59 18.89 7.58999 18.72 5.99999 18.16ZM19.13 18.07L19.05 18.86C17.3762 19.0837 15.6836 19.1306 14 19C14 18.82 13.34 16.69 13.25 16.34C14.46 15.58 15.83 14.48 17.16 14.61C17.5741 14.6808 17.9622 14.8595 18.2853 15.1281C18.6083 15.3967 18.8548 15.7458 19 16.14C19.26 16.67 19.21 16.29 19.14 18.07H19.13Z" fill="black"/>
<path fill-rule="evenodd" clip-rule="evenodd" d="M16.43 12.25C16.6683 12.1082 16.8657 11.9069 17.0027 11.6658C17.1398 11.4248 17.2119 11.1523 17.2119 10.875C17.2119 10.5977 17.1398 10.3251 17.0027 10.0841C16.8657 9.84305 16.6683 9.64176 16.43 9.49996C13.37 7.19997 11.43 11.21 13.88 12.5C14.2961 12.6549 14.742 12.7129 15.1839 12.6696C15.6258 12.6263 16.052 12.4828 16.43 12.25ZM14.43 9.56996C14.99 9.34996 16.1 10.07 16.22 10.72C16.34 11.37 14.91 11.72 14.33 11.47C14.1332 11.3917 13.9663 11.2529 13.8535 11.0736C13.7406 10.8943 13.6876 10.6839 13.7021 10.4726C13.7165 10.2612 13.7977 10.0599 13.9339 9.89772C14.0702 9.73551 14.2544 9.62074 14.46 9.56996H14.43Z" fill="black"/>
</g>
<defs>
<clipPath id="clip0_1033_3859">
<rect width="24" height="24" fill="white"/>
</clipPath>
</defs>
</svg>
