<svg width="24" height="24" viewBox="0 0 24 24" fill="none" xmlns="http://www.w3.org/2000/svg">
<g clip-path="url(#clip0_1051_8827)">
<path fill-rule="evenodd" clip-rule="evenodd" d="M6.14999 20.78C5.71999 20.64 5.78999 20.7 5.84999 20.65C6.38318 20.1821 6.72196 19.5316 6.79969 18.8265C6.87742 18.1214 6.68846 17.4128 6.26999 16.84C5.84999 16.36 4.81999 15.84 4.67999 16.39C4.66215 16.4774 4.67942 16.5684 4.72806 16.6432C4.77671 16.7181 4.85283 16.7708 4.93999 16.79C6.23999 17.1 6.23999 19.08 5.20999 19.79C4.94233 19.9514 4.64321 20.0537 4.33273 20.0899C4.02226 20.1261 3.70763 20.0955 3.40999 20C1.54999 19.59 1.86999 16.28 4.40999 16.46C4.48691 16.46 4.56067 16.4294 4.61505 16.3751C4.66944 16.3207 4.69999 16.2469 4.69999 16.17C4.69999 16.0931 4.66944 16.0193 4.61505 15.9649C4.56067 15.9105 4.48691 15.88 4.40999 15.88C3.80978 15.7749 3.19165 15.8751 2.6554 16.1645C2.11916 16.4539 1.6961 16.9156 1.45453 17.475C1.21296 18.0344 1.16698 18.659 1.32401 19.2477C1.48104 19.8365 1.83192 20.3552 2.31999 20.72C1.74837 20.948 1.25271 21.3328 0.889993 21.83C0.697114 22.101 0.559813 22.4076 0.486011 22.732C0.412209 23.0564 0.403366 23.3922 0.459994 23.72C0.472739 23.7889 0.509224 23.8512 0.563112 23.8961C0.617001 23.9409 0.68489 23.9654 0.754993 23.9654C0.825097 23.9654 0.892986 23.9409 0.946875 23.8961C1.00076 23.8512 1.03725 23.7889 1.04999 23.72C1.10605 23.4429 1.22589 23.1827 1.39999 22.96C1.83843 22.4312 2.30582 21.9271 2.79999 21.45L3.20999 21.15C3.78521 21.2876 4.38478 21.2876 4.95999 21.15C5.70582 21.5558 6.31998 22.1665 6.72999 22.91C6.89971 23.1808 7.04687 23.4651 7.16999 23.76C7.18856 23.8462 7.2406 23.9215 7.31468 23.9693C7.38876 24.0171 7.4788 24.0336 7.56499 24.015C7.65119 23.9964 7.72648 23.9444 7.7743 23.8703C7.82212 23.7962 7.83856 23.7062 7.81999 23.62C7.85845 23.0337 7.71977 22.4495 7.42197 21.943C7.12417 21.4366 6.681 21.0314 6.14999 20.78Z" fill="black"/>
<path fill-rule="evenodd" clip-rule="evenodd" d="M14 20.78C13.57 20.64 13.64 20.7 13.7 20.65C14.2332 20.1821 14.572 19.5316 14.6497 18.8265C14.7274 18.1214 14.5385 17.4128 14.12 16.84C13.7 16.36 12.67 15.84 12.53 16.39C12.5122 16.4774 12.5294 16.5684 12.5781 16.6432C12.6267 16.7181 12.7028 16.7708 12.79 16.79C14.09 17.1 14.09 19.08 13.06 19.79C12.7923 19.9514 12.4932 20.0537 12.1827 20.0899C11.8723 20.1261 11.5576 20.0955 11.26 20C9.39 19.59 9.73 16.28 12.21 16.46C12.2869 16.4666 12.3633 16.4424 12.4224 16.3927C12.4815 16.343 12.5184 16.2719 12.525 16.195C12.5316 16.1181 12.5074 16.0417 12.4577 15.9826C12.408 15.9235 12.3369 15.8866 12.26 15.88C11.6598 15.7749 11.0417 15.8751 10.5054 16.1645C9.96917 16.4539 9.54611 16.9156 9.30454 17.475C9.06297 18.0344 9.01699 18.659 9.17402 19.2477C9.33105 19.8365 9.68192 20.3552 10.17 20.72C9.59993 20.936 9.10368 21.3107 8.74 21.8C8.54712 22.071 8.40982 22.3776 8.33602 22.702C8.26221 23.0264 8.25337 23.3622 8.31 23.69C8.32275 23.7589 8.35923 23.8212 8.41312 23.8661C8.46701 23.9109 8.5349 23.9354 8.605 23.9354C8.6751 23.9354 8.74299 23.9109 8.79688 23.8661C8.85077 23.8212 8.88725 23.7589 8.9 23.69C9.0879 23.1042 9.43396 22.5816 9.9 22.18C10.2047 21.7704 10.5767 21.4154 11 21.13C11.5752 21.2676 12.1748 21.2676 12.75 21.13C13.3055 21.4053 13.7782 21.8227 14.12 22.34C14.4787 22.7475 14.7753 23.2058 15 23.7C15.0186 23.7862 15.0706 23.8615 15.1447 23.9093C15.2188 23.9571 15.3088 23.9736 15.395 23.955C15.4812 23.9364 15.5565 23.8844 15.6043 23.8103C15.6521 23.7362 15.6686 23.6462 15.65 23.56C15.678 22.9858 15.5365 22.4162 15.2431 21.9218C14.9497 21.4275 14.5174 21.0304 14 20.78Z" fill="black"/>
<path fill-rule="evenodd" clip-rule="evenodd" d="M23.57 23.56C23.5762 23.0714 23.4725 22.5876 23.2665 22.1445C23.0605 21.7014 22.7575 21.3102 22.38 21C22.1245 20.8449 21.8434 20.7366 21.55 20.68C23.11 19.47 22.91 16.56 20.83 16.14C20.7438 16.1214 20.6538 16.1378 20.5797 16.1857C20.5056 16.2335 20.4536 16.3088 20.435 16.395C20.4164 16.4812 20.4329 16.5712 20.4807 16.6453C20.5285 16.7194 20.6038 16.7714 20.69 16.79C22.31 17.18 22.14 20.68 19.16 20.03C17.3 19.62 17.62 16.31 20.11 16.49C20.1869 16.4979 20.2638 16.475 20.3238 16.4262C20.3838 16.3775 20.422 16.3069 20.43 16.23C20.4379 16.1531 20.415 16.0761 20.3663 16.0161C20.3175 15.9561 20.2469 15.9179 20.17 15.91C19.5688 15.8016 18.9487 15.8996 18.4102 16.1879C17.8717 16.4762 17.4464 16.938 17.2033 17.4983C16.9601 18.0587 16.9135 18.6848 17.0708 19.275C17.2281 19.8652 17.5802 20.385 18.07 20.75C17.7446 20.8858 17.4386 21.064 17.16 21.28C16.7983 21.5649 16.5195 21.9414 16.3525 22.3705C16.1854 22.7996 16.1362 23.2655 16.21 23.72C16.2227 23.7889 16.2592 23.8512 16.3131 23.896C16.367 23.9409 16.4349 23.9654 16.505 23.9654C16.5751 23.9654 16.643 23.9409 16.6969 23.896C16.7508 23.8512 16.7872 23.7889 16.8 23.72C16.9879 23.1341 17.3339 22.6116 17.8 22.21C18.1373 21.7858 18.5428 21.4208 19 21.13C19.5752 21.268 20.1748 21.268 20.75 21.13C21.3105 21.4017 21.7873 21.8198 22.13 22.34C22.4705 22.7657 22.7499 23.2369 22.96 23.74C22.9982 23.8012 23.0553 23.8482 23.1228 23.8739C23.1902 23.8995 23.2642 23.9023 23.3334 23.8819C23.4026 23.8615 23.4632 23.8189 23.506 23.7608C23.5487 23.7027 23.5712 23.6321 23.57 23.56Z" fill="black"/>
<path fill-rule="evenodd" clip-rule="evenodd" d="M19.43 9.60998C19.43 8.87998 21.13 6.26998 19.64 5.60998C19.56 5.60998 17.64 4.67998 17.55 4.66998C17.17 4.66998 17.02 5.08998 17.5 5.43998C17.98 5.78998 19.09 6.43998 19.15 6.51998C19.21 6.59998 18.68 8.51998 18.73 9.45998C18.38 9.35998 10.25 9.66998 7.94999 9.56998C5.64999 9.46998 5.04999 9.50998 5.19999 11.89C5.19999 12 5.19999 12.42 5.25999 12.55C5.05999 12.93 7.25999 13.02 7.13999 13.02C7.03114 14.4704 7.29986 15.9243 7.91999 17.24C7.93856 17.3262 7.9906 17.4015 8.06468 17.4493C8.13876 17.4971 8.22879 17.5135 8.31499 17.495C8.40119 17.4764 8.47648 17.4244 8.5243 17.3503C8.57212 17.2762 8.58856 17.1862 8.56999 17.1C8.50999 16.55 8.48999 15.89 8.40999 15.24C8.27754 14.4747 8.06987 13.7244 7.78999 13C9.64999 13 14.97 13.17 16.85 13.31C16.4593 13.9759 16.1727 14.6975 16 15.45C15.69 16.9 15.52 17.17 16 17.31C16.08 17.31 16.23 17.31 16.38 17.15L16.57 16.81C17.1823 15.7671 17.5259 14.5885 17.57 13.38C18.05 13.47 18.81 13.65 19.18 13.38C19.55 13.11 19.46 12.22 19.56 11.83C19.73 11 20.11 9.99998 19.43 9.60998ZM18.43 12.28C18.34 12.28 8.85999 12.16 7.14999 12.28C6.74174 12.278 6.33411 12.2479 5.92999 12.19C5.95854 12.0481 5.95854 11.9019 5.92999 11.76V10.34C6.93199 10.3201 7.9342 10.3668 8.92999 10.48C10.72 10.48 12.93 10.21 14.93 10.21C15.01 10.21 18.93 10.35 18.93 10.42C18.93 10.49 18.32 11.32 18.41 12.28H18.43Z" fill="black"/>
<path fill-rule="evenodd" clip-rule="evenodd" d="M6.20999 6.54999C5.78102 5.41118 5.52485 4.2146 5.44999 2.99999C5.40927 2.60656 5.47488 2.20941 5.63999 1.84999C5.74999 2.05999 5.85999 2.48999 5.93999 2.61999C6.68738 3.82671 7.52299 4.97652 8.43999 6.05999C8.67999 6.30999 8.98999 6.57999 9.28999 6.39999C10.29 5.81999 11.01 6.39999 12.29 6.46999C12.0408 7.18294 11.989 7.94999 12.14 8.68999C12.14 8.82999 12.5 9.27999 12.73 8.84999C13.063 8.09988 13.1573 7.26549 13 6.45999C13.2335 6.43787 13.4645 6.39435 13.69 6.32999C14.2863 6.52345 14.8333 6.84469 15.2927 7.27129C15.7521 7.6979 16.1129 8.21959 16.35 8.79999C16.41 9.08999 17.17 9.15999 17.17 8.70999C17.1139 8.13983 16.8958 7.59765 16.5414 7.14754C16.187 6.69742 15.7111 6.3582 15.17 6.16999C14.33 5.85999 14.41 6.05999 14.75 5.77999C15.3405 5.25646 15.7361 4.54825 15.8723 3.77094C16.0085 2.99363 15.8773 2.1931 15.5 1.49999C15.22 0.999986 14.44 0.229986 14.14 0.729986C14.0959 0.807136 14.0838 0.898472 14.1062 0.984444C14.1287 1.07042 14.1838 1.14419 14.26 1.18999C15.97 2.26999 15.26 6.10999 11.79 5.26999C11.3458 5.15531 10.952 4.89701 10.6699 4.53529C10.3877 4.17357 10.2331 3.72872 10.23 3.26999C10.2528 3.31598 10.2867 3.35559 10.3285 3.38526C10.3704 3.41493 10.419 3.43374 10.47 3.43999C11.0015 3.59932 11.5644 3.62333 12.1075 3.50981C12.6506 3.39629 13.1568 3.14886 13.58 2.78999C13.8538 3.01547 14.1447 3.21942 14.45 3.39999C14.5163 3.45833 14.6031 3.48795 14.6912 3.48233C14.7793 3.4767 14.8616 3.43629 14.92 3.36999C14.9783 3.30368 15.008 3.21691 15.0023 3.12877C14.9967 3.04063 14.9563 2.95833 14.89 2.89999C14.64 2.61999 14.35 2.06999 14.18 1.83999C13.57 1.06999 12.46 2.42999 11.45 2.70999C10.44 2.98999 10.35 2.70999 10.23 3.02999C10.2261 2.68079 10.2981 2.33492 10.441 2.01631C10.584 1.6977 10.7945 1.41397 11.058 1.18475C11.3214 0.95553 11.6315 0.786306 11.9669 0.688791C12.3022 0.591276 12.6547 0.567799 13 0.619986C13.0822 0.629268 13.1647 0.60551 13.2294 0.553938C13.2941 0.502365 13.3357 0.427203 13.345 0.344986C13.3543 0.262769 13.3305 0.180231 13.2789 0.115531C13.2274 0.0508314 13.1522 0.00926837 13.07 -1.42045e-05C12.4602 -0.106963 11.8326 -0.0412703 11.2582 0.189644C10.6838 0.420558 10.1853 0.807493 9.81921 1.30675C9.45309 1.806 9.23386 2.39768 9.18629 3.01496C9.13871 3.63224 9.26469 4.25053 9.54999 4.79999C10.03 5.79999 10.33 5.19999 9.15999 5.60999C8.29664 4.50692 7.53361 3.3289 6.87999 2.08999C6.70511 1.63865 6.45114 1.22213 6.12999 0.859986C5.96681 0.728675 5.76047 0.66306 5.55142 0.67601C5.34237 0.68896 5.14571 0.77954 4.99999 0.929986C4.73955 1.20223 4.54401 1.52983 4.42799 1.88828C4.31197 2.24673 4.27847 2.62677 4.32999 2.99999C4.41297 4.33883 4.75246 5.64926 5.32999 6.85999C5.84898 7.91367 6.68944 8.77514 7.72999 9.31999C7.95999 9.46999 8.43999 9.22999 8.23999 8.95999C7.81999 8.38999 6.57999 7.73999 6.20999 6.54999Z" fill="black"/>
</g>
<defs>
<clipPath id="clip0_1051_8827">
<rect width="24" height="24" fill="white"/>
</clipPath>
</defs>
</svg>
