<svg width="24" height="24" viewBox="0 0 24 24" fill="none" xmlns="http://www.w3.org/2000/svg">
<g clip-path="url(#clip0_1048_7348)">
<path d="M5.82001 7.63001C6.21001 7.63001 6.61001 7.63001 7.00001 7.69C7.66767 7.72782 8.32388 7.88004 8.94001 8.14001C9.01512 8.17727 9.10161 8.18453 9.18189 8.16033C9.26217 8.13614 9.33023 8.08228 9.37224 8.00972C9.41425 7.93715 9.42707 7.85132 9.40808 7.76965C9.38909 7.68797 9.33972 7.61659 9.27001 7.57001C8.71904 7.16937 8.09855 6.87438 7.44001 6.7C6.87741 6.54385 6.28963 6.49968 5.71001 6.57001C5.04425 6.67305 4.39937 6.88239 3.80001 7.19001C3.7285 7.21711 3.67004 7.27051 3.63658 7.33928C3.60313 7.40806 3.5972 7.48701 3.62001 7.56C3.64712 7.63383 3.70213 7.69405 3.7732 7.72772C3.84427 7.76138 3.92572 7.7658 4.00001 7.74C4.6005 7.6341 5.21113 7.59719 5.82001 7.63001Z" fill="black"/>
<path d="M9.49999 10.16C8.7652 9.49367 7.82092 9.10464 6.82999 9.06001C6.5527 9.05061 6.2751 9.06399 5.99999 9.10001C5.35403 9.22104 4.72579 9.42262 4.12999 9.70001C4.06541 9.729 4.01367 9.78062 3.98451 9.84512C3.95535 9.90963 3.9508 9.98257 3.9717 10.0502C3.99261 10.1178 4.03753 10.1755 4.098 10.2123C4.15847 10.2491 4.23032 10.2625 4.29999 10.25C4.90617 10.1661 5.51828 10.1326 6.12999 10.15H7.29999C7.94519 10.1753 8.57686 10.3426 9.14999 10.64C9.18294 10.6752 9.22319 10.7027 9.2679 10.7206C9.31262 10.7386 9.36072 10.7465 9.40883 10.7439C9.45694 10.7412 9.50389 10.7281 9.54638 10.7054C9.58887 10.6826 9.62587 10.6509 9.65477 10.6123C9.68368 10.5738 9.7038 10.5294 9.71371 10.4822C9.72363 10.4351 9.7231 10.3863 9.71216 10.3394C9.70122 10.2925 9.68013 10.2485 9.65039 10.2106C9.62065 10.1727 9.58297 10.1418 9.53999 10.12L9.49999 10.16Z" fill="black"/>
<path d="M6.87999 11.58C6.59439 11.5449 6.30558 11.5449 6.01999 11.58C5.36933 11.6682 4.73953 11.8714 4.15999 12.18C4.09176 12.2075 4.03653 12.2599 4.00549 12.3266C3.97444 12.3933 3.9699 12.4693 3.99278 12.5392C4.01566 12.6091 4.06425 12.6677 4.12872 12.7031C4.19318 12.7386 4.26871 12.7482 4.33999 12.73C4.90605 12.6182 5.48478 12.5845 6.05999 12.63H6.75999C6.99188 12.6486 7.22235 12.682 7.44999 12.73C7.99278 12.8594 8.5146 13.0648 8.99999 13.34C9.03404 13.3652 9.07275 13.3834 9.11388 13.3935C9.15502 13.4037 9.19776 13.4055 9.23962 13.399C9.28148 13.3925 9.32163 13.3778 9.35774 13.3556C9.39386 13.3335 9.42521 13.3044 9.44999 13.27C9.47631 13.235 9.49519 13.1951 9.50545 13.1525C9.51571 13.11 9.51713 13.0658 9.50963 13.0227C9.50214 12.9796 9.48587 12.9384 9.46186 12.9019C9.43784 12.8653 9.40657 12.834 9.36999 12.81C8.87783 12.374 8.30787 12.0348 7.68999 11.81C7.42694 11.7107 7.15598 11.6338 6.87999 11.58Z" fill="black"/>
<path d="M15.52 5.68001C15.5971 6.07311 15.6506 6.4705 15.68 6.87001C15.82 8.54001 15.68 10.25 15.97 11.87C15.97 11.87 16.41 12.48 16.87 12.1C17.0865 11.921 17.2935 11.7308 17.49 11.53C17.6138 11.3658 17.7241 11.1919 17.82 11.01C17.956 10.7611 18.0763 10.504 18.18 10.24C18.4099 10.4869 18.6205 10.751 18.81 11.03C18.81 11.03 19.34 11.73 19.38 11.77C19.465 11.8712 19.581 11.9415 19.71 11.97C19.8412 12.0047 19.9807 11.9877 20.0998 11.9226C20.2189 11.8575 20.3084 11.7492 20.35 11.62C20.4144 11.4567 20.4548 11.2849 20.47 11.11V10.2L20.37 7.54001C20 4.00001 20 3.54001 19.76 3.05001C19.6715 2.87318 19.5478 2.71632 19.3965 2.58906C19.2452 2.4618 19.0694 2.36684 18.88 2.31001C18.5969 2.21532 18.2977 2.17793 18 2.20001C17.6308 2.21092 17.2629 2.25105 16.9 2.32001C16.8 2.32001 14.76 2.79001 14.57 2.91001C14.5374 2.92859 14.5088 2.95356 14.486 2.98341C14.4632 3.01327 14.4466 3.04741 14.4373 3.0838C14.428 3.12019 14.4261 3.15809 14.4317 3.19523C14.4373 3.23237 14.4503 3.26801 14.47 3.30001C14.8921 4.05952 15.2436 4.8562 15.52 5.68001ZM15.26 3.37001L17 3.00001C17.333 2.97949 17.667 2.97949 18 3.00001C18.1909 2.99149 18.3814 3.02211 18.56 3.09001C18.6495 3.11845 18.7321 3.16513 18.8027 3.22708C18.8733 3.28904 18.9302 3.36495 18.97 3.45001C19.0797 3.82658 19.1303 4.21791 19.12 4.61001L19.33 7.66001V10C19.1908 9.81761 19.0405 9.64394 18.88 9.48001C18.6557 9.25954 18.3995 9.07412 18.12 8.93001C18.0448 8.8951 17.9629 8.87702 17.88 8.87702C17.7971 8.87702 17.7152 8.8951 17.64 8.93001C17.5326 8.96949 17.4412 9.04331 17.38 9.14001C17.3394 9.24766 17.3059 9.3579 17.28 9.47001L17.13 9.87001C17.05 10.06 16.97 10.26 16.88 10.45L16.74 10.71C16.57 9.43001 16.57 8.11001 16.39 6.82001C16.3391 6.3917 16.2589 5.96738 16.15 5.55001C16.0563 5.18249 15.9291 4.82432 15.77 4.48001C15.6 4.12001 15.4 3.76001 15.19 3.41001L15.26 3.37001Z" fill="black"/>
<path d="M23.89 10.25C23.78 9.25002 23.61 8.25002 23.46 7.33002C23.3681 6.61141 23.2142 5.9021 23 5.21002C22.8899 4.83237 22.6578 4.50182 22.34 4.27002C21.9729 4.06292 21.5685 3.93038 21.15 3.88002C21.0801 3.87617 21.0099 3.87617 20.94 3.88002C20.29 3.88002 20.38 4.50002 20.94 4.61002H21.01C21.3162 4.66579 21.6084 4.78132 21.87 4.95002C22.0667 5.17693 22.1858 5.46071 22.21 5.76002C22.33 6.38002 22.34 7.09002 22.39 7.53002C22.52 8.40002 22.65 9.38002 22.78 10.39C22.91 11.4 23.01 12.29 23.04 13.24C23.0844 14.1996 23.0308 15.1613 22.88 16.11C21.7399 15.7299 20.541 15.5572 19.34 15.6C18.0939 15.6382 16.8575 15.8331 15.66 16.18C15.2806 16.2877 14.9174 16.4458 14.58 16.65C14.1498 16.9116 13.7358 17.1988 13.34 17.51L13.03 17.71C13.03 16.83 13.11 15.71 13.1 14.6V13.09C13.1 12.58 13.02 12.09 12.96 11.59C12.8 10.27 12.55 9.04002 12.35 8.13002C12.3503 8.08754 12.3406 8.04558 12.3217 8.00755C12.3028 7.96952 12.2751 7.93649 12.241 7.91116C12.2069 7.88582 12.1673 7.86889 12.1254 7.86175C12.0836 7.8546 12.0406 7.85743 12 7.87002C11.9631 7.87492 11.9275 7.88713 11.8953 7.90594C11.8632 7.92476 11.8351 7.9498 11.8128 7.9796C11.7904 8.0094 11.7742 8.04336 11.7652 8.07949C11.7561 8.11563 11.7544 8.1532 11.76 8.19002C11.84 9.11002 11.85 10.34 11.9 11.66C11.9 12.14 11.9 12.66 11.98 13.14C12.06 13.62 12.05 14.14 12.1 14.63C12.19 15.7 12.29 16.7 12.35 17.54C12.11 17.37 11.83 17.17 11.46 16.95C11.0785 16.7184 10.6808 16.5145 10.27 16.34C8.8482 15.7367 7.29506 15.5094 5.76 15.68C4.38901 15.8594 3.067 16.308 1.87 17C1.97415 16.1308 2.01759 15.2553 2 14.38C1.98325 13.4079 1.89299 12.4385 1.73 11.48L1.11 7.00002C1.11 6.80002 1.22 6.67002 1.38 6.55002C1.64752 6.3651 1.94061 6.22024 2.25 6.12002C3.74866 5.55166 5.3372 5.25698 6.94 5.25002C8.54758 5.27032 10.1351 5.61025 11.61 6.25002C11.6882 6.28583 11.7775 6.28909 11.8581 6.25908C11.9388 6.22907 12.0042 6.16826 12.04 6.09002C12.0758 6.01179 12.0791 5.92253 12.0491 5.84189C12.019 5.76125 11.9582 5.69583 11.88 5.66002C10.3601 4.89251 8.69954 4.44334 7 4.34002C5.28 4.26419 3.56088 4.50833 1.93 5.06002C1.40449 5.21611 0.919714 5.4858 0.509999 5.85002C0.320133 6.0066 0.173564 6.20923 0.0842815 6.43856C-0.00500128 6.6679 -0.0340186 6.91629 -1.0645e-06 7.16002C-1.0645e-06 7.37002 0.179999 8.36002 0.359999 9.40002C0.509999 10.26 0.679999 11.14 0.809999 11.67C1.01862 12.5753 1.16232 13.4943 1.24 14.42C1.31 15.37 1.24 17.55 1.24 17.62C1.2004 18.0227 1.29535 18.4271 1.51 18.77C1.62846 18.9514 1.78607 19.104 1.97123 19.2165C2.1564 19.3289 2.36442 19.3985 2.58 19.42C2.81167 19.4594 3.04833 19.4594 3.28 19.42C3.72 19.33 4.19 19.13 4.59 19.07C5.14436 19.0079 5.70238 18.9845 6.26 19C6.80478 19.0037 7.3477 19.064 7.88 19.18C8.78908 19.3044 9.61402 19.7778 10.18 20.5C10.4653 20.9215 10.8285 21.2847 11.25 21.57C11.6652 21.787 12.1327 21.884 12.6 21.85C13.2112 21.8543 13.8135 21.7029 14.35 21.41C15.0108 20.9341 15.6237 20.3948 16.18 19.8C16.3932 19.6084 16.641 19.4591 16.91 19.36C17.3616 19.1788 17.8308 19.0448 18.31 18.96C18.7937 18.8581 19.2858 18.8012 19.78 18.79C20.2732 18.7828 20.7658 18.8263 21.25 18.92C21.34 18.92 21.99 19.17 22.25 19.21C22.3253 19.2253 22.4031 19.2233 22.4776 19.2043C22.5521 19.1852 22.6212 19.1496 22.68 19.1C22.8955 18.8604 23.0499 18.5722 23.13 18.26C23.5331 16.6159 23.8171 14.9449 23.98 13.26C24.0122 12.2558 23.9821 11.2505 23.89 10.25ZM22.48 18C22.4422 18.112 22.3919 18.2193 22.33 18.32C22.0407 18.1992 21.733 18.1282 21.42 18.11C20.8828 17.9793 20.3328 17.9089 19.78 17.9C19.2312 17.8916 18.6827 17.9284 18.14 18.01C17.6002 18.0914 17.0683 18.2185 16.55 18.39C16.1843 18.5304 15.8459 18.7334 15.55 18.99C15.0272 19.5166 14.4583 19.9951 13.85 20.42C13.4678 20.62 13.0412 20.7198 12.61 20.71C11.72 20.71 11.51 20.31 11.14 19.86C10.7903 19.3891 10.3392 19.0029 9.82 18.73C9.28378 18.4547 8.70616 18.2689 8.11 18.18C7.51132 18.0882 6.90515 18.0547 6.3 18.08C5.6993 18.0968 5.10083 18.1603 4.51 18.27C4.1 18.35 3.63 18.58 3.18 18.7C3.03061 18.7433 2.87549 18.7635 2.72 18.76C2.59695 18.7558 2.47642 18.724 2.36736 18.6669C2.2583 18.6098 2.1635 18.5288 2.09 18.43C1.94775 18.2135 1.87452 17.959 1.88 17.7C3.1139 17.0275 4.47815 16.6284 5.88 16.53C7.25937 16.4564 8.63506 16.7315 9.88 17.33C10.7218 17.7617 11.5336 18.2495 12.31 18.79C12.4923 18.8817 12.6969 18.9198 12.9 18.9C13.2168 18.8608 13.5191 18.744 13.78 18.56C14.4419 17.9691 15.1906 17.4835 16 17.12C17.1105 16.7458 18.2622 16.5074 19.43 16.41C20.5536 16.3027 21.6873 16.4114 22.77 16.73C22.72 16.8 22.57 17.72 22.48 18Z" fill="black"/>
<path d="M12.65 6.19001C13.0339 6.00005 13.4317 5.83958 13.84 5.71001L14.4 5.48001C14.5031 5.42683 14.5859 5.34131 14.6357 5.23655C14.6855 5.13179 14.6995 5.01358 14.6757 4.90006C14.6519 4.78654 14.5914 4.68398 14.5037 4.6081C14.416 4.53222 14.3058 4.48723 14.19 4.48001C13.8296 4.53195 13.4868 4.66907 13.19 4.88001C12.8349 5.13357 12.5212 5.44053 12.26 5.79001C12.2086 5.84393 12.18 5.91555 12.18 5.99001C12.18 6.06448 12.2086 6.13609 12.26 6.19001C12.3122 6.24072 12.3822 6.26908 12.455 6.26908C12.5278 6.26908 12.5977 6.24072 12.65 6.19001Z" fill="black"/>
</g>
<defs>
<clipPath id="clip0_1048_7348">
<rect width="24" height="24" fill="white"/>
</clipPath>
</defs>
</svg>
