<svg width="24" height="24" viewBox="0 0 24 24" fill="none" xmlns="http://www.w3.org/2000/svg">
<g clip-path="url(#clip0_1034_4060)">
<path fill-rule="evenodd" clip-rule="evenodd" d="M1.35 1.13998C1.3597 1.06653 1.34187 0.992086 1.29995 0.930993C1.25803 0.869901 1.19499 0.826481 1.12297 0.809096C1.05095 0.791712 0.975044 0.801593 0.909874 0.836837C0.844703 0.87208 0.79488 0.930193 0.77 0.999981C4.17233e-07 4.21998 0.0900004 14.57 0.75 17.3C1.18 19 6.19 19.05 8 19.06C8.07892 19.0463 8.15048 19.0052 8.20205 18.9439C8.25363 18.8826 8.28191 18.8051 8.28191 18.725C8.28191 18.6449 8.25363 18.5674 8.20205 18.5061C8.15048 18.4448 8.07892 18.4037 8 18.39C6.55 18.32 3.3 18.1 2 17.39C1.62 17.18 1.56 17.58 1.33 11.56C1.24 9.20998 1.16 7.48998 1.14 5.37998C1.19 5.18998 1.22 1.85998 1.35 1.13998Z" fill="black"/>
<path fill-rule="evenodd" clip-rule="evenodd" d="M19.29 4.46998C14.52 4.46998 12.04 3.92998 2.07 4.46998C2.00805 4.47774 1.95025 4.50529 1.90521 4.54853C1.86017 4.59177 1.83028 4.64839 1.82 4.70998V4.81998C1.83208 4.88704 1.86819 4.94739 1.92158 4.98973C1.97496 5.03207 2.04195 5.05349 2.11 5.04998C5.36 4.98998 6.18 5.60998 19.3 5.04998C19.3507 5.07639 19.4074 5.08916 19.4646 5.08704C19.5217 5.08492 19.5774 5.06799 19.626 5.0379C19.6746 5.00781 19.7146 4.9656 19.742 4.91541C19.7694 4.86521 19.7833 4.80876 19.7823 4.75158C19.7813 4.6944 19.7655 4.63846 19.7364 4.58924C19.7073 4.54002 19.6659 4.49921 19.6162 4.47081C19.5666 4.44242 19.5104 4.42741 19.4532 4.42727C19.396 4.42712 19.3398 4.44184 19.29 4.46998Z" fill="black"/>
<path fill-rule="evenodd" clip-rule="evenodd" d="M2.41 0.939977C5.23 0.789977 19.54 1.15998 20.1 1.62998C20.46 1.92998 20.64 4.79998 20.74 5.62998C20.92 7.16998 21.06 8.49998 21.14 10.06C21.1527 10.1289 21.1892 10.1912 21.2431 10.236C21.297 10.2809 21.3649 10.3054 21.435 10.3054C21.5051 10.3054 21.573 10.2809 21.6269 10.236C21.6808 10.1912 21.7173 10.1289 21.73 10.06C21.73 8.63998 21.64 6.96998 21.54 5.56998C21.44 4.16998 21.54 1.56998 20.79 0.889977C19.36 -0.460023 4.62 0.0699769 2.36 0.269977C2.28104 0.288411 2.21126 0.334457 2.16327 0.39981C2.11527 0.465162 2.0922 0.545517 2.09824 0.626377C2.10427 0.707237 2.13901 0.783279 2.19617 0.840783C2.25334 0.898287 2.32918 0.933467 2.41 0.939977Z" fill="black"/>
<path fill-rule="evenodd" clip-rule="evenodd" d="M3.48 3.17995C3.55083 3.25282 3.63556 3.31076 3.72917 3.35031C3.82278 3.38987 3.92337 3.41025 4.025 3.41025C4.12663 3.41025 4.22722 3.38987 4.32083 3.35031C4.41444 3.31076 4.49917 3.25282 4.57 3.17995C4.65623 3.03243 4.68553 2.85847 4.65237 2.69085C4.61922 2.52323 4.5259 2.37352 4.39 2.26995C3.71 1.87995 2.87 2.56995 3.48 3.17995Z" fill="black"/>
<path fill-rule="evenodd" clip-rule="evenodd" d="M5.82 2.93997C5.89097 3.01439 5.97631 3.07364 6.07085 3.11412C6.16539 3.1546 6.26716 3.17547 6.37 3.17547C6.47284 3.17547 6.57461 3.1546 6.66915 3.11412C6.76369 3.07364 6.84903 3.01439 6.92 2.93997C7.01261 2.78905 7.04549 2.60898 7.01219 2.43508C6.97889 2.26118 6.88181 2.10599 6.74 1.99997C6.05 1.62997 5.21 2.31997 5.82 2.93997Z" fill="black"/>
<path fill-rule="evenodd" clip-rule="evenodd" d="M8.38 2.93997C8.45097 3.01439 8.53631 3.07364 8.63085 3.11412C8.72539 3.1546 8.82716 3.17547 8.93 3.17547C9.03284 3.17547 9.13461 3.1546 9.22915 3.11412C9.32369 3.07364 9.40903 3.01439 9.48 2.93997C9.57494 2.78971 9.60917 2.60897 9.57574 2.4344C9.54232 2.25983 9.44374 2.10452 9.3 1.99997C8.61 1.62997 7.77 2.31997 8.38 2.93997Z" fill="black"/>
<path fill-rule="evenodd" clip-rule="evenodd" d="M23.62 21.9C22.8553 20.5302 21.979 19.2257 21 18C24.15 13 17.54 7.84997 12.58 11.66C11.5543 12.4079 10.8384 13.5058 10.5675 14.7459C10.2966 15.9861 10.4896 17.2825 11.11 18.39C12.61 20.82 15.55 21.39 15.5 20.56C15.4975 20.5219 15.4874 20.4846 15.4704 20.4504C15.4535 20.4162 15.4299 20.3856 15.4011 20.3605C15.3723 20.3355 15.3388 20.3163 15.3026 20.3042C15.2664 20.2921 15.2281 20.2872 15.19 20.29C13.79 20.36 12.4 19.07 11.8 17.99C11.3435 17.0604 11.2378 15.9973 11.5024 14.9961C11.7669 13.9949 12.3839 13.1227 13.24 12.54C16.12 10.42 20.02 11.71 20.76 14.54C21.41 17.01 19.31 19.42 17.17 20.17C17.0865 20.1978 17.0174 20.2577 16.978 20.3365C16.9386 20.4152 16.9322 20.5064 16.96 20.59C16.9878 20.6735 17.0477 20.7426 17.1265 20.7819C17.2053 20.8213 17.2965 20.8278 17.38 20.8C17.8062 20.6635 18.2155 20.479 18.6 20.25C18.97 20.77 19.92 22.07 20.01 22.25C22.07 25.2 24.36 24 23.62 21.9ZM22.62 22.9C21.88 23.28 19.76 20.7 19.09 19.95C19.629 19.5787 20.1107 19.1307 20.52 18.62C20.83 19.06 23.14 22.6 22.64 22.86L22.62 22.9Z" fill="black"/>
<path fill-rule="evenodd" clip-rule="evenodd" d="M12.11 8.30995C13.03 8.17995 14.11 8.96995 15.39 8.58995C16.0731 8.36737 16.795 8.28905 17.51 8.35995C17.43 8.35995 18.42 8.35995 18.37 8.02995C18.32 7.69995 17.29 7.73995 16.89 7.63995C16.6509 7.61015 16.4091 7.61015 16.17 7.63995C15.04 7.63995 15.17 8.00995 13.87 7.56995C11.39 6.73995 11.47 7.63995 10.64 7.79995C9.81 7.95995 8.53 6.88995 7.59 7.39995C7.07 7.67995 6.67 8.39995 7.17 8.51995C7.67 8.63995 7.38 8.20995 7.87 8.00995C8.36 7.80995 9.87 9.27995 11.2 8.75995C11.4812 8.56885 11.7874 8.41743 12.11 8.30995Z" fill="black"/>
<path fill-rule="evenodd" clip-rule="evenodd" d="M10.06 11.34C8 11.62 7 10.79 5.26 11C5.44 11 3.15 10.94 2.83 11.62C2.80477 11.6627 2.79055 11.7111 2.7886 11.7607C2.78666 11.8103 2.79705 11.8596 2.81885 11.9042C2.84066 11.9488 2.87319 11.9873 2.91353 12.0162C2.95387 12.0452 3.00076 12.0636 3.05 12.07C3.29 12.07 2.86 11.9 7.42 12.25H8.02C8.69817 12.2994 9.37922 12.2075 10.02 11.98C10.0877 11.9607 10.1477 11.921 10.1918 11.8662C10.236 11.8115 10.262 11.7443 10.2664 11.6741C10.2708 11.6039 10.2533 11.5341 10.2163 11.4742C10.1794 11.4144 10.1247 11.3675 10.06 11.34Z" fill="black"/>
<path fill-rule="evenodd" clip-rule="evenodd" d="M7 15.47C7.08752 15.47 7.17146 15.4352 7.23335 15.3734C7.29523 15.3115 7.33 15.2275 7.33 15.14C7.33 15.0525 7.29523 14.9685 7.23335 14.9067C7.17146 14.8448 7.08752 14.81 7 14.81C5.73853 14.7451 4.47447 14.8698 3.25 15.18C3.05 15.37 3.07 15.52 3.25 15.62C3.43 15.72 3.32 15.71 3.41 15.71C4.61062 15.8725 5.83169 15.7908 7 15.47Z" fill="black"/>
</g>
<defs>
<clipPath id="clip0_1034_4060">
<rect width="24" height="24" fill="white"/>
</clipPath>
</defs>
</svg>
