<svg width="24" height="24" viewBox="0 0 24 24" fill="none" xmlns="http://www.w3.org/2000/svg">
<g clip-path="url(#clip0_1051_8657)">
<path fill-rule="evenodd" clip-rule="evenodd" d="M21 20.81C21.4872 20.5256 21.9016 20.1318 22.2105 19.6597C22.5194 19.1877 22.7144 18.6503 22.78 18.09C22.9161 16.9924 22.7137 15.8794 22.2 14.9C21.7252 13.9968 20.9854 13.2605 20.08 12.79C19.1499 12.3306 18.0877 12.2137 17.08 12.46C16.2489 12.6376 15.452 12.9482 14.72 13.38C14.2102 13.6875 13.7625 14.0877 13.4 14.56C13.0303 15.1011 12.7733 15.7111 12.6445 16.3537C12.5156 16.9962 12.5175 17.6582 12.65 18.3C12.7473 18.9418 12.985 19.5543 13.3463 20.0936C13.7076 20.6329 14.1835 21.0858 14.74 21.42C15.3571 21.7441 16.043 21.9156 16.74 21.92C17.7189 21.925 18.693 21.7834 19.63 21.5C19.6643 21.4941 19.6966 21.4801 19.7244 21.4592C19.7522 21.4384 19.7747 21.4112 19.79 21.38C19.92 21.67 20.04 21.95 20.2 22.23C20.2813 22.3862 20.3785 22.5337 20.49 22.67C20.59 22.8 20.71 22.93 20.83 23.06C21.11 23.35 21.42 23.61 21.73 23.89C21.7894 23.9463 21.8682 23.9776 21.95 23.9776C22.0318 23.9776 22.1106 23.9463 22.17 23.89C22.2006 23.861 22.2249 23.8261 22.2415 23.7875C22.2582 23.7488 22.2668 23.7071 22.2668 23.665C22.2668 23.6229 22.2582 23.5812 22.2415 23.5425C22.2249 23.5039 22.2006 23.469 22.17 23.44C21.97 23.09 21.79 22.75 21.58 22.44C21.5 22.3 21.4 22.16 21.3 22.02C21.2019 21.8832 21.095 21.7529 20.98 21.63C20.79 21.43 20.6 21.25 20.4 21.07C20.6094 21.007 20.8108 20.9197 21 20.81ZM16.74 21.24C16.1664 21.2031 15.6089 21.0354 15.11 20.75C14.6785 20.4535 14.3171 20.0663 14.0511 19.6155C13.7851 19.1646 13.6209 18.661 13.57 18.14C13.4804 17.63 13.4935 17.1073 13.6086 16.6024C13.7236 16.0976 13.9383 15.6208 14.24 15.2C14.6003 14.7418 15.058 14.3695 15.58 14.11C16.1341 13.8368 16.718 13.6288 17.32 13.49C18.091 13.2896 18.9078 13.3639 19.63 13.7C20.3748 14.0524 20.9903 14.6295 21.39 15.35C21.8713 16.1454 22.0851 17.0742 22 18C21.9684 18.4499 21.8316 18.8861 21.6006 19.2734C21.3696 19.6607 21.0508 19.9884 20.67 20.23C20.4979 20.3387 20.3132 20.426 20.12 20.49C19 20.86 18.79 21.4 16.76 21.24H16.74Z" fill="black"/>
<path fill-rule="evenodd" clip-rule="evenodd" d="M12.46 20.72C12 20.72 11.07 20.78 10.05 20.78H6.42L4.42 20.73L3.37 20.6C2.52 20.43 2.2 20.09 2.2 19.6C2.42768 18.4577 2.7625 17.3395 3.20001 16.26C3.50341 15.025 3.7074 13.7676 3.81 12.5C3.93 11.1226 3.93 9.73739 3.81 8.36C3.62 6.36 3.26 4.3 2.95 2.29C2.93805 2.23553 2.90952 2.1861 2.86834 2.14849C2.82715 2.11089 2.77534 2.08697 2.72 2.08C4.52 1.85 6.35 1.53 8.19 1.32C9.45341 1.1603 10.7268 1.09345 12 1.12C12.27 1.12 13 1.06 13.7 1.07C14.03 1.07 14.33 1.07 14.45 1.15C15.25 1.81 16.1 2.56 16.89 3.35C17.3911 3.87551 17.865 4.42622 18.31 5C18.37 5.07 18.31 5.24 18.31 5.4V6.11L18.25 10.79C18.2632 10.8639 18.302 10.9308 18.3596 10.979C18.4172 11.0272 18.4899 11.0537 18.565 11.0537C18.6401 11.0537 18.7128 11.0272 18.7704 10.979C18.828 10.9308 18.8668 10.8639 18.88 10.79L19.15 6.12C19.1676 5.7869 19.1676 5.4531 19.15 5.12C19.1735 4.86718 19.1213 4.61307 19 4.39C18.428 3.63633 17.8066 2.92143 17.14 2.25C16.49 1.56 15.78 0.91 15.1 0.33C14.7711 0.119929 14.3902 0.00565558 14 0C13.27 0 12.31 0.06 12 0C10.9947 0.0234857 9.99228 0.117046 9 0.28C6.7 0.59 4.42 1.17 2.2 1.55C2.13507 1.57239 2.07979 1.61637 2.04339 1.67462C2.00699 1.73286 1.99168 1.80183 2 1.87C2.01233 1.94344 2.05243 2.00932 2.112 2.054C2.17158 2.09868 2.24605 2.11873 2.32 2.11H2.52C2.46756 2.13143 2.42355 2.1694 2.39467 2.21814C2.36579 2.26687 2.35362 2.32371 2.36 2.38C2.58 4.38 2.85 6.38 2.94 8.38C3.01298 9.71458 2.96948 11.053 2.81 12.38C2.74 12.99 2.65 13.6 2.54 14.2C2.43 14.8 2.27 15.4 2.13001 16C1.83 17.25 1.13 18.59 1.13 19.6C1.13 20.61 1.6 21.3 3.13 21.6L4.36 21.69H6.36C7 21.69 8.58001 21.63 10.01 21.57C11.01 21.57 12.01 21.48 12.46 21.42C12.5017 21.4175 12.5424 21.4066 12.5797 21.388C12.6171 21.3694 12.6503 21.3435 12.6774 21.3117C12.7045 21.28 12.7248 21.2431 12.7373 21.2033C12.7498 21.1635 12.7541 21.1215 12.75 21.08C12.7556 21.0372 12.7524 20.9936 12.7407 20.9521C12.729 20.9105 12.709 20.8717 12.6819 20.8381C12.6548 20.8044 12.6211 20.7766 12.583 20.7563C12.5449 20.7361 12.503 20.7237 12.46 20.72Z" fill="black"/>
<path fill-rule="evenodd" clip-rule="evenodd" d="M15.5 11.42C15.5765 11.4158 15.6489 11.3843 15.7042 11.3313C15.7594 11.2782 15.7938 11.2071 15.8011 11.1308C15.8083 11.0546 15.788 10.9782 15.7438 10.9157C15.6995 10.8531 15.6343 10.8085 15.56 10.79C15.02 10.71 14.48 10.67 13.94 10.64H13.73C13.7222 10.2208 13.6618 9.80415 13.55 9.4C13.4957 9.21602 13.4219 9.03835 13.33 8.87C13.2448 8.6943 13.1335 8.53248 13 8.39C12.827 8.24139 12.6394 8.11072 12.44 8C12.6646 7.74215 12.8359 7.44239 12.944 7.118C13.0521 6.79361 13.0949 6.45102 13.07 6.11C13.0767 5.79459 13.0203 5.48102 12.9041 5.18768C12.788 4.89434 12.6145 4.62714 12.3938 4.40174C12.173 4.17634 11.9095 3.99728 11.6187 3.87507C11.3278 3.75285 11.0155 3.68993 10.7 3.69C10.0293 3.67093 9.37796 3.91592 8.8861 4.37225C8.39423 4.82858 8.10118 5.45978 8.07 6.13C8.06177 6.52126 8.15854 6.90758 8.35024 7.24876C8.54193 7.58994 8.82155 7.87352 9.16 8.07C8.90098 8.1969 8.65626 8.35111 8.43 8.53C8.1573 8.74202 7.92667 9.00318 7.75 9.3C7.43307 9.80622 7.32548 10.4159 7.45 11C6.93 11.1 6.45 11.22 5.91 11.36C5.87426 11.366 5.84009 11.3791 5.80953 11.3986C5.77897 11.418 5.75264 11.4435 5.73211 11.4733C5.71158 11.5032 5.69727 11.5369 5.69004 11.5724C5.6828 11.6079 5.68279 11.6445 5.69 11.68C5.70451 11.7489 5.74448 11.8099 5.80194 11.8507C5.8594 11.8914 5.93012 11.9091 6 11.9C6.55 11.83 7.1 11.79 7.66 11.75C8.22 11.71 8.95 11.75 9.6 11.75C10.25 11.75 10.9 11.69 11.6 11.68C12.51 11.61 13.44 11.51 14.36 11.47C14.7389 11.4343 15.1194 11.4177 15.5 11.42ZM10.72 4.76C11.0986 4.75189 11.4651 4.89321 11.7402 5.15336C12.0153 5.41352 12.1769 5.77157 12.19 6.15C12.52 8.85 8.8 8.15 8.98 6.15C9.03735 5.73979 9.24965 5.36712 9.57327 5.1086C9.89689 4.85007 10.3072 4.72533 10.72 4.76ZM11.54 10.58C10.79 10.58 10.03 10.58 9.28 10.7C8.89 10.7 8.5 10.81 8.12 10.87C8.15835 10.6074 8.25767 10.3574 8.41 10.14C8.5 10.02 8.6 9.91 8.7 9.79L9.16 9.24C9.44 8.93 9.69 8.62 9.93 8.36C11.32 8.64 11.33 8.62 11.8 8.41C11.91 8.57 12.02 8.72 12.11 8.88C12.2 9.04 12.21 9.08 12.27 9.17C12.33 9.26 12.43 9.46 12.52 9.6C12.7114 9.92195 12.8818 10.256 13.03 10.6L11.54 10.58Z" fill="black"/>
<path fill-rule="evenodd" clip-rule="evenodd" d="M12.05 13.49C12.0513 13.4484 12.0443 13.407 12.0293 13.3683C12.0144 13.3295 11.9917 13.2941 11.9628 13.2643C11.9339 13.2344 11.8993 13.2107 11.861 13.1945C11.8227 13.1783 11.7816 13.1699 11.74 13.17C11.14 13.1 10.57 13.02 9.98001 12.97H9.20001C8.71001 12.97 8.20001 13.02 7.73001 13.09C7.01001 13.2 6.32001 13.39 5.60001 13.48C5.52575 13.48 5.45453 13.5095 5.40202 13.562C5.34951 13.6145 5.32001 13.6857 5.32001 13.76C5.32001 13.8342 5.34951 13.9054 5.40202 13.958C5.45453 14.0105 5.52575 14.04 5.60001 14.04C6.33469 14.1066 7.07244 14.1333 7.81001 14.12C8.29001 14.12 8.81001 14.04 9.24001 14.02L11.71 13.84C11.7568 13.8449 11.804 13.8392 11.8482 13.8232C11.8924 13.8073 11.9324 13.7814 11.9652 13.7477C11.9979 13.714 12.0226 13.6733 12.0373 13.6286C12.052 13.584 12.0563 13.5366 12.05 13.49Z" fill="black"/>
<path fill-rule="evenodd" clip-rule="evenodd" d="M8.69001 15.33H7.91001C7.65514 15.3452 7.40137 15.3753 7.15001 15.42C6.56001 15.53 6.01001 15.7 5.44001 15.82C5.36665 15.8276 5.29893 15.8628 5.25063 15.9186C5.20233 15.9743 5.17708 16.0463 5.18001 16.12C5.18254 16.1568 5.19233 16.1928 5.20879 16.2258C5.22526 16.2588 5.24809 16.2882 5.27597 16.3124C5.30384 16.3365 5.33622 16.3549 5.37124 16.3666C5.40625 16.3782 5.44322 16.3827 5.48001 16.38C6.14001 16.38 6.81001 16.46 7.48001 16.43C7.86001 16.43 8.25001 16.37 8.63001 16.35C9.19844 16.2901 9.77158 16.2901 10.34 16.35C10.422 16.3654 10.5067 16.3492 10.5772 16.3047C10.6477 16.2602 10.6987 16.1906 10.72 16.11C10.7303 16.0693 10.7322 16.0268 10.7256 15.9853C10.719 15.9438 10.704 15.9041 10.6816 15.8685C10.6591 15.833 10.6297 15.8024 10.595 15.7785C10.5604 15.7547 10.5212 15.7382 10.48 15.73C9.90397 15.517 9.30191 15.3825 8.69001 15.33Z" fill="black"/>
</g>
<defs>
<clipPath id="clip0_1051_8657">
<rect width="24" height="24" fill="white"/>
</clipPath>
</defs>
</svg>
