<svg width="24" height="24" viewBox="0 0 24 24" fill="none" xmlns="http://www.w3.org/2000/svg">
<g clip-path="url(#clip0_1051_8811)">
<path fill-rule="evenodd" clip-rule="evenodd" d="M13.56 10.59C13.3305 10.3628 13.054 10.1887 12.75 10.08C12.1807 9.9017 11.5941 9.78438 11 9.72996C10.79 9.72996 10.57 9.67996 10.36 9.66996H10.19C10.6708 9.26218 11.0403 8.73919 11.2641 8.14986C11.488 7.56053 11.5588 6.92408 11.47 6.29996C11.3115 5.26697 10.7551 4.33703 9.91969 3.70909C9.0843 3.08114 8.03633 2.80508 7 2.93996C6.03017 2.94165 5.09633 3.30742 4.38334 3.96485C3.67035 4.62228 3.23019 5.52345 3.15 6.48996C3.13282 6.91773 3.20386 7.34445 3.35869 7.74357C3.51353 8.1427 3.74884 8.50569 4.05 8.80996C3.07006 10.2408 2.37411 11.8466 2 13.54C1.82012 14.1154 1.76808 14.7232 1.84754 15.3208C1.92699 15.9184 2.13602 16.4915 2.46 17H2.31C2.00872 16.9741 1.71764 16.8783 1.46 16.72C1.46 16.72 1.46 16.64 1.46 16.58C1.39293 16.3932 1.35253 16.198 1.34 16C1.29 15.58 1.29 15.15 1.27 14.95L1 11.79C0.94 11 0.83 10.27 0.76 9.50996C0.706348 9.00849 0.682972 8.50425 0.69 7.99996C0.69 7.92305 0.659447 7.84929 0.605061 7.7949C0.550675 7.74052 0.476913 7.70996 0.4 7.70996C0.323087 7.70996 0.249325 7.74052 0.194939 7.7949C0.140553 7.84929 0.11 7.92305 0.11 7.99996C0.0446032 8.51084 0.00787904 9.02498 0 9.53996L0 11.85C0 12.62 0 13.13 0.05 13.77C0.0647292 14.2086 0.104796 14.646 0.17 15.08C0.209803 15.5955 0.290049 16.107 0.41 16.61C0.482215 16.9279 0.658108 17.2129 0.91 17.42C1.11757 17.5406 1.34412 17.6252 1.58 17.67L1.16 19.12C1.08 19.39 1.02 19.66 0.96 19.94C0.9 20.22 0.86 20.5 0.82 20.78C0.73 21.44 0.66 22.1 0.59 22.78C0.573961 22.8245 0.567704 22.872 0.571656 22.9192C0.575607 22.9664 0.589674 23.0122 0.6129 23.0535C0.636126 23.0948 0.667967 23.1306 0.706259 23.1585C0.744551 23.1864 0.788396 23.2057 0.834816 23.2151C0.881235 23.2245 0.92914 23.2239 0.975276 23.2131C1.02141 23.2024 1.0647 23.1819 1.10219 23.1529C1.13968 23.124 1.1705 23.0873 1.19255 23.0454C1.21461 23.0034 1.22738 22.9573 1.23 22.91C1.43 22.27 1.65 21.65 1.84 21.01C1.92 20.73 1.99 20.46 2.05 20.18C2.11452 19.8994 2.16458 19.6157 2.2 19.33C2.26 18.81 2.27 18.33 2.28 17.77H3.68C4.08 17.77 4.36 17.93 4.68 18C5.19417 18.0451 5.68573 18.2321 6.1 18.54C6.26099 18.6795 6.40529 18.8372 6.53 19.01C6.67 19.2 6.78 19.4 6.9 19.6C7.16 20.12 7.45 21.99 8.04 22.75C8.13294 22.8837 8.25152 22.9977 8.38885 23.0852C8.52618 23.1727 8.67953 23.2322 8.84 23.26C9.06507 23.2855 9.29295 23.254 9.50265 23.1684C9.71236 23.0828 9.89715 22.9458 10.04 22.77C10.7455 21.7962 11.0983 20.6111 11.04 19.41C11.1185 18.2468 10.828 17.0885 10.21 16.1C10.0056 15.8475 9.75432 15.637 9.47 15.48C8.97 15.2 8.4 15.1 7.89 14.82C7.85744 14.2071 7.85744 13.5929 7.89 12.98C7.91888 12.8977 7.91406 12.8074 7.87659 12.7287C7.83912 12.65 7.77204 12.5894 7.69 12.56C7.6064 12.5307 7.51468 12.5353 7.43437 12.5726C7.35407 12.61 7.2915 12.6772 7.26 12.76C7.26 12.86 7.18 14.28 7.18 14.85C7.17625 15.0379 7.24418 15.2203 7.37 15.36C7.92 15.72 8.55 15.85 9.1 16.18C9.28748 16.2935 9.45062 16.443 9.58 16.62C10.0379 17.4666 10.223 18.4341 10.11 19.39C10.1487 20.3227 9.87414 21.2415 9.33 22C9.22 22.11 9.14 22.19 9.05 22.19C8.96 22.19 9 22.19 8.98 22.12C8.89751 22.0167 8.83016 21.9022 8.78 21.78C8.36 20.91 8.14 19.52 7.92 19.09C7.78574 18.8351 7.63195 18.5911 7.46 18.36C7.28596 18.1146 7.08093 17.8928 6.85 17.7C6.6108 17.5006 6.34055 17.3419 6.05 17.23C5.53383 17.0596 5.00072 16.9456 4.46 16.89C4.03727 16.8603 3.63003 16.7188 3.28 16.48C2.63 15.95 2.61 14.87 2.8 13.73C3.06315 12.1244 3.63722 10.5856 4.49 9.19996C5.17352 9.67055 5.97184 9.94702 6.8 9.99996C6.83757 10.0056 6.87589 10.0035 6.91263 9.99379C6.94936 9.98411 6.98374 9.96706 7.01368 9.94367C7.04361 9.92029 7.06848 9.89105 7.08676 9.85775C7.10503 9.82445 7.11635 9.78778 7.12 9.74996C7.1256 9.71239 7.1235 9.67407 7.11382 9.63734C7.10415 9.6006 7.0871 9.56622 7.06371 9.53628C7.04032 9.50635 7.01109 9.48148 6.97779 9.46321C6.94448 9.44493 6.90781 9.43362 6.87 9.42996C4.84 9.09996 4 7.80996 4.06 6.54996C4.16107 5.83546 4.52401 5.18399 5.07838 4.72202C5.63274 4.26005 6.33898 4.02053 7.06 4.04996C7.83328 3.92125 8.62622 4.10032 9.26914 4.54886C9.91205 4.99741 10.3539 5.67979 10.5 6.44996C10.6377 7.24464 10.4583 8.06164 10.0002 8.72543C9.54206 9.38923 8.84186 9.84684 8.05 9.99996C8.00684 10.0094 7.966 10.0274 7.92992 10.0528C7.89383 10.0783 7.86323 10.1108 7.83993 10.1483C7.81663 10.1859 7.8011 10.2277 7.79427 10.2713C7.78744 10.315 7.78944 10.3596 7.80015 10.4024C7.81087 10.4453 7.83008 10.4856 7.85665 10.5209C7.88321 10.5561 7.9166 10.5857 7.95482 10.6079C7.99304 10.6301 8.03533 10.6443 8.07916 10.6498C8.12299 10.6553 8.16749 10.652 8.21 10.64C8.55299 10.5617 8.88781 10.4512 9.21 10.31L10.09 10.42C10.3339 10.4487 10.5749 10.4989 10.81 10.57C11.3414 10.7002 11.8601 10.8776 12.36 11.1C12.5236 11.1514 12.667 11.2528 12.77 11.39C12.77 11.44 12.77 11.48 12.66 11.56L12.41 11.78L11.87 12.06C11.4552 12.2032 11.0188 12.2742 10.58 12.27C9.82 12.27 9.04 12.2 8.38 12.19C8.33663 12.1858 8.29287 12.1903 8.25125 12.2032C8.20963 12.2161 8.17097 12.2371 8.1375 12.265C8.10404 12.2929 8.07642 12.3271 8.05625 12.3657C8.03609 12.4043 8.02377 12.4466 8.02 12.49C8.01729 12.5333 8.02317 12.5768 8.0373 12.6179C8.05142 12.6589 8.07352 12.6968 8.10232 12.7293C8.13113 12.7619 8.16606 12.7884 8.20513 12.8073C8.2442 12.8263 8.28664 12.8374 8.33 12.84C9.11 12.94 10.07 13.16 10.95 13.19C11.3738 13.1893 11.7951 13.1253 12.2 13C12.313 12.9689 12.4234 12.9287 12.53 12.88C12.69 12.8175 12.844 12.7405 12.99 12.65L13.51 12.21C14 11.42 13.9 10.94 13.56 10.59Z" fill="black"/>
<path fill-rule="evenodd" clip-rule="evenodd" d="M21.1 5.99998C21.0214 5.96445 20.9321 5.96018 20.8504 5.98804C20.7687 6.01589 20.7006 6.07379 20.66 6.14998C20.5 6.45998 20.35 6.77998 20.21 7.09998C20.02 7.56998 19.85 8.09998 19.69 8.53998C19.53 8.97998 19.41 9.32998 19.3 9.72998C19.221 10.0089 19.1608 10.2929 19.12 10.58L19.07 11.23H18.2C17.47 11.31 16.74 11.39 16 11.51C15.26 11.63 15.11 11.64 14.4 11.8C13.69 11.96 13.95 12.47 14.26 12.4C14.84 12.34 15.08 12.4 15.66 12.4C16.52 12.4 17.38 12.34 18.24 12.4H19.47C19.5988 12.3964 19.7243 12.3583 19.8333 12.2897C19.9424 12.2211 20.031 12.1245 20.09 12.01C20.1419 11.8583 20.1722 11.7001 20.18 11.54V10.77C20.1947 10.5217 20.2247 10.2745 20.27 10.03C20.34 9.63998 20.44 9.24998 20.53 8.86998C20.62 8.48998 20.76 7.86998 20.9 7.41998C21 7.10998 21.11 6.80998 21.23 6.50998C21.264 6.47094 21.288 6.42424 21.2999 6.3739C21.3119 6.32355 21.3115 6.27105 21.2987 6.22091C21.2859 6.17077 21.2612 6.12447 21.2266 6.08599C21.192 6.04751 21.1485 6.018 21.1 5.99998Z" fill="black"/>
<path fill-rule="evenodd" clip-rule="evenodd" d="M23.68 13.67C22.32 13.54 20.97 13.43 19.61 13.4H17.86C17.28 13.4 16.69 13.4 16.11 13.5C14.76 13.63 13.42 13.86 12.11 14.09C12.0431 14.1077 11.9848 14.1487 11.9455 14.2057C11.9062 14.2627 11.8886 14.3318 11.8958 14.4007C11.9031 14.4695 11.9347 14.5335 11.985 14.581C12.0353 14.6286 12.1009 14.6566 12.17 14.66C13.72 14.58 15.25 14.58 16.78 14.55H17.46C17.38 15.28 17.28 16 17.26 16.73V18.27C17.26 18.93 17.36 19.58 17.41 20.27C17.0885 20.2883 16.7699 20.3419 16.46 20.43C15.6245 20.6982 14.8426 21.1111 14.15 21.65C14.0872 21.6928 14.0423 21.7572 14.0239 21.8309C14.0055 21.9047 14.0148 21.9826 14.05 22.05C14.0913 22.1146 14.1557 22.161 14.2301 22.1796C14.3045 22.1982 14.3832 22.1876 14.45 22.15C15.1605 21.8157 15.9146 21.5834 16.69 21.46C17.0046 21.4106 17.3218 21.3806 17.64 21.37C17.9529 21.345 18.2672 21.345 18.58 21.37C19.34 21.4715 20.0677 21.7414 20.71 22.16C20.7803 22.213 20.8688 22.236 20.956 22.2238C21.0432 22.2116 21.122 22.1652 21.175 22.095C21.2281 22.0247 21.251 21.9362 21.2388 21.849C21.2266 21.7618 21.1803 21.683 21.11 21.63C20.4507 21.0178 19.6503 20.5781 18.78 20.35C18.5673 20.2931 18.3497 20.2563 18.13 20.24C18.21 19.61 18.27 18.97 18.31 18.34V17.34V16.34C18.26 15.71 18.18 15.09 18.11 14.47H19.06L21.37 14.36H23.67C23.716 14.3602 23.7615 14.3507 23.8036 14.3323C23.8458 14.3139 23.8836 14.2869 23.9147 14.253C23.9457 14.2191 23.9694 14.179 23.9841 14.1355C23.9988 14.0919 24.0042 14.0458 24 14C24.0001 13.9141 23.9667 13.8317 23.9069 13.7701C23.8472 13.7085 23.7658 13.6726 23.68 13.67Z" fill="black"/>
<path fill-rule="evenodd" clip-rule="evenodd" d="M16.5 3.90999C16.278 3.87497 16.052 3.87497 15.83 3.90999C15.5993 3.92534 15.3728 3.97943 15.16 4.06999C14.6732 4.28543 14.2671 4.6495 14 5.10999C13.9509 5.16966 13.9276 5.24638 13.9351 5.32327C13.9426 5.40016 13.9803 5.47092 14.04 5.51999C14.0997 5.56905 14.1764 5.5924 14.2533 5.5849C14.3302 5.5774 14.4009 5.53966 14.45 5.47999C14.7607 5.24488 15.1317 5.10271 15.52 5.06999L16 4.99999C16.1632 4.98997 16.3268 4.98997 16.49 4.99999C16.8856 4.95791 17.2855 5.00577 17.66 5.13999C17.6951 5.16355 17.7346 5.1797 17.7762 5.18743C17.8177 5.19517 17.8604 5.19433 17.9016 5.18496C17.9428 5.1756 17.9817 5.15791 18.0158 5.13297C18.0499 5.10804 18.0786 5.0764 18.1 5.03999C18.124 5.00333 18.1405 4.96227 18.1485 4.91918C18.1564 4.87609 18.1558 4.83184 18.1465 4.78902C18.1371 4.7462 18.1194 4.70566 18.0943 4.66977C18.0691 4.63388 18.0371 4.60336 18 4.57999C17.5702 4.22454 17.0516 3.99291 16.5 3.90999Z" fill="black"/>
<path fill-rule="evenodd" clip-rule="evenodd" d="M12.77 3.20999C13.5002 2.6815 14.3304 2.30724 15.21 2.10999C15.7742 1.95448 16.355 1.86719 16.94 1.84999C17.8991 1.76985 18.853 2.05566 19.61 2.64999C19.6407 2.68113 19.6773 2.70586 19.7176 2.72274C19.758 2.73962 19.8013 2.74831 19.845 2.74831C19.8887 2.74831 19.932 2.73962 19.9724 2.72274C20.0127 2.70586 20.0493 2.68113 20.08 2.64999C20.1376 2.58726 20.1696 2.50518 20.1696 2.41999C20.1696 2.33481 20.1376 2.25273 20.08 2.18999C19.3838 1.41287 18.4266 0.918274 17.39 0.799991C16.9514 0.750019 16.5086 0.750019 16.07 0.799991C15.6434 0.858178 15.2243 0.96211 14.82 1.10999C13.884 1.46671 13.0472 2.04284 12.38 2.78999C12.3256 2.84437 12.2951 2.91811 12.2951 2.99499C12.2951 3.07187 12.3256 3.14561 12.38 3.19999C12.4331 3.24788 12.5016 3.27521 12.5731 3.27704C12.6446 3.27888 12.7145 3.2551 12.77 3.20999Z" fill="black"/>
</g>
<defs>
<clipPath id="clip0_1051_8811">
<rect width="24" height="24" fill="white"/>
</clipPath>
</defs>
</svg>
