<svg width="24" height="24" viewBox="0 0 24 24" fill="none" xmlns="http://www.w3.org/2000/svg">
<g clip-path="url(#clip0_1051_8611)">
<path fill-rule="evenodd" clip-rule="evenodd" d="M7.29998 7.05798C6.59449 4.94332 6.03124 2.78383 5.61398 0.593983C5.59787 0.494766 5.61914 0.393101 5.67368 0.308663C5.72821 0.224224 5.81213 0.163017 5.90919 0.136885C6.00625 0.110754 6.10955 0.121556 6.1991 0.167202C6.28866 0.212847 6.3581 0.290091 6.39398 0.383983C7.66738 3.5291 8.6534 6.78305 9.33998 10.106C9.35549 10.2092 9.33276 10.3145 9.27606 10.4021C9.21937 10.4897 9.13261 10.5536 9.03212 10.5817C8.93162 10.6099 8.82431 10.6003 8.73036 10.5549C8.63641 10.5094 8.56231 10.4312 8.52198 10.335C8.21419 9.59043 7.92444 8.83854 7.65298 8.07998C6.89811 9.13277 6.36593 10.3285 6.08898 11.594C8.85398 11.593 11.617 11.754 14.365 12.075C14.4786 12.0684 14.5903 12.1071 14.6753 12.1828C14.7603 12.2585 14.8119 12.3648 14.8185 12.4785C14.8251 12.5921 14.7863 12.7038 14.7107 12.7888C14.635 12.8738 14.5286 12.9254 14.415 12.932C12.8977 12.8462 11.3786 12.7962 9.85898 12.782C11.0002 16.1135 11.63 19.5987 11.727 23.119C11.727 23.19 11.7094 23.2598 11.6757 23.3223C11.642 23.3848 11.5934 23.4379 11.534 23.4769C11.4747 23.5158 11.4067 23.5395 11.3359 23.5456C11.2652 23.5517 11.1941 23.5402 11.129 23.512C11.019 23.748 10.405 23.751 6.75898 23.768C5.43098 23.774 3.70098 23.782 1.44698 23.804C1.27935 23.8011 1.11964 23.7321 1.00259 23.6121C0.885549 23.492 0.820638 23.3306 0.821981 23.163C0.829981 21.502 0.862981 19.62 0.939981 17.74L0.956981 17.316C1.16098 12.307 1.18298 11.776 1.89398 11.72C2.94131 11.6574 3.9899 11.618 5.03898 11.602C4.96249 10.71 5.13299 9.8142 5.53181 9.01269C5.93062 8.21118 6.54235 7.53491 7.29998 7.05798ZM2.55198 12.988C2.32498 15.741 2.15298 19.832 2.09898 22.56C3.44098 22.604 4.58398 22.64 5.55898 22.67C9.00398 22.778 10.334 22.819 10.843 22.948C10.636 21.744 9.30998 14.76 8.91998 12.778C6.79598 12.778 4.67198 12.848 2.55198 12.988Z" fill="black"/>
<path fill-rule="evenodd" clip-rule="evenodd" d="M20.644 0.046022C15.314 -0.586978 14.529 5.48002 18.699 6.76202C19.4841 6.98224 20.3213 6.92359 21.0681 6.59606C21.8149 6.26853 22.4251 5.69235 22.7949 4.96558C23.1647 4.23881 23.2713 3.40635 23.0964 2.60987C22.9216 1.81338 22.4762 1.10209 21.836 0.597022C21.7466 0.526474 21.6329 0.494321 21.5198 0.507637C21.4067 0.520952 21.3035 0.578644 21.233 0.668022C21.1624 0.7574 21.1303 0.871142 21.1436 0.984227C21.1569 1.09731 21.2146 1.20047 21.304 1.27102C21.7036 1.64035 21.97 2.13129 22.062 2.6676C22.1539 3.20391 22.0662 3.75556 21.8124 4.23689C21.5586 4.71822 21.153 5.10228 20.6586 5.32942C20.1641 5.55656 19.6085 5.61407 19.078 5.49302C16.46 4.71302 16.563 0.823022 20.592 0.856022C20.6976 0.859771 20.8005 0.822203 20.8788 0.751298C20.9572 0.680392 21.0048 0.581737 21.0116 0.476288C21.0183 0.370839 20.9837 0.266906 20.9151 0.186565C20.8464 0.106224 20.7492 0.0558065 20.644 0.046022Z" fill="black"/>
<path fill-rule="evenodd" clip-rule="evenodd" d="M22.002 9.04999C20.583 6.97199 18.492 8.42799 17.425 8.60299C16.2585 8.56894 15.0977 8.42564 13.958 8.17499C10.508 8.09299 10.382 12.539 14.626 13.019C19.201 13.526 17.422 9.81399 18.016 20.509C18.112 22.337 18.29 24.156 20.428 23.989C22.498 23.834 22.856 21.865 23.016 19.799C23.134 18.305 23.246 10.883 22.002 9.04999ZM21.265 9.56799C20.237 8.16899 18.892 9.39699 17.621 9.65599C16.39 9.67599 15.159 9.57599 13.947 9.35799C11.915 9.37499 12.311 11.475 14.765 11.728C20.221 12.291 18.663 7.50899 19.331 20.441C19.394 21.764 19.274 22.784 20.346 22.718C22.234 22.598 21.983 17.402 21.983 15.526C22.2509 13.5112 22.0039 11.4614 21.265 9.56799Z" fill="black"/>
</g>
<defs>
<clipPath id="clip0_1051_8611">
<rect width="24" height="24" fill="white"/>
</clipPath>
</defs>
</svg>
