<svg width="24" height="24" viewBox="0 0 24 24" fill="none" xmlns="http://www.w3.org/2000/svg">
<g clip-path="url(#clip0_1033_3666)">
<path fill-rule="evenodd" clip-rule="evenodd" d="M16.68 11C16.8675 10.245 16.915 9.46206 16.82 8.68998C16.6 7.60998 16.19 6.98998 15.82 6.80998C15.07 6.46998 14.61 6.92998 14.24 7.56998C14.03 4.26998 11.38 3.22998 10.33 6.31998C8.75998 2.99998 5.42998 5.76998 7.54998 11.8C6.74998 11.25 5.79998 10.8 5.05998 11.38C4.31998 11.96 4.58998 13.91 4.99998 14.93C5.63998 16.58 6.68998 17.68 7.25998 19.98C7.94998 22.74 7.57998 23.41 8.15998 23.37C8.24562 23.3553 8.32275 23.3093 8.37635 23.2409C8.42995 23.1725 8.45619 23.0866 8.44998 23C8.44998 21.95 8.37998 20.85 8.22998 19.79C7.82998 16.97 6.99998 16.46 6.22998 14.45C5.91748 13.7849 5.76998 13.0542 5.79998 12.32C5.95998 11.69 7.63998 12.79 8.26998 13.45C8.51724 13.98 8.79092 14.4973 9.08998 15C9.10995 15.0404 9.13797 15.0762 9.17232 15.1054C9.20667 15.1345 9.24662 15.1563 9.28972 15.1694C9.33281 15.1825 9.37813 15.1867 9.42289 15.1816C9.46766 15.1766 9.51091 15.1624 9.54998 15.14C10.1 14.84 9.24998 14.49 8.47998 11.36C8.06634 9.85785 8.03882 8.27558 8.39998 6.75998C8.44977 6.5887 8.52029 6.42415 8.60998 6.26998C8.60998 6.26998 8.60998 6.13998 8.69998 6.13998C8.92998 6.13998 9.32998 6.80998 9.42998 7.01998C9.99805 8.22707 10.3371 9.52913 10.43 10.86C10.4446 10.9608 10.4986 11.0516 10.5802 11.1126C10.6618 11.1735 10.7642 11.1996 10.865 11.185C10.9658 11.1704 11.0566 11.1164 11.1176 11.0348C11.1785 10.9532 11.2046 10.8508 11.19 10.75C11.1999 9.64263 11.0586 8.53911 10.77 7.46998C10.9168 6.7581 11.3098 6.12075 11.88 5.66998C12.52 5.26998 13.05 7.33998 13.08 8.33998C13.15 10.74 12.59 11.67 13.26 11.75C13.362 11.7613 13.4643 11.7319 13.5448 11.6683C13.6253 11.6046 13.6774 11.5118 13.69 11.41C13.8 10.85 13.93 10.25 14.05 9.63998C14.19 9.55998 14.12 9.63998 14.77 8.41998C15.2 7.69998 15.35 7.41998 15.56 8.85998C15.6654 9.5426 15.6654 10.2374 15.56 10.92C15.34 13.02 14.91 13.41 15.45 13.58C15.5481 13.6081 15.6533 13.5966 15.7431 13.548C15.8328 13.4993 15.8999 13.4175 15.93 13.32C16.07 12.95 16.22 12.55 16.35 12.15C16.55 11.99 17.35 11.36 17.51 11.56C17.67 11.76 17.4 13 17.3 13.35C16.45 16.14 15.47 15.95 15.08 18.22C14.81 19.81 15.01 21.72 14.88 22.63C14.8653 22.7317 14.8903 22.8353 14.9499 22.9191C15.0095 23.0028 15.099 23.0605 15.2 23.08C15.96 23.21 15.59 21.78 16.09 19.08C16.53 16.72 17.28 17.18 18.17 14.74C18.58 13.59 19.04 11.31 17.99 10.79C17.7746 10.6949 17.5364 10.6641 17.3039 10.7013C17.0715 10.7386 16.8548 10.8423 16.68 11Z" fill="black"/>
<path fill-rule="evenodd" clip-rule="evenodd" d="M4.91996 4.87999C5.11887 4.42948 5.37425 4.00609 5.67996 3.61999C5.72067 3.58585 5.75425 3.54402 5.7788 3.4969C5.80334 3.44978 5.81836 3.39828 5.82301 3.34535C5.82765 3.29242 5.82182 3.23909 5.80586 3.18842C5.78989 3.13774 5.7641 3.0907 5.72996 3.04999C5.69581 3.00928 5.65399 2.9757 5.60686 2.95115C5.55974 2.92661 5.50824 2.91159 5.45531 2.90694C5.40238 2.9023 5.34906 2.90813 5.29838 2.92409C5.2477 2.94006 5.20067 2.96585 5.15996 2.99999C4.49426 3.32927 3.94558 3.8548 3.58794 4.5057C3.23031 5.1566 3.08093 5.90153 3.15996 6.63999C3.14997 6.68513 3.14929 6.73182 3.15796 6.77723C3.16663 6.82263 3.18447 6.86579 3.21038 6.90407C3.2363 6.94235 3.26975 6.97494 3.30868 6.99985C3.34762 7.02476 3.39123 7.04147 3.43684 7.04896C3.48246 7.05645 3.52912 7.05456 3.57398 7.04341C3.61884 7.03225 3.66095 7.01206 3.69774 6.98408C3.73454 6.9561 3.76524 6.92091 3.78797 6.88066C3.8107 6.84041 3.82499 6.79595 3.82996 6.74999C4.15656 6.10597 4.52052 5.48157 4.91996 4.87999Z" fill="black"/>
<path fill-rule="evenodd" clip-rule="evenodd" d="M4.63997 1.33C4.70977 1.26295 4.75214 1.17235 4.75885 1.07579C4.76556 0.97924 4.73613 0.883642 4.67628 0.807581C4.61643 0.73152 4.53043 0.680432 4.43501 0.664246C4.33959 0.64806 4.24156 0.667934 4.15997 0.720004C1.50997 2.46 0.739971 4.14 -2.93292e-05 7C-0.0318553 7.08487 -0.0286636 7.17891 0.00884369 7.26143C0.046351 7.34394 0.115101 7.40818 0.199971 7.44C0.28484 7.47183 0.378876 7.46864 0.461392 7.43113C0.543908 7.39362 0.608145 7.32487 0.639971 7.24C1.71577 5.10746 3.06002 3.12133 4.63997 1.33Z" fill="black"/>
<path fill-rule="evenodd" clip-rule="evenodd" d="M21.5699 16.45C21.5863 16.3668 21.5709 16.2804 21.5268 16.2079C21.4827 16.1355 21.4131 16.0821 21.3317 16.0583C21.2503 16.0345 21.1629 16.042 21.0867 16.0793C21.0105 16.1166 20.951 16.1811 20.9199 16.26C20.6145 16.677 20.35 17.1224 20.1299 17.59C19.9599 18.02 19.8599 18.59 19.7299 19.06C19.6822 19.1502 19.6722 19.2557 19.7023 19.3532C19.7323 19.4507 19.7998 19.5323 19.8899 19.58C19.9801 19.6278 20.0856 19.6377 20.1831 19.6077C20.2806 19.5777 20.3622 19.5102 20.4099 19.42C20.824 19.0517 21.145 18.5906 21.3467 18.0744C21.5483 17.5581 21.6248 17.0015 21.5699 16.45Z" fill="black"/>
<path fill-rule="evenodd" clip-rule="evenodd" d="M24 14.88C24 14.7898 23.9641 14.7033 23.9004 14.6396C23.8366 14.5758 23.7501 14.54 23.66 14.54C23.5698 14.54 23.4833 14.5758 23.4195 14.6396C23.3558 14.7033 23.32 14.7898 23.32 14.88C22.8834 16.816 22.2777 18.7099 21.51 20.54C21.4644 20.6236 21.4511 20.721 21.4725 20.8138C21.4938 20.9066 21.5484 20.9884 21.6258 21.0437C21.7033 21.0991 21.7984 21.1242 21.8931 21.1143C21.9878 21.1044 22.0756 21.0602 22.14 20.99C22.8903 20.1775 23.4473 19.2059 23.7694 18.1479C24.0914 17.0899 24.1703 15.9727 24 14.88Z" fill="black"/>
</g>
<defs>
<clipPath id="clip0_1033_3666">
<rect width="24" height="24" fill="white"/>
</clipPath>
</defs>
</svg>
