<svg width="24" height="24" viewBox="0 0 24 24" fill="none" xmlns="http://www.w3.org/2000/svg">
<g clip-path="url(#clip0_1052_9343)">
<path fill-rule="evenodd" clip-rule="evenodd" d="M12.15 7.19998C12.4385 7.3163 12.7411 7.39364 13.05 7.42998C13.3459 7.46 13.6441 7.46 13.94 7.42998C14.4633 7.36926 14.9732 7.22404 15.45 6.99998C15.9576 6.78105 16.4014 6.437 16.74 5.99998C17.0044 5.616 17.1862 5.18133 17.274 4.72347C17.3618 4.26561 17.3536 3.79452 17.25 3.33998C17.066 2.46688 16.6516 1.65894 16.05 0.999983C15.9 0.829983 15.77 0.629983 15.61 0.459983C15.5193 0.366075 15.4187 0.282254 15.31 0.209983C15.2514 0.173668 15.1839 0.154427 15.115 0.154427C15.0461 0.154427 14.9786 0.173668 14.92 0.209983C14.6228 0.0199971 14.2717 -0.0677814 13.92 -0.0400168C13.2138 0.0471447 12.533 0.278605 11.92 0.639983C11.5536 0.830371 11.2168 1.0729 10.92 1.35998C10.7078 1.5641 10.5289 1.80032 10.39 2.05998C10.168 2.51424 10.0387 3.00814 10.0095 3.51289C9.98028 4.01765 10.0518 4.52317 10.22 4.99998C10.368 5.48223 10.6165 5.92763 10.9492 6.30684C11.2819 6.68605 11.6911 6.99045 12.15 7.19998ZM11.26 2.51998C11.3634 2.29074 11.5054 2.081 11.68 1.89998C11.878 1.70452 12.0958 1.53024 12.33 1.37998C12.8294 1.0304 13.3995 0.794849 14 0.689983C14.1483 0.646308 14.3067 0.650858 14.4523 0.702977C14.5978 0.755096 14.7231 0.852091 14.81 0.979983C14.8288 1.01498 14.8544 1.04589 14.8853 1.07091C14.9162 1.09593 14.9518 1.11457 14.9899 1.12573C15.0281 1.1369 15.068 1.14037 15.1075 1.13595C15.147 1.13153 15.1853 1.1193 15.22 1.09998L15.54 1.49998C16.0086 2.07717 16.3188 2.76646 16.44 3.49998C16.4947 3.83425 16.4803 4.17618 16.3977 4.50467C16.3152 4.83317 16.1662 5.14127 15.96 5.40998C15.6944 5.68387 15.3643 5.88673 15 5.99998C14.6191 6.15086 14.2182 6.24519 13.81 6.27998C13.5971 6.29981 13.3829 6.29981 13.17 6.27998C12.9704 6.25274 12.7753 6.19893 12.59 6.11998C12.2759 5.97565 11.9959 5.76649 11.7684 5.50624C11.5409 5.24599 11.3711 4.94055 11.27 4.60998C11.0001 3.94011 10.9965 3.19241 11.26 2.51998Z" fill="black"/>
<path fill-rule="evenodd" clip-rule="evenodd" d="M22.08 7.13998C21.6886 6.97571 21.2582 6.92712 20.84 6.99998C20.3093 7.11228 19.8018 7.31526 19.34 7.59998C18.764 7.92715 18.1697 8.22096 17.56 8.47998C17.1831 8.63798 16.7859 8.74233 16.38 8.78998C15.7422 8.85537 15.1006 8.87542 14.46 8.84998C13.8328 8.83403 13.2092 8.75021 12.6 8.59998C11.29 8.26998 9.92002 7.59998 8.60002 7.23998C7.94729 7.0698 7.27448 6.98906 6.60002 6.99998C6.22596 7.02327 5.85635 7.09383 5.50002 7.20998C5.00002 7.35998 4.50002 7.56998 4.06002 7.74998C2.89852 8.2272 1.88413 9.00352 1.12002 9.99998C0.81954 10.3729 0.645878 10.8319 0.624296 11.3103C0.602714 11.7887 0.734337 12.2615 1.00002 12.66C1.10514 12.8458 1.24873 13.0071 1.42119 13.133C1.59364 13.2589 1.79098 13.3465 2.00002 13.39C2.5715 13.4435 3.14463 13.3063 3.63002 13C4.548 12.3627 5.56031 11.8734 6.63002 11.55C6.91594 11.4791 7.21532 11.4833 7.49914 11.5621C7.78297 11.641 8.04162 11.7918 8.25002 12C7.92002 12.62 7.58002 13.18 7.25002 13.7C6.34002 15.11 5.41002 16.32 4.31002 18C3.81899 18.7379 3.38121 19.5098 3.00002 20.31C2.70364 20.9337 2.56295 21.62 2.59002 22.31C2.59444 22.6497 2.71036 22.9786 2.91995 23.246C3.12954 23.5134 3.42118 23.7045 3.75002 23.79C4.54517 23.8923 5.34948 23.6885 6.00002 23.22C6.98497 22.4702 7.83396 21.5569 8.51002 20.52C9.16603 19.5904 9.70351 18.5826 10.11 17.52C10.4184 17.5042 10.7276 17.5277 11.03 17.59C11.3778 17.6554 11.7144 17.7699 12.03 17.93C12.4151 18.1751 12.7537 18.4866 13.03 18.85C13.1462 18.9976 13.2258 19.1705 13.2623 19.3548C13.2988 19.539 13.2911 19.7293 13.24 19.91C13.0585 20.3711 12.8446 20.8189 12.6 21.25C12.395 21.6411 12.2951 22.0787 12.31 22.52C12.3417 22.8015 12.4524 23.0683 12.6293 23.2895C12.8063 23.5107 13.0423 23.6773 13.31 23.77L14.13 24C14.7593 24.0754 15.3967 23.9604 15.96 23.67C16.5032 23.3949 16.9781 23.002 17.35 22.52C17.9934 21.6515 18.3437 20.6008 18.35 19.52C18.3686 18.4662 18.0952 17.4279 17.56 16.52C17.3291 16.1335 17.0271 15.7942 16.67 15.52C16.1608 15.1417 15.598 14.8417 15 14.63C14.57 14.47 14 14.44 13.49 14.25C13.3752 14.1904 13.2759 14.1048 13.2 14C13.1607 13.956 13.1389 13.899 13.1389 13.84C13.1389 13.7809 13.1607 13.724 13.2 13.68C13.3087 13.5118 13.429 13.3514 13.56 13.2C15.0376 13.4969 16.5526 13.561 18.05 13.39C19.069 13.234 20.0515 12.8952 20.95 12.39C22.0423 11.7326 22.8702 10.7137 23.29 9.50998C23.3678 9.27498 23.3981 9.02687 23.3793 8.78006C23.3604 8.53324 23.2927 8.29263 23.1802 8.07216C23.0676 7.8517 22.9124 7.65578 22.7236 7.49576C22.5347 7.33574 22.316 7.21481 22.08 7.13998ZM22.38 9.30998C22.0671 10.2851 21.4187 11.1177 20.55 11.66C19.5417 12.2431 18.4124 12.5853 17.25 12.66C16.0571 12.7391 14.859 12.6787 13.68 12.48C13.68 12.48 13.6 12.48 13.56 12.48C13.4904 12.4406 13.4091 12.427 13.3304 12.4417C13.2518 12.4563 13.1808 12.4982 13.13 12.56C12.8252 12.8664 12.5839 13.23 12.42 13.63C12.3925 13.7612 12.3952 13.897 12.4282 14.027C12.4611 14.157 12.5233 14.2777 12.61 14.38C12.7947 14.6016 13.0319 14.7734 13.3 14.88C13.77 15.08 14.36 15.14 14.78 15.32C15.2039 15.4935 15.6065 15.7149 15.98 15.98C16.3187 16.2256 16.5988 16.5432 16.8 16.91C17.2025 17.6757 17.3891 18.5364 17.34 19.4C17.3156 20.2414 17.0328 21.0549 16.53 21.73C16.2622 22.0746 15.9204 22.3548 15.53 22.55C15.1672 22.7397 14.7581 22.8229 14.35 22.79L13.82 22.66C13.49 22.53 13.39 22.33 13.43 22.09C13.54 21.41 14.08 20.61 14.2 20.02C14.3036 19.5477 14.2325 19.0539 14 18.63C13.6322 18.0716 13.1302 17.6143 12.54 17.3C12.1209 17.0984 11.6716 16.9667 11.21 16.91C10.8316 16.8602 10.4484 16.8602 10.07 16.91C9.98377 16.8809 9.88958 16.8866 9.80744 16.9258C9.7253 16.965 9.66165 17.0346 9.63002 17.12C9.16574 18.1562 8.56363 19.1249 7.84002 20C7.18172 20.9042 6.37336 21.6888 5.45002 22.32C5.07991 22.5579 4.64999 22.6862 4.21002 22.69C4.14133 22.69 4.07333 22.6762 4.01012 22.6493C3.9469 22.6225 3.88976 22.5831 3.84213 22.5336C3.7945 22.4841 3.75737 22.4255 3.73294 22.3613C3.70852 22.2971 3.69732 22.2286 3.70002 22.16C3.69504 21.6768 3.79751 21.1986 4.00002 20.76C4.348 19.9815 4.75241 19.2295 5.21002 18.51C6.21002 16.76 7.04002 15.51 7.86002 14.03C8.20002 13.41 8.54002 12.76 8.86002 12.03C8.88462 11.977 8.89207 11.9177 8.88131 11.8604C8.87055 11.803 8.84213 11.7504 8.80002 11.71C8.52627 11.3622 8.15801 11.1008 7.7394 10.9571C7.3208 10.8135 6.86962 10.7936 6.44002 10.9C5.31227 11.2034 4.23681 11.6754 3.25002 12.3C2.945 12.476 2.60188 12.5755 2.25002 12.59C2.12202 12.5884 1.99682 12.5523 1.88768 12.4854C1.77853 12.4185 1.68951 12.3233 1.63002 12.21C1.48935 11.9461 1.43309 11.6454 1.46886 11.3485C1.50463 11.0516 1.6307 10.7729 1.83002 10.55C2.51487 9.7224 3.40933 9.09386 4.42002 8.72998C4.86182 8.5507 5.3124 8.39383 5.77002 8.25998C6.04349 8.18024 6.32546 8.13324 6.61002 8.11998C7.16782 8.12267 7.72275 8.20002 8.26002 8.34998C9.64002 8.71998 11.01 9.34998 12.31 9.72998C13.0028 9.89026 13.7094 9.98402 14.42 10.01C15.1144 10.0289 15.8092 10.0021 16.5 9.92998C17.0168 9.87042 17.5222 9.73566 18 9.52998C18.6514 9.23876 19.2828 8.90469 19.89 8.52998C20.2057 8.33817 20.5409 8.18061 20.89 8.05998C21.1653 7.96473 21.4647 7.96473 21.74 8.05998C21.9895 8.14244 22.1966 8.31981 22.3164 8.55373C22.4361 8.78766 22.459 9.05932 22.38 9.30998Z" fill="black"/>
</g>
<defs>
<clipPath id="clip0_1052_9343">
<rect width="24" height="24" fill="white"/>
</clipPath>
</defs>
</svg>
