<svg width="24" height="24" viewBox="0 0 24 24" fill="none" xmlns="http://www.w3.org/2000/svg">
<g clip-path="url(#clip0_1030_1860)">
<path d="M12 5.77001C11.5525 5.76594 11.1158 5.90698 10.7552 6.172C10.3947 6.43701 10.1297 6.81173 10 7.24001C9.86329 7.68149 9.78266 8.13841 9.76001 8.60001C9.78548 9.24032 9.85228 9.87832 9.96001 10.51C10.11 11.51 10.33 12.51 10.51 13.51C10.79 15.15 10.9 15.51 11.61 16.05C11.8364 16.1759 12.1 16.2178 12.3542 16.1684C12.6085 16.119 12.8372 15.9815 13 15.78C13.3494 15.3236 13.6074 14.8041 13.76 14.25C13.95 13.7 14.12 13.14 14.28 12.58C14.51 11.74 14.71 10.89 14.9 10.06C15.0248 9.58091 15.1117 9.09274 15.16 8.60001C15.1829 8.21316 15.1285 7.82563 15 7.46001C14.7103 6.92405 14.2748 6.48097 13.744 6.18193C13.2131 5.88289 12.6085 5.74009 12 5.77001ZM13.89 9.85001C13.75 10.68 13.59 11.52 13.41 12.35C13.28 12.91 13.15 13.45 12.99 13.99C12.8999 14.4476 12.7197 14.8827 12.46 15.27C12.4052 15.3498 12.3239 15.4076 12.2306 15.4332C12.1373 15.4589 12.0379 15.4506 11.95 15.41C11.55 15.12 11.57 15.21 11.26 13.41C11.1 12.41 11.01 11.41 10.92 10.41C10.8562 9.81897 10.8328 9.22425 10.85 8.63001C10.8481 8.26469 10.8986 7.90099 11 7.55001C11.17 6.96001 11.8 6.86001 12.4 6.94001C12.7125 6.95927 13.0156 7.05508 13.2824 7.219C13.5492 7.38292 13.7716 7.60992 13.93 7.88001C14.0044 8.09872 14.0383 8.32915 14.03 8.56001C13.999 8.99415 13.9354 9.42536 13.84 9.85001H13.89Z" fill="black"/>
<path d="M11.8001 17.38C11.3608 17.4268 10.9408 17.5852 10.5801 17.84C10.3732 17.9849 10.2013 18.1741 10.0768 18.3938C9.95224 18.6135 9.87821 18.8581 9.86005 19.11C9.83888 19.377 9.88341 19.6451 9.98974 19.8909C10.0961 20.1367 10.261 20.3527 10.4701 20.52C10.7583 20.7204 11.0909 20.8478 11.4393 20.8913C11.7876 20.9349 12.1413 20.8932 12.4701 20.77C12.8113 20.6583 13.1125 20.4492 13.3364 20.1685C13.5603 19.8877 13.6971 19.5476 13.7301 19.19C13.7433 18.9859 13.7126 18.7813 13.6401 18.59C13.5304 18.2006 13.284 17.8638 12.946 17.6415C12.6079 17.4192 12.201 17.3264 11.8001 17.38ZM13.0001 19.1C12.9452 19.2724 12.8446 19.4267 12.709 19.5465C12.5734 19.6662 12.4079 19.7469 12.2301 19.78C12.0627 19.8354 11.8846 19.8498 11.7105 19.8219C11.5365 19.7941 11.3717 19.7249 11.2301 19.62C11.162 19.5647 11.1077 19.4944 11.0713 19.4146C11.0348 19.3348 11.0173 19.2477 11.0201 19.16C11.0116 19.0578 11.025 18.955 11.0595 18.8584C11.094 18.7618 11.1488 18.6737 11.2201 18.6C11.4237 18.3887 11.6787 18.2336 11.9601 18.15C12.5401 18.01 12.7301 18.06 12.9601 18.76C13.004 18.8676 13.0178 18.9852 13.0001 19.1Z" fill="black"/>
<path d="M23.93 19.64C23.6908 18.6239 23.3936 17.6222 23.04 16.64C22.7055 15.5519 22.2702 14.4974 21.74 13.49C21 12 20.09 10.61 19.31 9.17002C18.68 8.00002 18.2 6.91002 17.57 5.83002C17.2938 5.34723 16.9865 4.88292 16.65 4.44002C15.9514 3.32843 15.1221 2.30447 14.18 1.39002C13.6631 0.933835 12.9887 0.697082 12.3 0.730018C11.9967 0.767066 11.706 0.873112 11.45 1.04002C11.1431 1.23311 10.8522 1.45047 10.58 1.69002C10.0633 2.10687 9.58782 2.57234 9.16003 3.08002C8.54003 3.81002 8.00003 4.61002 7.44003 5.41002L5.44003 8.10002C4.62488 9.39202 3.88045 10.7273 3.21003 12.1C2.54336 13.4734 1.93336 14.87 1.38003 16.29C1.11003 17 0.810028 17.69 0.550028 18.41C-0.179972 20.51 -0.259972 21.26 0.900028 21.91C1.8504 22.3143 2.86773 22.5381 3.90003 22.57L5.00003 22.68C6.81003 22.8 8.62003 23.02 10.44 23.16C11.22 23.22 12.01 23.26 12.8 23.28H14.6C15.98 23.28 17.36 23.15 18.74 23.11C20.0371 23.1847 21.3372 23.0289 22.58 22.65C22.8993 22.5248 23.1863 22.3295 23.4199 22.0786C23.6536 21.8276 23.8279 21.5274 23.93 21.2C24.0394 20.6858 24.0394 20.1543 23.93 19.64ZM22.84 20.88C22.7456 21.1262 22.5876 21.3429 22.382 21.5081C22.1765 21.6732 21.9308 21.7809 21.67 21.82C20.6834 22.0225 19.677 22.1131 18.67 22.09C17.29 22.15 15.91 22.27 14.53 22.33H12.78C12.0134 22.33 11.2434 22.3 10.47 22.24C8.63003 22.18 6.81003 22 5.00003 21.9L3.95003 21.81C3.02885 21.7959 2.11771 21.6164 1.26003 21.28C0.770028 21.01 0.390028 20.69 1.16003 18.61C1.42003 17.91 1.74003 17.22 2.02003 16.53C2.59003 15.13 3.21003 13.77 3.90003 12.44C4.58301 11.1082 5.34089 9.81612 6.17003 8.57002L8.20003 6.00002C8.76003 5.23002 9.30003 4.48002 9.91003 3.78002C10.3096 3.32917 10.7479 2.91425 11.22 2.54002C11.4652 2.32139 11.7258 2.12086 12 1.94002C12.1229 1.85819 12.2634 1.80678 12.41 1.79002C12.695 1.80828 12.9727 1.88734 13.2245 2.02188C13.4763 2.15642 13.6964 2.34332 13.87 2.57002C14.5602 3.37728 15.1918 4.23279 15.76 5.13002C16.1721 5.67654 16.5399 6.25504 16.86 6.86002C17.36 7.79002 17.78 8.74002 18.31 9.72002C19.09 11.15 19.98 12.57 20.73 14.04C21.2453 14.9846 21.6705 15.9757 22 17C22.2 17.68 22.59 18.58 22.81 19.46C22.9294 19.9247 22.9397 20.4107 22.84 20.88Z" fill="black"/>
</g>
<defs>
<clipPath id="clip0_1030_1860">
<rect width="24" height="24" fill="white"/>
</clipPath>
</defs>
</svg>
