<svg width="24" height="24" viewBox="0 0 24 24" fill="none" xmlns="http://www.w3.org/2000/svg">
<g clip-path="url(#clip0_1051_8965)">
<path fill-rule="evenodd" clip-rule="evenodd" d="M9.41303 12.685C8.47303 7.60703 7.68003 7.94003 6.20703 7.80003C2.66703 7.48903 1.06503 7.31403 0.551025 8.71203C0.652657 10.1129 1.00633 11.4838 1.59503 12.759C2.62303 14.51 4.82603 13.813 12.362 13.531C12.4644 13.5286 12.5616 13.4857 12.6323 13.4116C12.703 13.3375 12.7414 13.2384 12.739 13.136C12.7366 13.0337 12.6937 12.9364 12.6196 12.8657C12.5455 12.795 12.4464 12.7566 12.344 12.759C11.367 12.757 10.392 12.721 9.41303 12.685ZM8.54402 12.654C8.28074 11.4353 7.84857 10.2593 7.26003 9.16003C5.54722 8.88901 3.81025 8.80285 2.07903 8.90303C1.88103 8.90303 1.82203 8.90303 1.74903 9.09503C2.83203 13.752 2.31903 12.443 8.54503 12.654H8.54402Z" fill="black"/>
<path fill-rule="evenodd" clip-rule="evenodd" d="M12.71 1.25399C13.139 0.327993 8.63698 -1.39201 7.67498 2.07099C7.47227 2.72288 7.4902 3.42342 7.72599 4.06408C7.96177 4.70474 8.40225 5.24977 8.97918 5.61472C9.55612 5.97968 10.2373 6.14419 10.9172 6.08277C11.5971 6.02135 12.2378 5.73743 12.74 5.27499C14.7 3.51599 13.458 0.980993 12.71 1.25399ZM12.486 1.45399C12.4289 1.47396 12.3679 1.4802 12.308 1.4722C12.248 1.46421 12.1908 1.44222 12.141 1.40799C10.637 0.484993 9.15398 1.07799 8.85098 2.37199C8.728 2.77677 8.74043 3.21061 8.88636 3.60769C9.03229 4.00476 9.30376 4.3434 9.65959 4.57221C10.0154 4.80102 10.4362 4.90751 10.858 4.87553C11.2798 4.84355 11.6797 4.67483 11.997 4.39499C12.199 4.26625 12.3733 4.09848 12.5097 3.9015C12.646 3.70453 12.7417 3.48232 12.791 3.24789C12.8404 3.01347 12.8425 2.77155 12.7971 2.53632C12.7518 2.30109 12.6599 2.07727 12.527 1.87799C12.4808 1.81841 12.4524 1.74696 12.4452 1.67192C12.4379 1.59688 12.4521 1.52132 12.486 1.45399Z" fill="black"/>
<path fill-rule="evenodd" clip-rule="evenodd" d="M9.33401 7.95397C13.031 6.88197 16.276 11.661 14.476 12.582C14.3772 12.6228 14.2987 12.7012 14.2577 12.8C14.2167 12.8987 14.2167 13.0097 14.2575 13.1085C14.2984 13.2073 14.3768 13.2858 14.4755 13.3268C14.5742 13.3677 14.6852 13.3678 14.784 13.327C15.0518 13.2214 15.2903 13.0532 15.4796 12.8364C15.6689 12.6196 15.8035 12.3605 15.872 12.081C16.643 9.54097 13.473 6.48597 10.496 6.79697C8.04301 7.13697 8.84801 8.13897 9.33401 7.95397Z" fill="black"/>
<path fill-rule="evenodd" clip-rule="evenodd" d="M5.99602 20.274C6.07602 20.032 6.14802 19.779 6.22302 19.52C6.63002 18.109 7.08402 16.534 8.80202 15.575C8.89477 15.5255 8.96454 15.4417 8.99652 15.3416C9.02851 15.2414 9.02018 15.1327 8.97332 15.0386C8.92645 14.9445 8.84474 14.8723 8.74553 14.8375C8.64633 14.8026 8.53745 14.8079 8.44202 14.852C7.46846 15.3587 6.6309 16.0919 5.99988 16.9899C5.36885 17.8879 4.96284 18.9243 4.81602 20.012C4.46602 21.482 2.83602 21.812 3.10902 19.948C3.0974 19.0385 3.29329 18.1384 3.68178 17.316C4.07028 16.4936 4.64116 15.7706 5.35102 15.202C5.4404 15.1529 5.50663 15.0704 5.53513 14.9725C5.56364 14.8746 5.55209 14.7694 5.50302 14.68C5.45396 14.5906 5.3714 14.5244 5.2735 14.4959C5.17561 14.4674 5.0704 14.4789 4.98102 14.528C1.46102 16.238 0.713023 23.169 3.98902 22.473C4.56802 22.345 4.97502 22.077 5.27902 21.715C5.38634 21.9989 5.55744 22.2544 5.77911 22.4617C6.00079 22.6691 6.26712 22.8227 6.55757 22.9108C6.84801 22.999 7.15482 23.0192 7.45433 22.97C7.75384 22.9208 8.03804 22.8034 8.28502 22.627C9.35002 21.901 9.80902 20.885 10.258 19.895C10.54 19.271 10.818 18.657 11.238 18.133C11.421 17.899 11.765 17.839 12.167 17.767C13.12 17.599 14.404 17.372 14.661 14.649C14.6757 14.5431 14.6484 14.4357 14.5848 14.3497C14.5213 14.2637 14.4266 14.206 14.321 14.189C14.2151 14.174 14.1075 14.2013 14.0215 14.2649C13.9354 14.3285 13.8778 14.4233 13.861 14.529C13.457 16.477 12.744 16.547 11.936 16.627C11.686 16.651 11.426 16.677 11.164 16.76C10.224 17.06 9.71902 18.149 9.19902 19.267C8.97602 19.746 8.75102 20.23 8.48802 20.66C8.01502 21.431 7.22502 22.265 6.48002 21.75C5.92602 21.367 5.96902 20.952 6.00202 20.625C6.01602 20.491 6.02802 20.37 5.99602 20.274Z" fill="black"/>
<path fill-rule="evenodd" clip-rule="evenodd" d="M21.594 15.376C21.6964 16.1514 21.564 16.9396 21.214 17.639C25.619 21.949 22.886 24.864 18.438 23.769C18.4042 23.7605 18.3706 23.7515 18.337 23.742C15.554 23.965 12.666 24.054 12.286 22.272C12.2402 22.0521 12.2403 21.8252 12.2862 21.6053C12.3321 21.3855 12.4229 21.1775 12.5529 20.9944C12.6829 20.8112 12.8493 20.6569 13.0417 20.5411C13.2341 20.4252 13.4484 20.3503 13.671 20.321C13.7746 20.3126 13.8774 20.3443 13.9582 20.4095C14.0391 20.4748 14.0917 20.5686 14.1053 20.6716C14.119 20.7746 14.0925 20.8789 14.0314 20.9629C13.9703 21.0469 13.8792 21.1042 13.777 21.123C13.6355 21.1699 13.514 21.2631 13.432 21.3875C13.3499 21.512 13.3122 21.6604 13.325 21.8089C13.3377 21.9574 13.4 22.0973 13.502 22.206C13.604 22.3147 13.7396 22.3859 13.887 22.408C14.277 22.526 14.882 22.546 15.821 22.578C16.195 22.59 16.623 22.604 17.111 22.627C17 22.244 16.985 21.782 16.985 21.249C17.055 19.168 17.075 18.839 16.932 18.734C16.815 18.646 16.586 18.709 16.182 18.074C15.6698 17.028 15.5782 15.8255 15.926 14.714C16.296 13.184 16.759 12.507 18.368 14.011C18.6101 13.988 18.8539 13.988 19.096 14.011L19.365 13.772C19.995 13.209 20.287 12.948 20.639 13.289C21.159 13.8735 21.4916 14.6005 21.594 15.376ZM20.738 15.893C20.7692 16.4206 20.6623 16.9472 20.428 17.421C20.139 17.707 20.287 17.865 20.661 18.265C20.911 18.532 21.261 18.907 21.651 19.5C22.181 20.308 22.77 21.614 22.04 22.329C21.622 22.741 20.366 22.686 19.718 22.657L19.62 22.653C18.984 22.606 18.62 22.623 18.42 22.45C18.07 22.144 18.233 21.25 18.335 18.385C18.358 17.919 18.119 17.848 17.837 17.765C17.587 17.692 17.302 17.609 17.139 17.23C16.8818 16.3661 16.9126 15.4418 17.227 14.597C17.417 14.711 17.55 14.83 17.665 14.933C17.865 15.113 18.008 15.239 18.286 15.183C18.836 15.068 19.063 15.111 19.208 15.138C19.441 15.182 19.457 15.185 20.25 14.412C20.539 14.855 20.707 15.366 20.738 15.893Z" fill="black"/>
</g>
<defs>
<clipPath id="clip0_1051_8965">
<rect width="24" height="24" fill="white"/>
</clipPath>
</defs>
</svg>
