<svg width="24" height="24" viewBox="0 0 24 24" fill="none" xmlns="http://www.w3.org/2000/svg">
<g clip-path="url(#clip0_1048_7391)">
<path fill-rule="evenodd" clip-rule="evenodd" d="M21.21 5.45C20.6719 5.56662 20.1932 5.87161 19.86 6.31C19.8298 6.33561 19.805 6.36692 19.7869 6.40214C19.7688 6.43735 19.7578 6.47579 19.7545 6.51526C19.748 6.59496 19.7733 6.674 19.825 6.735C19.8768 6.796 19.9506 6.83396 20.0303 6.84052C20.11 6.84709 20.189 6.82172 20.25 6.77C20.77 6.41 20.84 6.35 21.32 6.34C21.8 6.33 22.94 7.09 22.96 7.62C23.0096 8.17947 22.8452 8.73692 22.5 9.18C21.83 8.66 20.18 7.49 19.75 7.18C19.6863 7.1165 19.6 7.08084 19.51 7.08084C19.4201 7.08084 19.3338 7.1165 19.27 7.18C18.88 7.62 19.65 7.85 21.93 9.8C21.63 10.31 21.51 10.39 18.18 14.27C17.9476 13.8179 17.627 13.4168 17.2371 13.0905C16.8473 12.7642 16.396 12.5192 15.91 12.37C18.77 8.37 19.28 8.26 18.91 7.94C18.54 7.62 18.41 8.09 18.06 8.49C15.58 11.38 14.21 12.96 14.18 13.49C14.07 15.68 13.97 16.74 14.3 17.05C14.95 17.67 17.3 16.78 17.84 16.43C19.9641 14.0602 21.9189 11.544 23.69 8.9C23.9346 8.51413 24.0582 8.06392 24.0449 7.60725C24.0316 7.15058 23.882 6.70833 23.6153 6.33737C23.3486 5.9664 22.9771 5.68368 22.5485 5.52555C22.1199 5.36742 21.6537 5.34111 21.21 5.45ZM17.14 15.45C16.5153 15.7772 15.8386 15.9937 15.14 16.09C15 13.02 15.06 13.59 15.47 12.99C16.1327 13.6852 16.8668 14.3086 17.66 14.85C17.38 15.19 17.19 15.41 17.14 15.45Z" fill="black"/>
<path fill-rule="evenodd" clip-rule="evenodd" d="M17.17 18.57C16.92 19.65 16.62 20.01 15.3 20.22C11.6728 20.5422 8.02128 20.4684 4.41003 20C3.73003 19.88 3.09003 19.85 2.41003 19.75C1.73003 19.65 1.86003 19.62 1.14003 19.46C1.01003 18.85 1.75003 17.35 1.91003 16.64C1.91003 16.64 4.09003 6.27 4.25003 5.33C4.46055 4.16363 4.59086 2.9842 4.64003 1.8C5.87003 1.8 7.76003 2.04 8.90003 2.17C12.47 2.57 16.33 1.55 18.76 2.94C18.9068 3.45981 18.9543 4.00261 18.9 4.54C18.9 4.61957 18.9316 4.69587 18.9879 4.75213C19.0442 4.80839 19.1205 4.84 19.2 4.84C19.2796 4.84 19.3559 4.80839 19.4122 4.75213C19.4684 4.69587 19.5 4.61957 19.5 4.54C19.58 3.87 19.69 2.76 19.22 2.27C18.14 1.17 15 1 13.36 1C11.9 1.06 10.44 1.24 9.00003 1.16C8.36003 1.16 5.00003 1.02 4.36003 1.06C3.89003 1.06 4.07003 1.73 4.05003 1.82C3.71003 4.82 3.94003 3.33 0.820028 16.34C0.600028 17.3 -0.319972 18.83 0.110028 20C0.340028 20.6 1.03003 20.62 1.36003 20.72C2.30378 20.9167 3.25901 21.0537 4.22003 21.13C7.20756 21.489 10.2253 21.5226 13.22 21.23C14.37 21.15 15.96 21.14 16.95 20.46C17.4524 20.0232 17.7705 19.4121 17.84 18.75C17.8518 18.706 17.8549 18.6601 17.849 18.615C17.8431 18.5698 17.8283 18.5262 17.8055 18.4868C17.7828 18.4473 17.7525 18.4127 17.7164 18.3849C17.6803 18.3572 17.639 18.3368 17.595 18.325C17.551 18.3132 17.5051 18.3101 17.46 18.3161C17.4148 18.322 17.3713 18.3367 17.3318 18.3595C17.2923 18.3822 17.2577 18.4125 17.23 18.4487C17.2022 18.4848 17.1818 18.526 17.17 18.57Z" fill="black"/>
<path fill-rule="evenodd" clip-rule="evenodd" d="M15.63 5.99999C14.52 5.99999 12.93 5.84999 11.42 5.78999C8.74004 5.67999 9.49004 5.99999 7.11004 5.70999C6.89004 5.70999 6.04004 5.38999 5.88004 5.86999C5.72004 6.34999 6.41004 6.16999 6.98004 6.41999C7.55004 6.66999 8.46004 6.99999 12.11 6.92999C13.42 6.92999 14.72 6.78999 15.67 6.68999C15.7153 6.68736 15.7597 6.67584 15.8005 6.65607C15.8414 6.63631 15.878 6.60869 15.9081 6.5748C15.9383 6.54091 15.9615 6.5014 15.9764 6.45854C15.9913 6.41567 15.9977 6.37029 15.995 6.32499C15.9924 6.27968 15.9809 6.23534 15.9611 6.19449C15.9414 6.15363 15.9137 6.11707 15.8798 6.0869C15.846 6.05672 15.8064 6.03351 15.7636 6.0186C15.7207 6.00369 15.6753 5.99736 15.63 5.99999Z" fill="black"/>
<path fill-rule="evenodd" clip-rule="evenodd" d="M13 10.18C7.34002 9.85999 6.42002 9.76999 5.54002 9.30999C5.47239 9.26755 5.39067 9.25372 5.31285 9.27154C5.23502 9.28935 5.16746 9.33736 5.12502 9.40499C5.08259 9.47262 5.06876 9.55433 5.08657 9.63216C5.10439 9.70999 5.15239 9.77755 5.22002 9.81999C6.13331 10.462 7.19157 10.8674 8.30002 11C9.86707 11.1261 11.4433 11.0792 13 10.86C13.0902 10.86 13.1767 10.8242 13.2404 10.7604C13.3042 10.6966 13.34 10.6102 13.34 10.52C13.34 10.4298 13.3042 10.3433 13.2404 10.2796C13.1767 10.2158 13.0902 10.18 13 10.18Z" fill="black"/>
<path fill-rule="evenodd" clip-rule="evenodd" d="M9.83 14.87C7.61 14.75 5.51 14.61 4.38 13.7C4.07 13.45 3.51 13.96 4.17 14.52C4.65547 14.8626 5.17895 15.1478 5.73 15.37C8.02 16.18 9.98 15.93 12.51 15.65C12.6002 15.65 12.6867 15.6142 12.7504 15.5504C12.8142 15.4867 12.85 15.4002 12.85 15.31C12.85 15.2198 12.8142 15.1334 12.7504 15.0696C12.6867 15.0058 12.6002 14.97 12.51 14.97C11.62 15 10.73 14.92 9.83 14.87Z" fill="black"/>
</g>
<defs>
<clipPath id="clip0_1048_7391">
<rect width="24" height="24" fill="white"/>
</clipPath>
</defs>
</svg>
